MerriweatherSans-Regular.ufo
<glyph name="numbersign" format="2">
  <advance width="739.0"/>
  <unicode hex="0023"/>
  <outline>
    <contour>
      <point x="162.0" y="0.0" type="line"/>
      <point x="259.0" y="0.0" type="line"/>
      <point x="322.0" y="670.0" type="line"/>
      <point x="223.0" y="670.0" type="line"/>
    </contour>
    <contour>
      <point x="409.0" y="0.0" type="line"/>
      <point x="505.0" y="0.0" type="line"/>
      <point x="568.0" y="670.0" type="line"/>
      <point x="469.0" y="670.0" type="line"/>
    </contour>
    <contour>
      <point x="659.0" y="428.0" type="line"/>
      <point x="659.0" y="506.0" type="line"/>
      <point x="97.0" y="506.0" type="line"/>
      <point x="97.0" y="428.0" type="line"/>
    </contour>
    <contour>
      <point x="637.0" y="171.0" type="line"/>
      <point x="637.0" y="252.0" type="line"/>
      <point x="80.0" y="252.0" type="line"/>
      <point x="80.0" y="171.0" type="line"/>
    </contour>
  </outline>
</glyph>
<glyph name="ampersand" format="2">
  <advance width="1498.0"/>
  <unicode hex="0026"/>
  <outline>
    <contour>
      <point x="943.0" y="207.0" type="curve"/>
      <point x="874.0" y="179.0"/>
      <point x="813.0" y="153.0"/>
      <point x="713.0" y="153.0" type="curve" smooth="yes"/>
      <point x="444.0" y="153.0"/>
      <point x="351.0" y="268.0"/>
      <point x="351.0" y="393.0" type="curve" smooth="yes"/>
      <point x="351.0" y="510.0"/>
      <point x="450.0" y="600.0"/>
      <point x="593.0" y="660.0" type="curve"/>
      <point x="612.0" y="667.0"/>
      <point x="672.0" y="684.0"/>
      <point x="691.0" y="692.0" type="curve"/>
      <point x="918.0" y="791.0"/>
      <point x="1058.0" y="913.0"/>
      <point x="1058.0" y="1170.0" type="curve" smooth="yes"/>
      <point x="1058.0" y="1348.0"/>
      <point x="919.0" y="1510.0"/>
      <point x="685.0" y="1510.0" type="curve" smooth="yes"/>
      <point x="436.0" y="1510.0"/>
      <point x="276.0" y="1376.0"/>
      <point x="276.0" y="1156.0" type="curve" smooth="yes"/>
      <point x="276.0" y="967.0"/>
      <point x="394.0" y="828.0"/>
      <point x="483.0" y="708.0" type="curve"/>
      <point x="510.0" y="672.0" type="line"/>
      <point x="610.0" y="534.0"/>
      <point x="818.0" y="258.0"/>
      <point x="942.0" y="132.0" type="curve" smooth="yes"/>
      <point x="1057.0" y="34.0"/>
      <point x="1141.0" y="-16.0"/>
      <point x="1284.0" y="-16.0" type="curve" smooth="yes"/>
      <point x="1336.0" y="-16.0"/>
      <point x="1375.0" y="-8.0"/>
      <point x="1402.0" y="0.0" type="curve"/>
      <point x="1402.0" y="119.0" type="line"/>
      <point x="1278.0" y="130.0"/>
      <point x="1203.0" y="158.0"/>
      <point x="1092.0" y="262.0" type="curve" smooth="yes"/>
      <point x="989.0" y="367.0"/>
      <point x="779.0" y="638.0"/>
      <point x="711.0" y="738.0" type="curve"/>
      <point x="679.0" y="778.0" type="line"/>
      <point x="549.0" y="970.0"/>
      <point x="489.0" y="1006.0"/>
      <point x="489.0" y="1162.0" type="curve" smooth="yes"/>
      <point x="489.0" y="1293.0"/>
      <point x="578.0" y="1349.0"/>
      <point x="682.0" y="1349.0" type="curve" smooth="yes"/>
      <point x="806.0" y="1349.0"/>
      <point x="864.0" y="1244.0"/>
      <point x="864.0" y="1167.0" type="curve" smooth="yes"/>
      <point x="864.0" y="972.0"/>
      <point x="746.0" y="880.0"/>
      <point x="560.0" y="816.0" type="curve"/>
      <point x="549.0" y="812.0"/>
      <point x="507.0" y="800.0"/>
      <point x="498.0" y="796.0" type="curve"/>
      <point x="300.0" y="718.0"/>
      <point x="134.0" y="588.0"/>
      <point x="134.0" y="385.0" type="curve" smooth="yes"/>
      <point x="134.0" y="120.0"/>
      <point x="370.0" y="-16.0"/>
      <point x="731.0" y="-16.0" type="curve" smooth="yes"/>
      <point x="862.0" y="-16.0"/>
      <point x="1009.0" y="38.0"/>
      <point x="1093.0" y="94.0" type="curve"/>
      <point x="1108.0" y="102.0"/>
      <point x="1121.0" y="125.0"/>
      <point x="1133.0" y="136.0" type="curve"/>
      <point x="1257.0" y="214.0"/>
      <point x="1329.0" y="340.0"/>
      <point x="1329.0" y="519.0" type="curve" smooth="yes"/>
      <point x="1329.0" y="612.0"/>
      <point x="1310.0" y="682.0"/>
      <point x="1303.0" y="715.0" type="curve"/>
      <point x="1103.0" y="715.0" type="line"/>
      <point x="1111.0" y="689.0"/>
      <point x="1134.0" y="611.0"/>
      <point x="1134.0" y="520.0" type="curve" smooth="yes"/>
      <point x="1134.0" y="387.0"/>
      <point x="1079.0" y="305.0"/>
      <point x="992.0" y="251.0" type="curve"/>
      <point x="981.0" y="240.0"/>
      <point x="969.0" y="223.0"/>
    </contour>
  </outline>
</glyph>
<glyph name="quotesingle" format="2">
  <advance width="373.97778"/>
  <unicode hex="0027"/>
  <outline>
    <contour>
      <point x="142.089" y="462.0" type="line"/>
      <point x="232.889" y="462.0" type="line"/>
      <point x="249.067" y="823.0" type="line"/>
      <point x="124.733" y="823.0" type="line"/>
    </contour>
  </outline>
</glyph>
<glyph name="period" format="2">
  <advance width="595.0"/>
  <unicode hex="002E"/>
  <outline>
    <contour>
      <point x="290.0" y="-22.0" type="curve" smooth="yes"/>
      <point x="378.0" y="-22.0"/>
      <point x="458.0" y="56.0"/>
      <point x="454.0" y="156.0" type="curve" smooth="yes"/>
      <point x="453.0" y="239.0"/>
      <point x="401.0" y="310.0"/>
      <point x="304.0" y="310.0" type="curve" smooth="yes"/>
      <point x="219.0" y="310.0"/>
      <point x="138.0" y="230.0"/>
      <point x="140.0" y="133.0" type="curve" smooth="yes"/>
      <point x="142.0" y="45.0"/>
      <point x="210.0" y="-22.0"/>
    </contour>
  </outline>
</glyph>
<glyph name="eight" format="2">
  <advance width="1288.0"/>
  <unicode hex="0038"/>
  <outline>
    <contour>
      <point x="654.0" y="-16.0" type="curve" smooth="yes"/>
      <point x="924.0" y="-16.0"/>
      <point x="1154.0" y="112.0"/>
      <point x="1152.0" y="384.0" type="curve" smooth="yes"/>
      <point x="1148.0" y="778.0"/>
      <point x="406.0" y="820.0"/>
      <point x="406.0" y="1156.0" type="curve" smooth="yes"/>
      <point x="406.0" y="1276.0"/>
      <point x="512.0" y="1348.0"/>
      <point x="646.0" y="1348.0" type="curve" smooth="yes"/>
      <point x="796.0" y="1348.0"/>
      <point x="886.0" y="1264.0"/>
      <point x="880.0" y="1140.0" type="curve" smooth="yes"/>
      <point x="876.0" y="1020.0"/>
      <point x="810.0" y="894.0"/>
      <point x="658.0" y="846.0" type="curve"/>
      <point x="776.0" y="748.0" type="line"/>
      <point x="998.0" y="834.0"/>
      <point x="1092.0" y="1018.0"/>
      <point x="1092.0" y="1166.0" type="curve" smooth="yes"/>
      <point x="1092.0" y="1370.0"/>
      <point x="916.0" y="1508.0"/>
      <point x="654.0" y="1508.0" type="curve" smooth="yes"/>
      <point x="396.0" y="1508.0"/>
      <point x="192.0" y="1380.0"/>
      <point x="192.0" y="1142.0" type="curve" smooth="yes"/>
      <point x="192.0" y="664.0"/>
      <point x="922.0" y="682.0"/>
      <point x="922.0" y="356.0" type="curve" smooth="yes"/>
      <point x="922.0" y="216.0"/>
      <point x="792.0" y="144.0"/>
      <point x="660.0" y="144.0" type="curve" smooth="yes"/>
      <point x="452.0" y="144.0"/>
      <point x="356.0" y="234.0"/>
      <point x="356.0" y="384.0" type="curve" smooth="yes"/>
      <point x="356.0" y="522.0"/>
      <point x="466.0" y="638.0"/>
      <point x="616.0" y="690.0" type="curve"/>
      <point x="490.0" y="786.0" type="line"/>
      <point x="234.0" y="680.0"/>
      <point x="136.0" y="512.0"/>
      <point x="136.0" y="368.0" type="curve" smooth="yes"/>
      <point x="136.0" y="88.0"/>
      <point x="394.0" y="-16.0"/>
    </contour>
  </outline>
</glyph>
<glyph name="less" format="2">
  <advance width="1338.0"/>
  <unicode hex="003C"/>
  <outline>
    <contour>
      <point x="169.0" y="680.0" type="line"/>
      <point x="1110.0" y="242.0" type="line"/>
      <point x="1110.0" y="459.0" type="line"/>
      <point x="394.0" y="767.0" type="line"/>
      <point x="394.0" y="743.0" type="line"/>
      <point x="1110.0" y="1060.0" type="line"/>
      <point x="1110.0" y="1272.0" type="line"/>
      <point x="169.0" y="830.0" type="line"/>
    </contour>
  </outline>
</glyph>
<glyph name="question" format="2">
  <advance width="1040.0"/>
  <unicode hex="003F"/>
  <outline>
    <contour>
      <point x="351.0" y="484.0" type="curve"/>
      <point x="526.0" y="484.0" type="line"/>
      <point x="499.0" y="580.0"/>
      <point x="476.0" y="638.0"/>
      <point x="485.0" y="725.0" type="curve" smooth="yes"/>
      <point x="500.0" y="913.0"/>
      <point x="870.0" y="947.0"/>
      <point x="911.0" y="1249.0" type="curve" smooth="yes"/>
      <point x="960.0" y="1524.0"/>
      <point x="804.0" y="1797.0"/>
      <point x="340.0" y="1797.0" type="curve" smooth="yes"/>
      <point x="237.0" y="1797.0"/>
      <point x="144.0" y="1771.0"/>
      <point x="119.0" y="1754.0" type="curve"/>
      <point x="119.0" y="1586.0" type="line"/>
      <point x="144.0" y="1592.0"/>
      <point x="199.0" y="1605.0"/>
      <point x="299.0" y="1605.0" type="curve" smooth="yes"/>
      <point x="578.0" y="1605.0"/>
      <point x="731.0" y="1473.0"/>
      <point x="678.0" y="1238.0" type="curve" smooth="yes"/>
      <point x="652.0" y="1049.0"/>
      <point x="258.0" y="981.0"/>
      <point x="265.0" y="753.0" type="curve" smooth="yes"/>
      <point x="269.0" y="636.0"/>
      <point x="308.0" y="538.0"/>
    </contour>
    <contour>
      <point x="465.0" y="-22.0" type="curve" smooth="yes"/>
      <point x="551.0" y="-22.0"/>
      <point x="630.0" y="53.0"/>
      <point x="627.0" y="150.0" type="curve" smooth="yes"/>
      <point x="625.0" y="229.0"/>
      <point x="574.0" y="297.0"/>
      <point x="481.0" y="297.0" type="curve" smooth="yes"/>
      <point x="399.0" y="297.0"/>
      <point x="319.0" y="219.0"/>
      <point x="321.0" y="129.0" type="curve" smooth="yes"/>
      <point x="323.0" y="42.0"/>
      <point x="391.0" y="-22.0"/>
    </contour>
  </outline>
</glyph>
<glyph name="at" format="2">
  <advance width="1044.0"/>
  <unicode hex="0040"/>
  <outline>
    <contour>
      <point x="492.0" y="-232.0" type="curve" smooth="yes"/>
      <point x="591.0" y="-232.0"/>
      <point x="682.0" y="-207.0"/>
      <point x="725.0" y="-180.0" type="curve"/>
      <point x="706.0" y="-114.0" type="line"/>
      <point x="671.0" y="-132.0"/>
      <point x="604.0" y="-158.0"/>
      <point x="502.0" y="-158.0" type="curve" smooth="yes"/>
      <point x="327.0" y="-158.0"/>
      <point x="159.0" y="-61.0"/>
      <point x="159.0" y="217.0" type="curve" smooth="yes"/>
      <point x="159.0" y="493.0"/>
      <point x="344.0" y="679.0"/>
      <point x="564.0" y="679.0" type="curve" smooth="yes"/>
      <point x="729.0" y="679.0"/>
      <point x="865.0" y="623.0"/>
      <point x="865.0" y="387.0" type="curve" smooth="yes"/>
      <point x="865.0" y="213.0"/>
      <point x="773.0" y="79.0"/>
      <point x="701.0" y="79.0" type="curve" smooth="yes"/>
      <point x="678.0" y="79.0"/>
      <point x="678.0" y="124.0"/>
      <point x="691.0" y="212.0" type="curve" smooth="yes"/>
      <point x="706.0" y="305.0"/>
      <point x="735.0" y="438.0"/>
      <point x="753.0" y="509.0" type="curve"/>
      <point x="668.0" y="493.0" type="line"/>
      <point x="640.0" y="513.0"/>
      <point x="596.0" y="520.0"/>
      <point x="554.0" y="520.0" type="curve" smooth="yes"/>
      <point x="365.0" y="520.0"/>
      <point x="282.0" y="348.0"/>
      <point x="279.0" y="213.0" type="curve" smooth="yes"/>
      <point x="276.0" y="66.0"/>
      <point x="352.0" y="-2.0"/>
      <point x="418.0" y="-2.0" type="curve" smooth="yes"/>
      <point x="526.0" y="-2.0"/>
      <point x="606.0" y="139.0"/>
      <point x="647.0" y="260.0" type="curve"/>
      <point x="645.0" y="260.0"/>
      <point x="624.0" y="260.0"/>
      <point x="622.0" y="260.0" type="curve"/>
      <point x="596.0" y="169.0"/>
      <point x="594.0" y="120.0"/>
      <point x="597.0" y="89.0" type="curve" smooth="yes"/>
      <point x="601.0" y="30.0"/>
      <point x="624.0" y="-2.0"/>
      <point x="674.0" y="-2.0" type="curve" smooth="yes"/>
      <point x="813.0" y="-2.0"/>
      <point x="954.0" y="145.0"/>
      <point x="954.0" y="404.0" type="curve" smooth="yes"/>
      <point x="954.0" y="629.0"/>
      <point x="801.0" y="753.0"/>
      <point x="581.0" y="753.0" type="curve" smooth="yes"/>
      <point x="294.0" y="753.0"/>
      <point x="70.0" y="537.0"/>
      <point x="70.0" y="208.0" type="curve" smooth="yes"/>
      <point x="70.0" y="-91.0"/>
      <point x="257.0" y="-232.0"/>
    </contour>
    <contour>
      <point x="442.0" y="88.0" type="curve" smooth="yes"/>
      <point x="393.0" y="88.0"/>
      <point x="373.0" y="146.0"/>
      <point x="376.0" y="231.0" type="curve" smooth="yes"/>
      <point x="379.0" y="330.0"/>
      <point x="439.0" y="443.0"/>
      <point x="544.0" y="443.0" type="curve" smooth="yes"/>
      <point x="574.0" y="443.0"/>
      <point x="613.0" y="434.0"/>
      <point x="629.0" y="409.0" type="curve"/>
      <point x="614.0" y="297.0"/>
      <point x="510.0" y="88.0"/>
    </contour>
  </outline>
</glyph>
<glyph name="D" format="2">
  <advance width="1440.0"/>
  <unicode hex="0044"/>
  <anchor x="716.0" y="0.0" name="bottom"/>
  <anchor x="636.0" y="-166.0" name="btm"/>
  <anchor x="716.0" y="744.0" name="center"/>
  <anchor x="706.0" y="1660.0" name="top"/>
  <outline>
    <contour>
      <point x="176.0" y="0.0" type="line"/>
      <point x="208.0" y="0.0"/>
      <point x="240.0" y="0.0"/>
      <point x="272.0" y="0.0" type="curve" smooth="yes"/>
      <point x="374.0" y="0.0"/>
      <point x="516.0" y="-14.0"/>
      <point x="622.0" y="-16.0" type="curve" smooth="yes"/>
      <point x="1072.0" y="-24.0"/>
      <point x="1356.0" y="278.0"/>
      <point x="1356.0" y="786.0" type="curve" smooth="yes"/>
      <point x="1356.0" y="1238.0"/>
      <point x="1128.0" y="1502.0"/>
      <point x="646.0" y="1502.0" type="curve" smooth="yes"/>
      <point x="514.0" y="1502.0"/>
      <point x="386.0" y="1486.0"/>
      <point x="292.0" y="1486.0" type="curve" smooth="yes"/>
      <point x="254.0" y="1486.0"/>
      <point x="216.0" y="1486.0"/>
      <point x="176.0" y="1486.0" type="curve"/>
    </contour>
    <contour>
      <point x="412.0" y="178.0" type="curve"/>
      <point x="412.0" y="1316.0" type="line"/>
      <point x="454.0" y="1324.0"/>
      <point x="522.0" y="1330.0"/>
      <point x="600.0" y="1330.0" type="curve" smooth="yes"/>
      <point x="938.0" y="1330.0"/>
      <point x="1110.0" y="1182.0"/>
      <point x="1110.0" y="752.0" type="curve" smooth="yes"/>
      <point x="1110.0" y="336.0"/>
      <point x="922.0" y="164.0"/>
      <point x="656.0" y="160.0" type="curve" smooth="yes"/>
      <point x="574.0" y="158.0"/>
      <point x="476.0" y="164.0"/>
    </contour>
  </outline>
</glyph>
<glyph name="E" format="2">
  <advance width="1182.0"/>
  <unicode hex="0045"/>
  <anchor x="586.0" y="0.0" name="bottom"/>
  <anchor x="644.0" y="-166.0" name="btm"/>
  <anchor x="1076.0" y="20.0" name="ogonek"/>
  <anchor x="630.0" y="1660.0" name="top"/>
  <anchor x="28.0" y="1486.0" name="topleft"/>
  <outline>
    <contour>
      <point x="176.0" y="0.0" type="line"/>
      <point x="1110.0" y="0.0" type="line"/>
      <point x="1110.0" y="184.0" type="line"/>
      <point x="412.0" y="184.0" type="line"/>
      <point x="412.0" y="676.0" type="line"/>
      <point x="878.0" y="676.0" type="line"/>
      <point x="878.0" y="854.0" type="line"/>
      <point x="412.0" y="854.0" type="line"/>
      <point x="412.0" y="1306.0" type="line"/>
      <point x="1040.0" y="1306.0" type="line"/>
      <point x="1040.0" y="1486.0" type="line"/>
      <point x="176.0" y="1486.0" type="line"/>
    </contour>
  </outline>
</glyph>
<glyph name="G" format="2">
  <advance width="1410.0"/>
  <unicode hex="0047"/>
  <anchor x="705.0" y="0.0" name="bottom"/>
  <anchor x="788.0" y="-166.0" name="btm"/>
  <anchor x="794.0" y="1660.0" name="top"/>
  <outline>
    <contour>
      <point x="96.0" y="736.0" type="curve" smooth="yes"/>
      <point x="96.0" y="301.0"/>
      <point x="348.0" y="-16.0"/>
      <point x="790.0" y="-16.0" type="curve" smooth="yes"/>
      <point x="1093.0" y="-16.0"/>
      <point x="1209.0" y="86.0"/>
      <point x="1296.0" y="91.0" type="curve"/>
      <point x="1296.0" y="754.0" type="line"/>
      <point x="808.0" y="754.0" type="line"/>
      <point x="808.0" y="583.0" type="line"/>
      <point x="1129.0" y="569.0" type="line"/>
      <point x="1070.0" y="610.0" type="line"/>
      <point x="1070.0" y="216.0" type="line"/>
      <point x="1014.0" y="180.0"/>
      <point x="892.0" y="163.0"/>
      <point x="784.0" y="163.0" type="curve" smooth="yes"/>
      <point x="480.0" y="163.0"/>
      <point x="339.0" y="426.0"/>
      <point x="339.0" y="762.0" type="curve" smooth="yes"/>
      <point x="339.0" y="1113.0"/>
      <point x="524.0" y="1318.0"/>
      <point x="784.0" y="1318.0" type="curve" smooth="yes"/>
      <point x="1002.0" y="1318.0"/>
      <point x="1107.0" y="1283.0"/>
      <point x="1202.0" y="1235.0" type="curve"/>
      <point x="1212.0" y="1444.0" type="line"/>
      <point x="1082.0" y="1468.0"/>
      <point x="1018.0" y="1502.0"/>
      <point x="795.0" y="1502.0" type="curve" smooth="yes"/>
      <point x="406.0" y="1502.0"/>
      <point x="96.0" y="1250.0"/>
    </contour>
  </outline>
</glyph>
<glyph name="H" format="2">
  <advance width="750.0"/>
  <unicode hex="0048"/>
  <anchor x="375.0" y="0.0" name="bottom"/>
  <anchor x="371.0" y="-83.0" name="btm"/>
  <anchor x="375.0" y="372.0" name="center"/>
  <anchor x="375.0" y="830.0" name="top"/>
  <anchor x="14.0" y="743.0" name="topleft"/>
  <outline>
    <contour>
      <point x="88.0" y="0.0" type="line"/>
      <point x="206.0" y="0.0" type="line"/>
      <point x="206.0" y="330.0" type="line"/>
      <point x="545.0" y="330.0" type="line"/>
      <point x="545.0" y="0.0" type="line"/>
      <point x="662.0" y="0.0" type="line"/>
      <point x="662.0" y="743.0" type="line"/>
      <point x="545.0" y="743.0" type="line"/>
      <point x="545.0" y="420.0" type="line"/>
      <point x="206.0" y="420.0" type="line"/>
      <point x="206.0" y="743.0" type="line"/>
      <point x="88.0" y="743.0" type="line"/>
    </contour>
  </outline>
</glyph>
<glyph name="I" format="2">
  <advance width="640.0"/>
  <unicode hex="0049"/>
  <anchor x="321.0" y="0.0" name="bottom"/>
  <anchor x="326.0" y="-166.0" name="btm"/>
  <anchor x="519.0" y="20.0" name="ogonek"/>
  <anchor x="321.0" y="1660.0" name="top"/>
  <anchor x="40.0" y="1486.0" name="topleft"/>
  <outline>
    <contour>
      <point x="201.0" y="0.0" type="line"/>
      <point x="437.0" y="0.0" type="line"/>
      <point x="437.0" y="1486.0" type="line"/>
      <point x="201.0" y="1486.0" type="line"/>
    </contour>
  </outline>
</glyph>
<glyph name="K" format="2">
  <advance width="669.0"/>
  <unicode hex="004B"/>
  <anchor x="332.0" y="0.0" name="bottom"/>
  <anchor x="337.0" y="-83.0" name="btm"/>
  <anchor x="337.0" y="830.0" name="top"/>
  <outline>
    <contour>
      <point x="88.0" y="0.0" type="line"/>
      <point x="204.0" y="0.0" type="line"/>
      <point x="204.0" y="301.0" type="line"/>
      <point x="178.0" y="204.0" type="line"/>
      <point x="313.0" y="358.0" type="line"/>
      <point x="328.0" y="374.0" type="line"/>
      <point x="629.0" y="743.0" type="line"/>
      <point x="494.0" y="743.0" type="line"/>
      <point x="204.0" y="376.0" type="line"/>
      <point x="204.0" y="743.0" type="line"/>
      <point x="88.0" y="743.0" type="line"/>
    </contour>
    <contour>
      <point x="475.0" y="55.0" type="curve" smooth="yes"/>
      <point x="493.0" y="25.0"/>
      <point x="496.0" y="13.0"/>
      <point x="505.0" y="0.0" type="curve"/>
      <point x="639.0" y="0.0" type="line"/>
      <point x="628.0" y="18.0"/>
      <point x="618.0" y="36.0"/>
      <point x="607.0" y="54.0" type="curve"/>
      <point x="542.0" y="169.0"/>
      <point x="390.0" y="386.0"/>
      <point x="358.0" y="443.0" type="curve"/>
      <point x="316.0" y="396.0" type="line"/>
      <point x="276.0" y="369.0" type="line"/>
      <point x="327.0" y="285.0"/>
      <point x="421.0" y="154.0"/>
    </contour>
  </outline>
</glyph>
<glyph name="L" format="2">
  <advance width="525.0"/>
  <unicode hex="004C"/>
  <anchor x="260.0" y="0.0" name="bottom"/>
  <anchor x="289.0" y="-83.0" name="btm"/>
  <anchor x="260.0" y="372.0" name="center"/>
  <anchor x="147.0" y="830.0" name="top"/>
  <anchor x="505.0" y="743.0" name="topright"/>
  <outline>
    <contour>
      <point x="88.0" y="0.0" type="line"/>
      <point x="497.0" y="0.0" type="line"/>
      <point x="497.0" y="93.0" type="line"/>
      <point x="205.0" y="93.0" type="line"/>
      <point x="205.0" y="743.0" type="line"/>
      <point x="88.0" y="743.0" type="line"/>
    </contour>
  </outline>
</glyph>
<glyph name="M" format="2">
  <advance width="1872.0"/>
  <unicode hex="004D"/>
  <anchor x="937.0" y="0.0" name="bottom"/>
  <anchor x="941.0" y="-166.0" name="btm"/>
  <anchor x="940.0" y="1600.0" name="top"/>
  <outline>
    <contour>
      <point x="119.0" y="0.0" type="line"/>
      <point x="344.0" y="0.0" type="line"/>
      <point x="422.0" y="901.0" type="line"/>
      <point x="451.0" y="1311.0" type="line"/>
      <point x="559.0" y="901.0" type="line"/>
      <point x="867.0" y="-14.0" type="line"/>
      <point x="1008.0" y="-14.0" type="line"/>
      <point x="1301.0" y="901.0" type="line"/>
      <point x="1403.0" y="1311.0" type="line"/>
      <point x="1431.0" y="901.0" type="line"/>
      <point x="1519.0" y="0.0" type="line"/>
      <point x="1753.0" y="0.0" type="line"/>
      <point x="1575.0" y="1486.0" type="line"/>
      <point x="1259.0" y="1486.0" type="line"/>
      <point x="1010.0" y="650.0" type="line"/>
      <point x="941.0" y="332.0" type="line"/>
      <point x="864.0" y="650.0" type="line"/>
      <point x="602.0" y="1486.0" type="line"/>
      <point x="272.0" y="1486.0" type="line"/>
    </contour>
  </outline>
</glyph>
<glyph name="N" format="2">
  <advance width="1508.0"/>
  <unicode hex="004E"/>
  <anchor x="754.0" y="0.0" name="bottom"/>
  <anchor x="720.0" y="-166.0" name="btm"/>
  <anchor x="766.0" y="1660.0" name="top"/>
  <outline>
    <contour>
      <point x="176.0" y="0.0" type="line"/>
      <point x="390.0" y="0.0" type="line"/>
      <point x="390.0" y="894.0" type="line"/>
      <point x="366.0" y="1344.0" type="line"/>
      <point x="280.0" y="1344.0" type="line"/>
      <point x="510.0" y="926.0" type="line"/>
      <point x="1108.0" y="0.0" type="line"/>
      <point x="1332.0" y="0.0" type="line"/>
      <point x="1332.0" y="1486.0" type="line"/>
      <point x="1114.0" y="1486.0" type="line"/>
      <point x="1114.0" y="570.0" type="line"/>
      <point x="1140.0" y="154.0" type="line"/>
      <point x="1210.0" y="154.0" type="line"/>
      <point x="1012.0" y="524.0" type="line"/>
      <point x="390.0" y="1486.0" type="line"/>
      <point x="176.0" y="1486.0" type="line"/>
    </contour>
  </outline>
</glyph>
<glyph name="O" format="2">
  <advance width="1528.0"/>
  <unicode hex="004F"/>
  <anchor x="764.0" y="0.0" name="bottom"/>
  <anchor x="762.0" y="-166.0" name="btm"/>
  <anchor x="764.0" y="744.0" name="center"/>
  <anchor x="954.0" y="20.0" name="ogonek"/>
  <anchor x="788.0" y="1660.0" name="top"/>
  <anchor x="36.0" y="1486.0" name="topleft"/>
  <anchor x="1024.0" y="1442.0" name="topright"/>
  <outline>
    <contour>
      <point x="758.0" y="-16.0" type="curve" smooth="yes"/>
      <point x="1140.0" y="-8.0"/>
      <point x="1424.0" y="246.0"/>
      <point x="1434.0" y="744.0" type="curve" smooth="yes"/>
      <point x="1444.0" y="1204.0"/>
      <point x="1184.0" y="1504.0"/>
      <point x="788.0" y="1502.0" type="curve" smooth="yes"/>
      <point x="406.0" y="1500.0"/>
      <point x="104.0" y="1252.0"/>
      <point x="94.0" y="754.0" type="curve" smooth="yes"/>
      <point x="84.0" y="302.0"/>
      <point x="344.0" y="-24.0"/>
    </contour>
    <contour>
      <point x="764.0" y="164.0" type="curve" smooth="yes"/>
      <point x="478.0" y="164.0"/>
      <point x="332.0" y="434.0"/>
      <point x="332.0" y="740.0" type="curve" smooth="yes"/>
      <point x="332.0" y="1144.0"/>
      <point x="538.0" y="1324.0"/>
      <point x="780.0" y="1324.0" type="curve" smooth="yes"/>
      <point x="1056.0" y="1324.0"/>
      <point x="1196.0" y="1062.0"/>
      <point x="1196.0" y="754.0" type="curve" smooth="yes"/>
      <point x="1196.0" y="366.0"/>
      <point x="1028.0" y="164.0"/>
    </contour>
  </outline>
</glyph>
<glyph name="P" format="2">
  <advance width="1244.0"/>
  <unicode hex="0050"/>
  <anchor x="616.0" y="0.0" name="bottom"/>
  <anchor x="666.0" y="-166.0" name="btm"/>
  <anchor x="674.0" y="1660.0" name="top"/>
  <outline>
    <contour>
      <point x="176.0" y="0.0" type="line"/>
      <point x="412.0" y="0.0" type="line"/>
      <point x="412.0" y="502.0" type="line"/>
      <point x="448.0" y="502.0"/>
      <point x="506.0" y="500.0"/>
      <point x="600.0" y="500.0" type="curve" smooth="yes"/>
      <point x="972.0" y="500.0"/>
      <point x="1172.0" y="690.0"/>
      <point x="1172.0" y="1014.0" type="curve" smooth="yes"/>
      <point x="1172.0" y="1358.0"/>
      <point x="974.0" y="1502.0"/>
      <point x="650.0" y="1502.0" type="curve" smooth="yes"/>
      <point x="516.0" y="1502.0"/>
      <point x="400.0" y="1486.0"/>
      <point x="278.0" y="1486.0" type="curve" smooth="yes"/>
      <point x="176.0" y="1486.0" type="line"/>
    </contour>
    <contour>
      <point x="412.0" y="682.0" type="curve"/>
      <point x="412.0" y="1316.0" type="line"/>
      <point x="464.0" y="1328.0"/>
      <point x="526.0" y="1332.0"/>
      <point x="584.0" y="1334.0" type="curve" smooth="yes"/>
      <point x="814.0" y="1342.0"/>
      <point x="940.0" y="1242.0"/>
      <point x="940.0" y="1014.0" type="curve" smooth="yes"/>
      <point x="940.0" y="730.0"/>
      <point x="772.0" y="672.0"/>
      <point x="586.0" y="672.0" type="curve" smooth="yes"/>
      <point x="532.0" y="672.0"/>
      <point x="472.0" y="674.0"/>
    </contour>
  </outline>
</glyph>
<glyph name="R" format="2">
  <advance width="667.0"/>
  <unicode hex="0052"/>
  <anchor x="331.0" y="0.0" name="bottom"/>
  <anchor x="334.0" y="-83.0" name="btm"/>
  <anchor x="315.0" y="830.0" name="top"/>
  <outline>
    <contour>
      <point x="206.0" y="0.0" type="line"/>
      <point x="206.0" y="310.0" type="line"/>
      <point x="326.0" y="310.0"/>
      <point x="359.0" y="312.0"/>
      <point x="400.0" y="318.0" type="curve" smooth="yes"/>
      <point x="515.0" y="336.0"/>
      <point x="586.0" y="405.0"/>
      <point x="586.0" y="539.0" type="curve" smooth="yes"/>
      <point x="586.0" y="692.0"/>
      <point x="480.0" y="751.0"/>
      <point x="331.0" y="751.0" type="curve" smooth="yes"/>
      <point x="253.0" y="751.0"/>
      <point x="187.0" y="743.0"/>
      <point x="140.0" y="743.0" type="curve" smooth="yes"/>
      <point x="122.0" y="743.0"/>
      <point x="106.0" y="743.0"/>
      <point x="88.0" y="743.0" type="curve"/>
      <point x="88.0" y="0.0" type="line"/>
    </contour>
    <contour>
      <point x="206.0" y="394.0" type="curve"/>
      <point x="206.0" y="656.0" type="line"/>
      <point x="236.0" y="662.0"/>
      <point x="275.0" y="665.0"/>
      <point x="314.0" y="665.0" type="curve" smooth="yes"/>
      <point x="429.0" y="665.0"/>
      <point x="468.0" y="620.0"/>
      <point x="468.0" y="534.0" type="curve" smooth="yes"/>
      <point x="468.0" y="437.0"/>
      <point x="414.0" y="391.0"/>
      <point x="318.0" y="391.0" type="curve" smooth="yes"/>
      <point x="292.0" y="391.0"/>
      <point x="227.0" y="391.0"/>
    </contour>
    <contour>
      <point x="506.0" y="0.0" type="curve"/>
      <point x="638.0" y="0.0" type="line"/>
      <point x="628.0" y="18.0"/>
      <point x="618.0" y="36.0"/>
      <point x="608.0" y="55.0" type="curve" smooth="yes"/>
      <point x="555.0" y="151.0"/>
      <point x="515.0" y="308.0"/>
      <point x="436.0" y="342.0" type="curve"/>
      <point x="366.0" y="348.0" type="line"/>
      <point x="321.0" y="313.0" type="line"/>
      <point x="404.0" y="301.0"/>
      <point x="438.0" y="144.0"/>
      <point x="479.0" y="55.0" type="curve" smooth="yes"/>
      <point x="494.0" y="23.0"/>
      <point x="497.0" y="13.0"/>
    </contour>
  </outline>
</glyph>
<glyph name="S" format="2">
  <advance width="1130.0"/>
  <unicode hex="0053"/>
  <anchor x="560.0" y="0.0" name="bottom"/>
  <anchor x="554.0" y="-166.0" name="btm"/>
  <anchor x="596.0" y="1660.0" name="top"/>
  <outline>
    <contour>
      <point x="551.0" y="-16.0" type="curve" smooth="yes"/>
      <point x="845.0" y="-16.0"/>
      <point x="1050.0" y="117.0"/>
      <point x="1050.0" y="390.0" type="curve" smooth="yes"/>
      <point x="1050.0" y="625.0"/>
      <point x="838.0" y="744.0"/>
      <point x="639.0" y="847.0" type="curve" smooth="yes"/>
      <point x="430.0" y="954.0"/>
      <point x="350.0" y="1005.0"/>
      <point x="350.0" y="1144.0" type="curve" smooth="yes"/>
      <point x="350.0" y="1266.0"/>
      <point x="477.0" y="1321.0"/>
      <point x="623.0" y="1321.0" type="curve" smooth="yes"/>
      <point x="781.0" y="1321.0"/>
      <point x="862.0" y="1281.0"/>
      <point x="930.0" y="1238.0" type="curve"/>
      <point x="976.0" y="1423.0" type="line"/>
      <point x="924.0" y="1457.0"/>
      <point x="804.0" y="1502.0"/>
      <point x="623.0" y="1502.0" type="curve" smooth="yes"/>
      <point x="376.0" y="1502.0"/>
      <point x="124.0" y="1404.0"/>
      <point x="124.0" y="1117.0" type="curve" smooth="yes"/>
      <point x="124.0" y="897.0"/>
      <point x="314.0" y="756.0"/>
      <point x="496.0" y="666.0" type="curve" smooth="yes"/>
      <point x="709.0" y="564.0"/>
      <point x="818.0" y="505.0"/>
      <point x="818.0" y="366.0" type="curve" smooth="yes"/>
      <point x="818.0" y="227.0"/>
      <point x="719.0" y="170.0"/>
      <point x="537.0" y="170.0" type="curve" smooth="yes"/>
      <point x="396.0" y="170.0"/>
      <point x="255.0" y="217.0"/>
      <point x="179.0" y="261.0" type="curve"/>
      <point x="130.0" y="70.0" type="line"/>
      <point x="183.0" y="36.0"/>
      <point x="356.0" y="-16.0"/>
    </contour>
  </outline>
</glyph>
<glyph name="T" format="2">
  <advance width="1263.0"/>
  <unicode hex="0054"/>
  <anchor x="631.0" y="0.0" name="bottom"/>
  <anchor x="631.0" y="744.0" name="center"/>
  <anchor x="624.0" y="1660.0" name="top"/>
  <outline>
    <contour>
      <point x="514.0" y="0.0" type="line"/>
      <point x="750.0" y="0.0" type="line"/>
      <point x="750.0" y="1306.0" type="line"/>
      <point x="1207.0" y="1306.0" type="line"/>
      <point x="1207.0" y="1486.0" type="line"/>
      <point x="56.0" y="1486.0" type="line"/>
      <point x="56.0" y="1306.0" type="line"/>
      <point x="514.0" y="1306.0" type="line"/>
    </contour>
  </outline>
</glyph>
<glyph name="U" format="2">
  <advance width="1439.0"/>
  <unicode hex="0055"/>
  <anchor x="720.0" y="0.0" name="bottom"/>
  <anchor x="730.0" y="-166.0" name="btm"/>
  <anchor x="1296.0" y="20.0" name="ogonek"/>
  <anchor x="732.0" y="1660.0" name="top"/>
  <anchor x="1142.0" y="1486.0" name="topright"/>
  <outline>
    <contour>
      <point x="727.0" y="-16.0" type="curve" smooth="yes"/>
      <point x="1104.0" y="-16.0"/>
      <point x="1286.0" y="210.0"/>
      <point x="1286.0" y="618.0" type="curve" smooth="yes"/>
      <point x="1286.0" y="1486.0" type="line"/>
      <point x="1054.0" y="1486.0" type="line"/>
      <point x="1054.0" y="667.0" type="line" smooth="yes"/>
      <point x="1054.0" y="271.0"/>
      <point x="933.0" y="168.0"/>
      <point x="734.0" y="168.0" type="curve" smooth="yes"/>
      <point x="512.0" y="168.0"/>
      <point x="387.0" y="269.0"/>
      <point x="387.0" y="667.0" type="curve" smooth="yes"/>
      <point x="389.0" y="1486.0" type="line"/>
      <point x="155.0" y="1486.0" type="line"/>
      <point x="154.0" y="622.0" type="line" smooth="yes"/>
      <point x="153.0" y="221.0"/>
      <point x="312.0" y="-16.0"/>
    </contour>
  </outline>
</glyph>
<glyph name="X" format="2">
  <advance width="1295.0"/>
  <unicode hex="0058"/>
  <anchor x="647.0" y="0.0" name="bottom"/>
  <anchor x="632.0" y="-166.0" name="btm"/>
  <anchor x="632.0" y="1660.0" name="top"/>
  <outline>
    <contour>
      <point x="40.0" y="0.0" type="line"/>
      <point x="290.0" y="0.0" type="line"/>
      <point x="542.0" y="434.0" type="line"/>
      <point x="667.0" y="648.0" type="line"/>
      <point x="603.0" y="646.0" type="line"/>
      <point x="732.0" y="434.0" type="line"/>
      <point x="989.0" y="0.0" type="line"/>
      <point x="1254.0" y="0.0" type="line"/>
      <point x="740.0" y="802.0" type="line"/>
      <point x="767.0" y="710.0" type="line"/>
      <point x="1244.0" y="1486.0" type="line"/>
      <point x="995.0" y="1486.0" type="line"/>
      <point x="767.0" y="1094.0" type="line"/>
      <point x="633.0" y="865.0" type="line"/>
      <point x="682.0" y="865.0" type="line"/>
      <point x="546.0" y="1094.0" type="line"/>
      <point x="306.0" y="1488.0" type="line"/>
      <point x="44.0" y="1486.0" type="line"/>
      <point x="540.0" y="712.0" type="line"/>
      <point x="527.0" y="802.0" type="line"/>
    </contour>
  </outline>
</glyph>
<glyph name="Z" format="2">
  <advance width="1228.0"/>
  <unicode hex="005A"/>
  <anchor x="596.0" y="0.0" name="bottom"/>
  <anchor x="590.0" y="-166.0" name="btm"/>
  <anchor x="596.0" y="744.0" name="center"/>
  <anchor x="626.0" y="1660.0" name="top"/>
  <outline>
    <contour>
      <point x="104.0" y="0.0" type="line"/>
      <point x="1116.0" y="0.0" type="line"/>
      <point x="1116.0" y="182.0" type="line"/>
      <point x="372.0" y="182.0" type="line"/>
      <point x="444.0" y="268.0" type="line"/>
      <point x="1172.0" y="1408.0" type="line"/>
      <point x="1126.0" y="1486.0" type="line"/>
      <point x="142.0" y="1486.0" type="line"/>
      <point x="142.0" y="1302.0" type="line"/>
      <point x="860.0" y="1302.0" type="line"/>
      <point x="804.0" y="1232.0" type="line"/>
      <point x="60.0" y="82.0" type="line"/>
    </contour>
  </outline>
</glyph>
<glyph name="bracketleft" format="2">
  <advance width="802.0"/>
  <unicode hex="005B"/>
  <outline>
    <contour>
      <point x="180.0" y="58.0" type="line"/>
      <point x="180.0" y="-134.0"/>
      <point x="214.0" y="-186.0"/>
      <point x="366.0" y="-186.0" type="curve" smooth="yes"/>
      <point x="492.0" y="-186.0"/>
      <point x="560.0" y="-176.0"/>
      <point x="662.0" y="-164.0" type="curve"/>
      <point x="662.0" y="-46.0" type="line"/>
      <point x="400.0" y="-44.0" type="line"/>
      <point x="400.0" y="1548.0" type="line"/>
      <point x="662.0" y="1548.0" type="line"/>
      <point x="662.0" y="1672.0" type="line"/>
      <point x="560.0" y="1684.0"/>
      <point x="492.0" y="1696.0"/>
      <point x="366.0" y="1696.0" type="curve" smooth="yes"/>
      <point x="216.0" y="1696.0"/>
      <point x="180.0" y="1644.0"/>
      <point x="180.0" y="1452.0" type="curve" smooth="yes"/>
    </contour>
  </outline>
</glyph>
<glyph name="asciicircum" format="2">
  <advance width="1333.0"/>
  <unicode hex="005E"/>
  <outline>
    <contour>
      <point x="186.0" y="498.0" type="line"/>
      <point x="424.0" y="498.0" type="line"/>
      <point x="674.0" y="1194.0" type="line"/>
      <point x="660.0" y="1194.0" type="line"/>
      <point x="912.0" y="498.0" type="line"/>
      <point x="1148.0" y="498.0" type="line"/>
      <point x="742.0" y="1496.0" type="line"/>
      <point x="590.0" y="1496.0" type="line"/>
    </contour>
  </outline>
</glyph>
<glyph name="underscore" format="2">
  <advance width="1654.0"/>
  <unicode hex="005F"/>
  <outline>
    <contour>
      <point x="-39.0" y="-405.0" type="line"/>
      <point x="1693.0" y="-405.0" type="line"/>
      <point x="1693.0" y="-266.0" type="line"/>
      <point x="-39.0" y="-266.0" type="line"/>
    </contour>
  </outline>
</glyph>
<glyph name="b" format="2">
  <advance width="1233.0"/>
  <unicode hex="0062"/>
  <anchor x="621.0" y="0.0" name="bottom"/>
  <anchor x="653.0" y="-166.0" name="btm"/>
  <anchor x="751.0" y="1660.0" name="top"/>
  <outline>
    <contour>
      <point x="171.0" y="1622.0" type="line"/>
      <point x="171.0" y="62.0" type="line"/>
      <point x="401.0" y="164.0" type="line"/>
      <point x="401.0" y="966.0" type="line"/>
      <point x="393.0" y="972.0" type="line"/>
      <point x="401.0" y="1168.0" type="line"/>
      <point x="401.0" y="1622.0" type="line"/>
    </contour>
    <contour>
      <point x="575.0" y="-18.0" type="curve" smooth="yes"/>
      <point x="915.0" y="-18.0"/>
      <point x="1141.0" y="236.0"/>
      <point x="1141.0" y="598.0" type="curve" smooth="yes"/>
      <point x="1141.0" y="958.0"/>
      <point x="937.0" y="1128.0"/>
      <point x="701.0" y="1128.0" type="curve" smooth="yes"/>
      <point x="499.0" y="1128.0"/>
      <point x="411.0" y="1026.0"/>
      <point x="365.0" y="978.0" type="curve"/>
      <point x="401.0" y="864.0" type="line"/>
      <point x="449.0" y="900.0"/>
      <point x="533.0" y="950.0"/>
      <point x="637.0" y="950.0" type="curve" smooth="yes"/>
      <point x="807.0" y="950.0"/>
      <point x="907.0" y="834.0"/>
      <point x="905.0" y="570.0" type="curve" smooth="yes"/>
      <point x="901.0" y="296.0"/>
      <point x="771.0" y="148.0"/>
      <point x="599.0" y="148.0" type="curve" smooth="yes"/>
      <point x="503.0" y="148.0"/>
      <point x="437.0" y="162.0"/>
      <point x="401.0" y="188.0" type="curve"/>
      <point x="171.0" y="62.0" type="line"/>
      <point x="211.0" y="36.0"/>
      <point x="413.0" y="-18.0"/>
    </contour>
  </outline>
</glyph>
<glyph name="c" format="2">
  <advance width="488.0"/>
  <unicode hex="0063"/>
  <anchor x="240.0" y="0.0" name="bottom"/>
  <anchor x="273.0" y="-83.0" name="btm"/>
  <anchor x="294.0" y="830.0" name="top"/>
  <outline>
    <contour>
      <point x="40.0" y="272.0" type="curve" smooth="yes"/>
      <point x="40.0" y="113.0"/>
      <point x="128.0" y="-8.0"/>
      <point x="287.0" y="-8.0" type="curve" smooth="yes"/>
      <point x="357.0" y="-8.0"/>
      <point x="424.0" y="13.0"/>
      <point x="458.0" y="45.0" type="curve"/>
      <point x="436.0" y="112.0" type="line"/>
      <point x="412.0" y="97.0"/>
      <point x="361.0" y="80.0"/>
      <point x="306.0" y="80.0" type="curve" smooth="yes"/>
      <point x="218.0" y="80.0"/>
      <point x="148.0" y="154.0"/>
      <point x="152.0" y="292.0" type="curve" smooth="yes"/>
      <point x="157.0" y="423.0"/>
      <point x="234.0" y="474.0"/>
      <point x="309.0" y="474.0" type="curve" smooth="yes"/>
      <point x="365.0" y="474.0"/>
      <point x="403.0" y="464.0"/>
      <point x="431.0" y="445.0" type="curve"/>
      <point x="449.0" y="536.0" type="line"/>
      <point x="431.0" y="548.0"/>
      <point x="380.0" y="564.0"/>
      <point x="310.0" y="564.0" type="curve" smooth="yes"/>
      <point x="130.0" y="564.0"/>
      <point x="40.0" y="437.0"/>
    </contour>
  </outline>
</glyph>
<glyph name="e" format="2">
  <advance width="1116.0"/>
  <unicode hex="0065"/>
  <anchor x="558.0" y="0.0" name="bottom"/>
  <anchor x="600.0" y="-166.0" name="btm"/>
  <anchor x="808.0" y="50.0" name="ogonek"/>
  <anchor x="594.0" y="1660.0" name="top"/>
  <outline>
    <contour>
      <point x="598.0" y="-16.0" type="curve" smooth="yes"/>
      <point x="738.0" y="-16.0"/>
      <point x="906.0" y="26.0"/>
      <point x="980.0" y="86.0" type="curve"/>
      <point x="936.0" y="218.0" type="line"/>
      <point x="882.0" y="186.0"/>
      <point x="734.0" y="158.0"/>
      <point x="658.0" y="158.0" type="curve" smooth="yes"/>
      <point x="478.0" y="158.0"/>
      <point x="338.0" y="240.0"/>
      <point x="326.0" y="492.0" type="curve" smooth="yes"/>
      <point x="314.0" y="850.0"/>
      <point x="434.0" y="964.0"/>
      <point x="590.0" y="964.0" type="curve" smooth="yes"/>
      <point x="776.0" y="964.0"/>
      <point x="812.0" y="812.0"/>
      <point x="802.0" y="652.0" type="curve"/>
      <point x="252.0" y="652.0" type="line"/>
      <point x="232.0" y="506.0" type="line"/>
      <point x="1008.0" y="506.0" type="line"/>
      <point x="1018.0" y="556.0"/>
      <point x="1018.0" y="622.0"/>
      <point x="1018.0" y="706.0" type="curve" smooth="yes"/>
      <point x="1010.0" y="992.0"/>
      <point x="826.0" y="1132.0"/>
      <point x="602.0" y="1128.0" type="curve" smooth="yes"/>
      <point x="274.0" y="1124.0"/>
      <point x="98.0" y="882.0"/>
      <point x="98.0" y="558.0" type="curve" smooth="yes"/>
      <point x="98.0" y="198.0"/>
      <point x="278.0" y="-16.0"/>
    </contour>
  </outline>
</glyph>
<glyph name="g" format="2">
  <advance width="1203.0"/>
  <unicode hex="0067"/>
  <anchor x="602.0" y="-546.0" name="bottom"/>
  <anchor x="565.0" y="1660.0" name="top"/>
  <outline>
    <contour>
      <point x="570.0" y="-504.0" type="curve" smooth="yes"/>
      <point x="868.0" y="-504.0"/>
      <point x="1118.0" y="-366.0"/>
      <point x="1118.0" y="-134.0" type="curve" smooth="yes"/>
      <point x="1118.0" y="20.0"/>
      <point x="1050.0" y="180.0"/>
      <point x="706.0" y="180.0" type="curve" smooth="yes"/>
      <point x="506.0" y="180.0" type="line" smooth="yes"/>
      <point x="414.0" y="180.0"/>
      <point x="378.0" y="202.0"/>
      <point x="378.0" y="284.0" type="curve" smooth="yes"/>
      <point x="378.0" y="336.0"/>
      <point x="425.0" y="387.0"/>
      <point x="473.0" y="406.0" type="curve"/>
      <point x="330.0" y="442.0" type="line"/>
      <point x="230.0" y="384.0"/>
      <point x="164.0" y="296.0"/>
      <point x="164.0" y="218.0" type="curve" smooth="yes"/>
      <point x="164.0" y="150.0"/>
      <point x="190.0" y="74.0"/>
      <point x="290.0" y="36.0" type="curve" smooth="yes"/>
      <point x="306.0" y="30.0"/>
      <point x="320.0" y="18.0"/>
      <point x="336.0" y="14.0" type="curve" smooth="yes"/>
      <point x="382.0" y="2.0"/>
      <point x="440.0" y="0.0"/>
      <point x="516.0" y="0.0" type="curve" smooth="yes"/>
      <point x="626.0" y="0.0" type="line" smooth="yes"/>
      <point x="850.0" y="0.0"/>
      <point x="898.0" y="-66.0"/>
      <point x="898.0" y="-184.0" type="curve" smooth="yes"/>
      <point x="898.0" y="-296.0"/>
      <point x="750.0" y="-352.0"/>
      <point x="578.0" y="-352.0" type="curve" smooth="yes"/>
      <point x="392.0" y="-352.0"/>
      <point x="320.0" y="-276.0"/>
      <point x="320.0" y="-144.0" type="curve" smooth="yes"/>
      <point x="320.0" y="-28.0"/>
      <point x="390.0" y="6.0"/>
      <point x="432.0" y="44.0" type="curve"/>
      <point x="284.0" y="66.0" type="line"/>
      <point x="200.0" y="32.0"/>
      <point x="94.0" y="-52.0"/>
      <point x="94.0" y="-176.0" type="curve" smooth="yes"/>
      <point x="94.0" y="-398.0"/>
      <point x="276.0" y="-504.0"/>
    </contour>
    <contour>
      <point x="563.0" y="380.0" type="curve" smooth="yes"/>
      <point x="828.0" y="380.0"/>
      <point x="1020.0" y="513.0"/>
      <point x="1020.0" y="758.0" type="curve" smooth="yes"/>
      <point x="1020.0" y="1017.0"/>
      <point x="815.0" y="1134.0"/>
      <point x="567.0" y="1128.0" type="curve" smooth="yes"/>
      <point x="312.0" y="1124.0"/>
      <point x="122.0" y="1006.0"/>
      <point x="122.0" y="746.0" type="curve" smooth="yes"/>
      <point x="122.0" y="529.0"/>
      <point x="312.0" y="380.0"/>
    </contour>
    <contour>
      <point x="569.0" y="530.0" type="curve" smooth="yes"/>
      <point x="414.0" y="530.0"/>
      <point x="348.0" y="633.0"/>
      <point x="348.0" y="755.0" type="curve" smooth="yes"/>
      <point x="348.0" y="933.0"/>
      <point x="456.0" y="976.0"/>
      <point x="580.0" y="976.0" type="curve" smooth="yes"/>
      <point x="724.0" y="976.0"/>
      <point x="794.0" y="897.0"/>
      <point x="794.0" y="751.0" type="curve" smooth="yes"/>
      <point x="794.0" y="580.0"/>
      <point x="706.0" y="530.0"/>
    </contour>
    <contour>
      <point x="897.0" y="940.0" type="line"/>
      <point x="1177.0" y="940.0" type="line"/>
      <point x="1177.0" y="1121.0" type="line"/>
      <point x="1065.0" y="1121.0" type="line" smooth="yes"/>
      <point x="961.0" y="1121.0"/>
      <point x="863.0" y="1070.0"/>
      <point x="834.0" y="1033.0" type="curve"/>
    </contour>
  </outline>
</glyph>
<glyph name="h" format="2">
  <advance width="1268.0"/>
  <unicode hex="0068"/>
  <anchor x="635.0" y="0.0" name="bottom"/>
  <anchor x="657.0" y="-166.0" name="btm"/>
  <anchor x="635.0" y="984.0" name="center"/>
  <anchor x="287.0" y="1738.0" name="top"/>
  <outline>
    <contour>
      <point x="171.0" y="0.0" type="line"/>
      <point x="401.0" y="0.0" type="line"/>
      <point x="401.0" y="838.0" type="line"/>
      <point x="487.0" y="903.0"/>
      <point x="596.0" y="935.0"/>
      <point x="667.0" y="936.0" type="curve" smooth="yes"/>
      <point x="829.0" y="944.0"/>
      <point x="874.0" y="865.0"/>
      <point x="874.0" y="683.0" type="curve" smooth="yes"/>
      <point x="874.0" y="0.0" type="line"/>
      <point x="1104.0" y="0.0" type="line"/>
      <point x="1104.0" y="681.0" type="line" smooth="yes"/>
      <point x="1104.0" y="1006.0"/>
      <point x="1000.0" y="1137.0"/>
      <point x="757.0" y="1130.0" type="curve" smooth="yes"/>
      <point x="615.0" y="1126.0"/>
      <point x="458.0" y="1057.0"/>
      <point x="378.0" y="993.0" type="curve"/>
      <point x="389.0" y="967.0" type="line"/>
      <point x="401.0" y="1168.0" type="line"/>
      <point x="401.0" y="1626.0" type="line"/>
      <point x="171.0" y="1626.0" type="line"/>
    </contour>
  </outline>
</glyph>
<glyph name="k" format="2">
  <advance width="577.0"/>
  <unicode hex="006B"/>
  <anchor x="290.0" y="0.0" name="bottom"/>
  <anchor x="304.0" y="-83.0" name="btm"/>
  <anchor x="337.0" y="830.0" name="top"/>
  <outline>
    <contour>
      <point x="549.0" y="557.0" type="line"/>
      <point x="414.0" y="557.0" type="line"/>
      <point x="166.0" y="284.0" type="line"/>
      <point x="193.0" y="265.0" type="line"/>
      <point x="197.0" y="387.0" type="line"/>
      <point x="197.0" y="811.0" type="line"/>
      <point x="85.0" y="811.0" type="line"/>
      <point x="85.0" y="331.0" type="line"/>
      <point x="85.0" y="0.0" type="line"/>
      <point x="197.0" y="0.0" type="line"/>
      <point x="197.0" y="108.0" type="line"/>
      <point x="195.0" y="204.0" type="line"/>
      <point x="185.0" y="177.0" type="line"/>
    </contour>
    <contour>
      <point x="255.0" y="274.0" type="line"/>
      <point x="442.0" y="0.0" type="line"/>
      <point x="573.0" y="0.0" type="line"/>
      <point x="333.0" y="349.0" type="line"/>
    </contour>
  </outline>
</glyph>
<glyph name="l" format="2">
  <advance width="296.0"/>
  <unicode hex="006C"/>
  <anchor x="148.0" y="0.0" name="bottom"/>
  <anchor x="140.0" y="-83.0" name="btm"/>
  <anchor x="148.0" y="492.0" name="center"/>
  <anchor x="149.0" y="880.0" name="top"/>
  <anchor x="278.0" y="983.0" name="topright"/>
  <outline>
    <contour>
      <point x="90.0" y="0.0" type="line"/>
      <point x="206.0" y="0.0" type="line"/>
      <point x="206.0" y="813.0" type="line"/>
      <point x="90.0" y="813.0" type="line"/>
    </contour>
  </outline>
</glyph>
<glyph name="n" format="2">
  <advance width="1262.0"/>
  <unicode hex="006E"/>
  <anchor x="632.0" y="0.0" name="bottom"/>
  <anchor x="642.0" y="-166.0" name="btm"/>
  <anchor x="641.0" y="1660.0" name="top"/>
  <outline>
    <contour>
      <point x="172.0" y="0.0" type="line"/>
      <point x="402.0" y="0.0" type="line"/>
      <point x="402.0" y="838.0" type="line"/>
      <point x="488.0" y="903.0"/>
      <point x="595.0" y="936.0"/>
      <point x="666.0" y="938.0" type="curve" smooth="yes"/>
      <point x="832.0" y="947.0"/>
      <point x="866.0" y="869.0"/>
      <point x="866.0" y="683.0" type="curve" smooth="yes"/>
      <point x="866.0" y="0.0" type="line"/>
      <point x="1098.0" y="0.0" type="line"/>
      <point x="1098.0" y="695.0" type="line" smooth="yes"/>
      <point x="1098.0" y="1021.0"/>
      <point x="1002.0" y="1137.0"/>
      <point x="763.0" y="1130.0" type="curve" smooth="yes"/>
      <point x="619.0" y="1126.0"/>
      <point x="462.0" y="1050.0"/>
      <point x="380.0" y="994.0" type="curve"/>
      <point x="379.0" y="1112.0" type="line"/>
      <point x="172.0" y="1112.0" type="line"/>
    </contour>
  </outline>
</glyph>
<glyph name="r" format="2">
  <advance width="806.0"/>
  <unicode hex="0072"/>
  <anchor x="268.0" y="0.0" name="bottom"/>
  <anchor x="264.0" y="-166.0" name="btm"/>
  <anchor x="478.0" y="1660.0" name="top"/>
  <outline>
    <contour>
      <point x="370.0" y="818.0" type="line"/>
      <point x="416.0" y="864.0"/>
      <point x="504.0" y="926.0"/>
      <point x="628.0" y="926.0" type="curve" smooth="yes"/>
      <point x="718.0" y="926.0"/>
      <point x="752.0" y="910.0"/>
      <point x="772.0" y="900.0" type="curve"/>
      <point x="772.0" y="1116.0" type="line"/>
      <point x="754.0" y="1126.0"/>
      <point x="716.0" y="1130.0"/>
      <point x="666.0" y="1130.0" type="curve" smooth="yes"/>
      <point x="530.0" y="1130.0"/>
      <point x="386.0" y="1032.0"/>
      <point x="356.0" y="970.0" type="curve"/>
    </contour>
    <contour>
      <point x="152.0" y="0.0" type="line"/>
      <point x="382.0" y="0.0" type="line"/>
      <point x="382.0" y="886.0" type="line"/>
      <point x="364.0" y="970.0" type="line"/>
      <point x="348.0" y="1112.0" type="line"/>
      <point x="152.0" y="1112.0" type="line"/>
    </contour>
  </outline>
</glyph>
<glyph name="t" format="2">
  <advance width="846.0"/>
  <unicode hex="0074"/>
  <anchor x="418.0" y="0.0" name="bottom"/>
  <anchor x="480.0" y="-166.0" name="btm"/>
  <anchor x="418.0" y="558.0" name="center"/>
  <anchor x="374.0" y="1826.0" name="top"/>
  <anchor x="798.0" y="1114.0" name="topright"/>
  <outline>
    <contour>
      <point x="482.0" y="-16.0" type="curve" smooth="yes"/>
      <point x="602.0" y="-16.0"/>
      <point x="734.0" y="32.0"/>
      <point x="794.0" y="78.0" type="curve"/>
      <point x="756.0" y="210.0" type="line"/>
      <point x="720.0" y="188.0"/>
      <point x="626.0" y="166.0"/>
      <point x="570.0" y="166.0" type="curve" smooth="yes"/>
      <point x="466.0" y="166.0"/>
      <point x="446.0" y="184.0"/>
      <point x="446.0" y="400.0" type="curve" smooth="yes"/>
      <point x="446.0" y="944.0" type="line"/>
      <point x="758.0" y="944.0" type="line"/>
      <point x="758.0" y="1114.0" type="line"/>
      <point x="446.0" y="1114.0" type="line"/>
      <point x="446.0" y="1368.0" type="line"/>
      <point x="308.0" y="1368.0" type="line"/>
      <point x="280.0" y="1280.0"/>
      <point x="258.0" y="1210.0"/>
      <point x="242.0" y="1166.0" type="curve" smooth="yes"/>
      <point x="218.0" y="1102.0"/>
      <point x="170.0" y="1096.0"/>
      <point x="72.0" y="1068.0" type="curve"/>
      <point x="72.0" y="944.0" type="line"/>
      <point x="216.0" y="944.0" type="line"/>
      <point x="216.0" y="278.0" type="line" smooth="yes"/>
      <point x="216.0" y="44.0"/>
      <point x="324.0" y="-16.0"/>
    </contour>
  </outline>
</glyph>
<glyph name="u" format="2">
  <advance width="1216.0"/>
  <unicode hex="0075"/>
  <anchor x="598.0" y="0.0" name="bottom"/>
  <anchor x="576.0" y="-166.0" name="btm"/>
  <anchor x="1092.0" y="20.0" name="ogonek"/>
  <anchor x="604.0" y="1660.0" name="top"/>
  <anchor x="996.0" y="1114.0" name="topright"/>
  <outline>
    <contour>
      <point x="484.0" y="-16.0" type="curve" smooth="yes"/>
      <point x="604.0" y="-16.0"/>
      <point x="752.0" y="40.0"/>
      <point x="842.0" y="100.0" type="curve"/>
      <point x="838.0" y="144.0" type="line"/>
      <point x="838.0" y="66.0" type="line" smooth="yes"/>
      <point x="838.0" y="-8.0"/>
      <point x="876.0" y="-16.0"/>
      <point x="938.0" y="-16.0" type="curve" smooth="yes"/>
      <point x="1044.0" y="-16.0" type="line"/>
      <point x="1044.0" y="1114.0" type="line"/>
      <point x="814.0" y="1114.0" type="line"/>
      <point x="814.0" y="248.0" type="line"/>
      <point x="766.0" y="216.0"/>
      <point x="656.0" y="172.0"/>
      <point x="574.0" y="172.0" type="curve" smooth="yes"/>
      <point x="434.0" y="172.0"/>
      <point x="376.0" y="200.0"/>
      <point x="376.0" y="464.0" type="curve" smooth="yes"/>
      <point x="376.0" y="1114.0" type="line"/>
      <point x="146.0" y="1114.0" type="line"/>
      <point x="146.0" y="462.0" type="line" smooth="yes"/>
      <point x="146.0" y="176.0"/>
      <point x="194.0" y="-16.0"/>
    </contour>
  </outline>
</glyph>
<glyph name="w" format="2">
  <advance width="1616.0"/>
  <unicode hex="0077"/>
  <anchor x="809.0" y="0.0" name="bottom"/>
  <anchor x="813.0" y="-161.0" name="btm"/>
  <anchor x="813.0" y="1669.0" name="top"/>
  <outline>
    <contour>
      <point x="360.0" y="-16.0" type="line"/>
      <point x="578.0" y="-16.0" type="line"/>
      <point x="770.0" y="688.0" type="line"/>
      <point x="835.0" y="988.0" type="line"/>
      <point x="787.0" y="988.0" type="line"/>
      <point x="848.0" y="688.0" type="line"/>
      <point x="1044.0" y="-16.0" type="line"/>
      <point x="1255.0" y="-16.0" type="line"/>
      <point x="1596.0" y="1114.0" type="line"/>
      <point x="1371.0" y="1114.0" type="line"/>
      <point x="1205.0" y="462.0" type="line"/>
      <point x="1126.0" y="113.0" type="line"/>
      <point x="1184.0" y="113.0" type="line"/>
      <point x="1107.0" y="469.0" type="line"/>
      <point x="926.0" y="1114.0" type="line"/>
      <point x="700.0" y="1114.0" type="line"/>
      <point x="519.0" y="467.0" type="line"/>
      <point x="443.0" y="109.0" type="line"/>
      <point x="505.0" y="109.0" type="line"/>
      <point x="424.0" y="469.0" type="line"/>
      <point x="251.0" y="1114.0" type="line"/>
      <point x="20.0" y="1114.0" type="line"/>
    </contour>
  </outline>
</glyph>
<glyph name="x" format="2">
  <advance width="544.0"/>
  <unicode hex="0078"/>
  <anchor x="269.0" y="0.0" name="bottom"/>
  <anchor x="276.0" y="-83.0" name="btm"/>
  <anchor x="276.0" y="830.0" name="top"/>
  <outline>
    <contour>
      <point x="11.0" y="0.0" type="line"/>
      <point x="143.0" y="0.0" type="line"/>
      <point x="252.0" y="179.0" type="line"/>
      <point x="285.0" y="246.0" type="line"/>
      <point x="242.0" y="246.0" type="line"/>
      <point x="283.0" y="180.0" type="line"/>
      <point x="401.0" y="0.0" type="line"/>
      <point x="534.0" y="0.0" type="line"/>
      <point x="319.0" y="303.0" type="line"/>
      <point x="319.0" y="266.0" type="line"/>
      <point x="530.0" y="557.0" type="line"/>
      <point x="400.0" y="557.0" type="line"/>
      <point x="283.0" y="380.0" type="line"/>
      <point x="254.0" y="322.0" type="line"/>
      <point x="292.0" y="322.0" type="line"/>
      <point x="258.0" y="379.0" type="line"/>
      <point x="141.0" y="557.0" type="line"/>
      <point x="10.0" y="557.0" type="line"/>
      <point x="220.0" y="265.0" type="line"/>
      <point x="219.0" y="298.0" type="line"/>
    </contour>
  </outline>
</glyph>
<glyph name="y" format="2">
  <advance width="1102.0"/>
  <unicode hex="0079"/>
  <anchor x="924.0" y="0.0" name="bottom"/>
  <anchor x="592.0" y="1660.0" name="top"/>
  <outline>
    <contour>
      <point x="138.0" y="-480.0" type="line"/>
      <point x="150.0" y="-488.0"/>
      <point x="224.0" y="-496.0"/>
      <point x="254.0" y="-496.0" type="curve" smooth="yes"/>
      <point x="284.0" y="-496.0"/>
      <point x="338.0" y="-488.0"/>
      <point x="366.0" y="-478.0" type="curve" smooth="yes"/>
      <point x="510.0" y="-438.0"/>
      <point x="634.0" y="-302.0"/>
      <point x="722.0" y="-34.0" type="curve" smooth="yes"/>
      <point x="1092.0" y="1114.0" type="line"/>
      <point x="844.0" y="1114.0" type="line"/>
      <point x="646.0" y="392.0" type="line"/>
      <point x="564.0" y="80.0" type="line"/>
      <point x="624.0" y="80.0" type="line"/>
      <point x="530.0" y="392.0" type="line"/>
      <point x="298.0" y="1114.0" type="line"/>
      <point x="50.0" y="1114.0" type="line"/>
      <point x="448.0" y="0.0" type="line"/>
      <point x="544.0" y="0.0" type="line"/>
      <point x="530.0" y="28.0" type="line"/>
      <point x="472.0" y="-260.0"/>
      <point x="320.0" y="-306.0"/>
      <point x="236.0" y="-306.0" type="curve" smooth="yes"/>
      <point x="214.0" y="-306.0"/>
      <point x="160.0" y="-300.0"/>
      <point x="138.0" y="-292.0" type="curve"/>
    </contour>
  </outline>
</glyph>
<glyph name="braceleft" format="2">
  <advance width="481.0"/>
  <unicode hex="007B"/>
  <outline>
    <contour>
      <point x="164.0" y="29.0" type="line"/>
      <point x="164.0" y="-67.0"/>
      <point x="187.0" y="-97.0"/>
      <point x="262.0" y="-97.0" type="curve" smooth="yes"/>
      <point x="316.0" y="-97.0"/>
      <point x="359.0" y="-91.0"/>
      <point x="401.0" y="-80.0" type="curve"/>
      <point x="401.0" y="-22.0" type="line"/>
      <point x="271.0" y="-22.0" type="line"/>
      <point x="271.0" y="278.0" type="line" smooth="yes"/>
      <point x="271.0" y="295.0"/>
      <point x="263.0" y="309.0"/>
      <point x="251.0" y="322.0" type="curve" smooth="yes"/>
      <point x="226.0" y="349.0"/>
      <point x="179.0" y="370.0"/>
      <point x="138.0" y="385.0" type="curve"/>
      <point x="138.0" y="373.0" type="line"/>
      <point x="179.0" y="390.0"/>
      <point x="226.0" y="407.0"/>
      <point x="250.0" y="431.0" type="curve" smooth="yes"/>
      <point x="263.0" y="444.0"/>
      <point x="271.0" y="459.0"/>
      <point x="271.0" y="478.0" type="curve" smooth="yes"/>
      <point x="271.0" y="776.0" type="line"/>
      <point x="401.0" y="776.0" type="line"/>
      <point x="401.0" y="840.0" type="line"/>
      <point x="359.0" y="845.0"/>
      <point x="316.0" y="852.0"/>
      <point x="262.0" y="852.0" type="curve" smooth="yes"/>
      <point x="187.0" y="852.0"/>
      <point x="164.0" y="822.0"/>
      <point x="164.0" y="726.0" type="curve" smooth="yes"/>
      <point x="164.0" y="478.0" type="line" smooth="yes"/>
      <point x="164.0" y="448.0"/>
      <point x="89.0" y="421.0"/>
      <point x="40.0" y="416.0" type="curve"/>
      <point x="40.0" y="343.0" type="line"/>
      <point x="89.0" y="338.0"/>
      <point x="164.0" y="306.0"/>
      <point x="164.0" y="277.0" type="curve" smooth="yes"/>
    </contour>
  </outline>
</glyph>
<glyph name="asciitilde" format="2">
  <advance width="1406.0"/>
  <unicode hex="007E"/>
  <outline>
    <contour>
      <point x="325.0" y="660.0" type="line"/>
      <point x="371.0" y="719.0"/>
      <point x="422.0" y="769.0"/>
      <point x="514.0" y="769.0" type="curve" smooth="yes"/>
      <point x="656.0" y="769.0"/>
      <point x="692.0" y="606.0"/>
      <point x="883.0" y="606.0" type="curve" smooth="yes"/>
      <point x="1049.0" y="606.0"/>
      <point x="1159.0" y="706.0"/>
      <point x="1195.0" y="805.0" type="curve"/>
      <point x="1093.0" y="908.0" type="line"/>
      <point x="1046.0" y="849.0"/>
      <point x="987.0" y="800.0"/>
      <point x="895.0" y="800.0" type="curve" smooth="yes"/>
      <point x="758.0" y="800.0"/>
      <point x="711.0" y="962.0"/>
      <point x="520.0" y="962.0" type="curve" smooth="yes"/>
      <point x="359.0" y="962.0"/>
      <point x="240.0" y="834.0"/>
      <point x="209.0" y="752.0" type="curve"/>
    </contour>
  </outline>
</glyph>
<glyph name="cent" format="2">
  <advance width="578.0"/>
  <unicode hex="00A2"/>
  <anchor x="268.0" y="0.0" name="bottom"/>
  <anchor x="301.0" y="-83.0" name="btm"/>
  <anchor x="322.0" y="830.0" name="top"/>
  <outline>
    <contour>
      <point x="298.0" y="521.0" type="line"/>
      <point x="374.0" y="521.0" type="line"/>
      <point x="377.0" y="672.0" type="line"/>
      <point x="302.0" y="672.0" type="line"/>
    </contour>
    <contour>
      <point x="282.0" y="-105.0" type="line"/>
      <point x="357.0" y="-105.0" type="line"/>
      <point x="360.0" y="45.0" type="line"/>
      <point x="285.0" y="45.0" type="line"/>
    </contour>
    <component base="c" xOffset="28.0"/>
  </outline>
</glyph>
<glyph name="currency" format="2">
  <advance width="1495.0"/>
  <unicode hex="00A4"/>
  <outline>
    <contour>
      <point x="746.0" y="322.0" type="curve" smooth="yes"/>
      <point x="986.0" y="322.0"/>
      <point x="1179.0" y="513.0"/>
      <point x="1179.0" y="754.0" type="curve" smooth="yes"/>
      <point x="1179.0" y="997.0"/>
      <point x="986.0" y="1188.0"/>
      <point x="746.0" y="1188.0" type="curve" smooth="yes"/>
      <point x="507.0" y="1188.0"/>
      <point x="313.0" y="997.0"/>
      <point x="313.0" y="754.0" type="curve"/>
      <point x="313.0" y="513.0"/>
      <point x="507.0" y="322.0"/>
    </contour>
    <contour>
      <point x="748.0" y="491.0" type="curve" smooth="yes"/>
      <point x="608.0" y="491.0"/>
      <point x="495.0" y="611.0"/>
      <point x="495.0" y="754.0" type="curve" smooth="yes"/>
      <point x="495.0" y="899.0"/>
      <point x="608.0" y="1019.0"/>
      <point x="748.0" y="1019.0" type="curve" smooth="yes"/>
      <point x="886.0" y="1019.0"/>
      <point x="998.0" y="899.0"/>
      <point x="998.0" y="754.0" type="curve" smooth="yes"/>
      <point x="998.0" y="611.0"/>
      <point x="886.0" y="491.0"/>
    </contour>
    <contour>
      <point x="415.0" y="983.0" type="line"/>
      <point x="541.0" y="1109.0" type="line"/>
      <point x="320.0" y="1334.0" type="line"/>
      <point x="194.0" y="1205.0" type="line"/>
    </contour>
    <contour>
      <point x="1079.0" y="981.0" type="line"/>
      <point x="1305.0" y="1208.0" type="line"/>
      <point x="1179.0" y="1336.0" type="line"/>
      <point x="953.0" y="1110.0" type="line"/>
    </contour>
    <contour>
      <point x="321.0" y="174.0" type="line"/>
      <point x="543.0" y="397.0" type="line"/>
      <point x="415.0" y="524.0" type="line"/>
      <point x="194.0" y="301.0" type="line"/>
    </contour>
    <contour>
      <point x="1174.0" y="178.0" type="line"/>
      <point x="1300.0" y="305.0" type="line"/>
      <point x="1079.0" y="528.0" type="line"/>
      <point x="953.0" y="400.0" type="line"/>
    </contour>
  </outline>
</glyph>
<glyph name="yen" format="2">
  <advance width="1504.0"/>
  <unicode hex="00A5"/>
  <outline>
    <contour>
      <point x="641.0" y="0.0" type="line"/>
      <point x="868.0" y="0.0" type="line"/>
      <point x="868.0" y="805.0" type="line"/>
      <point x="819.0" y="647.0" type="line"/>
      <point x="1355.0" y="1486.0" type="line"/>
      <point x="1112.0" y="1486.0" type="line"/>
      <point x="816.0" y="997.0" type="line"/>
      <point x="732.0" y="806.0" type="line"/>
      <point x="749.0" y="806.0"/>
      <point x="766.0" y="806.0"/>
      <point x="783.0" y="806.0" type="curve"/>
      <point x="692.0" y="992.0" type="line"/>
      <point x="406.0" y="1486.0" type="line"/>
      <point x="159.0" y="1486.0" type="line"/>
      <point x="694.0" y="632.0" type="line"/>
      <point x="641.0" y="805.0" type="line"/>
    </contour>
    <contour>
      <point x="270.0" y="651.0" type="line"/>
      <point x="1217.0" y="651.0" type="line"/>
      <point x="1217.0" y="799.0" type="line"/>
      <point x="270.0" y="799.0" type="line"/>
    </contour>
    <contour>
      <point x="270.0" y="282.0" type="line"/>
      <point x="1217.0" y="282.0" type="line"/>
      <point x="1217.0" y="430.0" type="line"/>
      <point x="270.0" y="430.0" type="line"/>
    </contour>
  </outline>
</glyph>
<glyph name="dieresis" format="2">
  <advance width="862.0"/>
  <unicode hex="00A8"/>
  <anchor x="430.0" y="1660.0" name="_top"/>
  <outline>
    <contour>
      <point x="194.0" y="1323.0" type="curve" smooth="yes"/>
      <point x="276.0" y="1323.0"/>
      <point x="349.0" y="1385.0"/>
      <point x="349.0" y="1473.0" type="curve" smooth="yes"/>
      <point x="349.0" y="1547.0"/>
      <point x="308.0" y="1608.0"/>
      <point x="217.0" y="1608.0" type="curve" smooth="yes"/>
      <point x="138.0" y="1608.0"/>
      <point x="60.0" y="1540.0"/>
      <point x="60.0" y="1456.0" type="curve" smooth="yes"/>
      <point x="60.0" y="1374.0"/>
      <point x="119.0" y="1323.0"/>
    </contour>
    <contour>
      <point x="646.0" y="1323.0" type="curve" smooth="yes"/>
      <point x="729.0" y="1323.0"/>
      <point x="801.0" y="1385.0"/>
      <point x="801.0" y="1473.0" type="curve" smooth="yes"/>
      <point x="801.0" y="1547.0"/>
      <point x="761.0" y="1608.0"/>
      <point x="669.0" y="1608.0" type="curve" smooth="yes"/>
      <point x="589.0" y="1608.0"/>
      <point x="512.0" y="1540.0"/>
      <point x="512.0" y="1456.0" type="curve" smooth="yes"/>
      <point x="512.0" y="1374.0"/>
      <point x="571.0" y="1323.0"/>
    </contour>
  </outline>
</glyph>
<glyph name="copyright" format="2">
  <advance width="2074.0"/>
  <unicode hex="00A9"/>
  <outline>
    <contour>
      <point x="187.0" y="940.0" type="curve" smooth="yes"/>
      <point x="187.0" y="464.0"/>
      <point x="561.0" y="80.0"/>
      <point x="1037.0" y="80.0" type="curve" smooth="yes"/>
      <point x="1511.0" y="80.0"/>
      <point x="1887.0" y="464.0"/>
      <point x="1887.0" y="940.0" type="curve" smooth="yes"/>
      <point x="1887.0" y="1416.0"/>
      <point x="1511.0" y="1796.0"/>
      <point x="1037.0" y="1796.0" type="curve" smooth="yes"/>
      <point x="561.0" y="1796.0"/>
      <point x="187.0" y="1416.0"/>
    </contour>
    <contour>
      <point x="325.0" y="940.0" type="curve" smooth="yes"/>
      <point x="325.0" y="1344.0"/>
      <point x="627.0" y="1674.0"/>
      <point x="1037.0" y="1674.0" type="curve" smooth="yes"/>
      <point x="1445.0" y="1674.0"/>
      <point x="1747.0" y="1344.0"/>
      <point x="1747.0" y="940.0" type="curve" smooth="yes"/>
      <point x="1747.0" y="536.0"/>
      <point x="1445.0" y="206.0"/>
      <point x="1037.0" y="206.0" type="curve" smooth="yes"/>
      <point x="627.0" y="206.0"/>
      <point x="325.0" y="536.0"/>
    </contour>
    <contour>
      <point x="603.0" y="933.0" type="curve" smooth="yes"/>
      <point x="603.0" y="689.0"/>
      <point x="765.0" y="467.0"/>
      <point x="1034.0" y="467.0" type="curve" smooth="yes"/>
      <point x="1164.0" y="467.0"/>
      <point x="1284.0" y="507.0"/>
      <point x="1347.0" y="561.0" type="curve"/>
      <point x="1303.0" y="687.0" type="line"/>
      <point x="1254.0" y="661.0"/>
      <point x="1167.0" y="628.0"/>
      <point x="1065.0" y="628.0" type="curve" smooth="yes"/>
      <point x="910.0" y="628.0"/>
      <point x="800.0" y="738.0"/>
      <point x="800.0" y="952.0" type="curve" smooth="yes"/>
      <point x="800.0" y="1125.0"/>
      <point x="897.0" y="1255.0"/>
      <point x="1071.0" y="1255.0" type="curve" smooth="yes"/>
      <point x="1166.0" y="1255.0"/>
      <point x="1237.0" y="1229.0"/>
      <point x="1289.0" y="1196.0" type="curve"/>
      <point x="1323.0" y="1363.0" type="line"/>
      <point x="1288.0" y="1382.0"/>
      <point x="1210.0" y="1416.0"/>
      <point x="1087.0" y="1416.0" type="curve" smooth="yes"/>
      <point x="773.0" y="1416.0"/>
      <point x="603.0" y="1208.0"/>
    </contour>
  </outline>
</glyph>
<glyph name="guillemetleft" format="2">
  <advance width="1901.0"/>
  <unicode hex="00AB"/>
  <outline>
    <contour>
      <point x="238.0" y="501.0" type="line"/>
      <point x="848.0" y="97.0" type="line"/>
      <point x="906.0" y="261.0" type="line"/>
      <point x="406.0" y="642.0" type="line"/>
      <point x="406.0" y="558.0" type="line"/>
      <point x="906.0" y="943.0" type="line"/>
      <point x="848.0" y="1110.0" type="line"/>
      <point x="238.0" y="692.0" type="line"/>
    </contour>
    <contour>
      <point x="961.0" y="501.0" type="line"/>
      <point x="1591.0" y="97.0" type="line"/>
      <point x="1649.0" y="261.0" type="line"/>
      <point x="1129.0" y="642.0" type="line"/>
      <point x="1129.0" y="558.0" type="line"/>
      <point x="1649.0" y="943.0" type="line"/>
      <point x="1591.0" y="1110.0" type="line"/>
      <point x="961.0" y="692.0" type="line"/>
    </contour>
  </outline>
</glyph>
<glyph name="plusminus" format="2">
  <advance width="1362.0"/>
  <unicode hex="00B1"/>
  <outline>
    <contour>
      <point x="243.0" y="0.0" type="line"/>
      <point x="1118.0" y="0.0" type="line"/>
      <point x="1118.0" y="168.0" type="line"/>
      <point x="243.0" y="168.0" type="line"/>
    </contour>
    <component base="plus"/>
  </outline>
</glyph>
<glyph name="micro" format="2">
  <advance width="1336.0"/>
  <unicode hex="00B5"/>
  <outline>
    <contour>
      <point x="201.0" y="-362.0" type="line"/>
      <point x="414.0" y="-362.0" type="line"/>
      <point x="378.0" y="158.0" type="line"/>
      <point x="340.0" y="148.0" type="line"/>
      <point x="400.0" y="22.0"/>
      <point x="492.0" y="-16.0"/>
      <point x="642.0" y="-16.0" type="curve" smooth="yes"/>
      <point x="784.0" y="-16.0"/>
      <point x="857.0" y="65.0"/>
      <point x="903.0" y="118.0" type="curve"/>
      <point x="899.0" y="17.0"/>
      <point x="952.0" y="-18.0"/>
      <point x="1025.0" y="-18.0" type="curve" smooth="yes"/>
      <point x="1137.0" y="-18.0"/>
      <point x="1226.0" y="64.0"/>
      <point x="1240.0" y="84.0" type="curve"/>
      <point x="1210.0" y="188.0" type="line"/>
      <point x="1174.0" y="168.0"/>
      <point x="1146.0" y="162.0"/>
      <point x="1134.0" y="162.0" type="curve" smooth="yes"/>
      <point x="1112.0" y="162.0"/>
      <point x="1098.0" y="176.0"/>
      <point x="1098.0" y="236.0" type="curve" smooth="yes"/>
      <point x="1098.0" y="1114.0" type="line"/>
      <point x="868.0" y="1114.0" type="line"/>
      <point x="868.0" y="249.0" type="line"/>
      <point x="819.0" y="212.0"/>
      <point x="738.0" y="167.0"/>
      <point x="664.0" y="167.0" type="curve" smooth="yes"/>
      <point x="505.0" y="167.0"/>
      <point x="429.0" y="227.0"/>
      <point x="429.0" y="405.0" type="curve" smooth="yes"/>
      <point x="429.0" y="1114.0" type="line"/>
      <point x="201.0" y="1114.0" type="line"/>
    </contour>
  </outline>
</glyph>
<glyph name="paragraph" format="2">
  <advance width="684.0"/>
  <unicode hex="00B6"/>
  <outline>
    <contour>
      <point x="281.0" y="0.0" type="line"/>
      <point x="377.0" y="0.0" type="line"/>
      <point x="377.0" y="754.0" type="line"/>
      <point x="492.0" y="754.0" type="line"/>
      <point x="492.0" y="0.0" type="line"/>
      <point x="588.0" y="0.0" type="line"/>
      <point x="588.0" y="826.0" type="line"/>
      <point x="530.0" y="827.0"/>
      <point x="399.0" y="835.0"/>
      <point x="352.0" y="835.0" type="curve" smooth="yes"/>
      <point x="166.0" y="835.0"/>
      <point x="70.0" y="748.0"/>
      <point x="70.0" y="609.0" type="curve" smooth="yes"/>
      <point x="70.0" y="447.0"/>
      <point x="145.0" y="379.0"/>
      <point x="281.0" y="379.0" type="curve"/>
    </contour>
  </outline>
</glyph>
<glyph name="guillemetright" format="2">
  <advance width="962.0"/>
  <unicode hex="00BB"/>
  <outline>
    <contour>
      <point x="842.0" y="251.0" type="line"/>
      <point x="842.0" y="346.0" type="line"/>
      <point x="536.0" y="555.0" type="line"/>
      <point x="507.0" y="471.0" type="line"/>
      <point x="759.0" y="279.0" type="line"/>
      <point x="759.0" y="321.0" type="line"/>
      <point x="507.0" y="130.0" type="line"/>
      <point x="536.0" y="49.0" type="line"/>
    </contour>
    <contour>
      <point x="467.0" y="251.0" type="line"/>
      <point x="467.0" y="346.0" type="line"/>
      <point x="154.0" y="555.0" type="line"/>
      <point x="125.0" y="471.0" type="line"/>
      <point x="383.0" y="279.0" type="line"/>
      <point x="383.0" y="321.0" type="line"/>
      <point x="125.0" y="130.0" type="line"/>
      <point x="154.0" y="49.0" type="line"/>
    </contour>
  </outline>
</glyph>
<glyph name="questiondown" format="2">
  <advance width="1040.0"/>
  <unicode hex="00BF"/>
  <outline>
    <contour>
      <point x="671.0" y="1004.0" type="curve"/>
      <point x="496.0" y="1004.0" type="line"/>
      <point x="523.0" y="908.0"/>
      <point x="546.0" y="850.0"/>
      <point x="537.0" y="763.0" type="curve" smooth="yes"/>
      <point x="522.0" y="575.0"/>
      <point x="152.0" y="541.0"/>
      <point x="111.0" y="239.0" type="curve" smooth="yes"/>
      <point x="62.0" y="-36.0"/>
      <point x="218.0" y="-309.0"/>
      <point x="682.0" y="-309.0" type="curve" smooth="yes"/>
      <point x="785.0" y="-309.0"/>
      <point x="878.0" y="-283.0"/>
      <point x="903.0" y="-266.0" type="curve"/>
      <point x="903.0" y="-98.0" type="line"/>
      <point x="878.0" y="-104.0"/>
      <point x="823.0" y="-117.0"/>
      <point x="723.0" y="-117.0" type="curve" smooth="yes"/>
      <point x="444.0" y="-117.0"/>
      <point x="291.0" y="15.0"/>
      <point x="344.0" y="250.0" type="curve" smooth="yes"/>
      <point x="370.0" y="439.0"/>
      <point x="764.0" y="507.0"/>
      <point x="757.0" y="735.0" type="curve" smooth="yes"/>
      <point x="753.0" y="852.0"/>
      <point x="714.0" y="950.0"/>
    </contour>
    <contour>
      <point x="557.0" y="1510.0" type="curve" smooth="yes"/>
      <point x="471.0" y="1510.0"/>
      <point x="392.0" y="1435.0"/>
      <point x="395.0" y="1338.0" type="curve" smooth="yes"/>
      <point x="397.0" y="1259.0"/>
      <point x="448.0" y="1191.0"/>
      <point x="541.0" y="1191.0" type="curve" smooth="yes"/>
      <point x="623.0" y="1191.0"/>
      <point x="703.0" y="1269.0"/>
      <point x="701.0" y="1359.0" type="curve" smooth="yes"/>
      <point x="699.0" y="1446.0"/>
      <point x="631.0" y="1510.0"/>
    </contour>
  </outline>
</glyph>
<glyph name="Eth" format="2">
  <advance width="1452.0"/>
  <unicode hex="00D0"/>
  <anchor x="716.0" y="0.0" name="bottom"/>
  <anchor x="636.0" y="-166.0" name="btm"/>
  <anchor x="716.0" y="744.0" name="center"/>
  <anchor x="706.0" y="1660.0" name="top"/>
  <outline>
    <contour>
      <point x="65.0" y="699.0" type="line"/>
      <point x="798.0" y="699.0" type="line"/>
      <point x="798.0" y="853.0" type="line"/>
      <point x="65.0" y="853.0" type="line"/>
    </contour>
    <component base="D"/>
  </outline>
</glyph>
<glyph name="Thorn" format="2">
  <advance width="1238.0"/>
  <unicode hex="00DE"/>
  <anchor x="612.0" y="0.0" name="bottom"/>
  <anchor x="612.0" y="1486.0" name="top"/>
  <outline>
    <contour>
      <point x="592.0" y="274.0" type="curve" smooth="yes"/>
      <point x="962.0" y="274.0"/>
      <point x="1160.0" y="458.0"/>
      <point x="1160.0" y="776.0" type="curve" smooth="yes"/>
      <point x="1160.0" y="1088.0"/>
      <point x="974.0" y="1234.0"/>
      <point x="640.0" y="1234.0" type="curve" smooth="yes"/>
      <point x="524.0" y="1234.0"/>
      <point x="416.0" y="1220.0"/>
      <point x="328.0" y="1218.0" type="curve"/>
      <point x="396.0" y="1042.0" type="line"/>
      <point x="446.0" y="1058.0"/>
      <point x="508.0" y="1062.0"/>
      <point x="564.0" y="1064.0" type="curve" smooth="yes"/>
      <point x="808.0" y="1072.0"/>
      <point x="928.0" y="980.0"/>
      <point x="928.0" y="774.0" type="curve" smooth="yes"/>
      <point x="928.0" y="496.0"/>
      <point x="758.0" y="446.0"/>
      <point x="568.0" y="446.0" type="curve" smooth="yes"/>
      <point x="516.0" y="446.0"/>
      <point x="460.0" y="446.0"/>
      <point x="396.0" y="458.0" type="curve"/>
      <point x="396.0" y="282.0" type="line"/>
      <point x="434.0" y="282.0"/>
      <point x="496.0" y="274.0"/>
    </contour>
    <contour>
      <point x="176.0" y="0.0" type="line"/>
      <point x="412.0" y="0.0" type="line"/>
      <point x="412.0" y="1486.0" type="line"/>
      <point x="176.0" y="1486.0" type="line"/>
    </contour>
  </outline>
</glyph>
<glyph name="germandbls" format="2">
  <advance width="1282.0"/>
  <unicode hex="00DF"/>
  <anchor x="644.0" y="0.0" name="bottom"/>
  <anchor x="644.0" y="1114.0" name="top"/>
  <outline>
    <contour>
      <point x="186.0" y="0.0" type="line"/>
      <point x="416.0" y="0.0" type="line"/>
      <point x="416.0" y="926.0" type="line" smooth="yes"/>
      <point x="416.0" y="1276.0"/>
      <point x="530.0" y="1382.0"/>
      <point x="692.0" y="1382.0" type="curve" smooth="yes"/>
      <point x="812.0" y="1382.0"/>
      <point x="878.0" y="1332.0"/>
      <point x="878.0" y="1236.0" type="curve" smooth="yes"/>
      <point x="878.0" y="1066.0"/>
      <point x="676.0" y="1012.0"/>
      <point x="676.0" y="830.0" type="curve" smooth="yes"/>
      <point x="676.0" y="528.0"/>
      <point x="1002.0" y="502.0"/>
      <point x="1004.0" y="288.0" type="curve" smooth="yes"/>
      <point x="1004.0" y="178.0"/>
      <point x="918.0" y="144.0"/>
      <point x="842.0" y="144.0" type="curve" smooth="yes"/>
      <point x="728.0" y="144.0"/>
      <point x="652.0" y="176.0"/>
      <point x="618.0" y="194.0" type="curve"/>
      <point x="618.0" y="16.0" type="line"/>
      <point x="656.0" y="0.0"/>
      <point x="744.0" y="-16.0"/>
      <point x="846.0" y="-16.0" type="curve" smooth="yes"/>
      <point x="1038.0" y="-16.0"/>
      <point x="1238.0" y="66.0"/>
      <point x="1238.0" y="310.0" type="curve" smooth="yes"/>
      <point x="1238.0" y="636.0"/>
      <point x="886.0" y="666.0"/>
      <point x="886.0" y="858.0" type="curve" smooth="yes"/>
      <point x="886.0" y="990.0"/>
      <point x="1110.0" y="1048.0"/>
      <point x="1110.0" y="1266.0" type="curve" smooth="yes"/>
      <point x="1110.0" y="1444.0"/>
      <point x="944.0" y="1542.0"/>
      <point x="728.0" y="1542.0" type="curve" smooth="yes"/>
      <point x="426.0" y="1542.0"/>
      <point x="186.0" y="1366.0"/>
      <point x="186.0" y="946.0" type="curve" smooth="yes"/>
    </contour>
    <contour>
      <point x="50.0" y="944.0" type="line"/>
      <point x="194.0" y="944.0" type="line"/>
      <point x="248.0" y="1018.0" type="line"/>
      <point x="216.0" y="1120.0" type="line"/>
      <point x="50.0" y="1080.0" type="line"/>
    </contour>
  </outline>
</glyph>
<glyph name="oslash" format="2">
  <advance width="1200.0"/>
  <unicode hex="00F8"/>
  <anchor x="644.0" y="1660.0" name="top"/>
  <outline>
    <contour>
      <point x="286.0" y="-164.0" type="line"/>
      <point x="408.0" y="-199.0" type="line"/>
      <point x="915.0" y="1281.0" type="line"/>
      <point x="793.0" y="1314.0" type="line"/>
    </contour>
    <contour>
      <point x="590.0" y="-16.0" type="curve" smooth="yes"/>
      <point x="883.0" y="-16.0"/>
      <point x="1100.0" y="176.0"/>
      <point x="1106.0" y="534.0" type="curve" smooth="yes"/>
      <point x="1110.0" y="850.0"/>
      <point x="973.0" y="1128.0"/>
      <point x="610.0" y="1128.0" type="curve" smooth="yes"/>
      <point x="318.0" y="1128.0"/>
      <point x="98.0" y="938.0"/>
      <point x="94.0" y="580.0" type="curve"/>
      <point x="90.0" y="262.0"/>
      <point x="227.0" y="-16.0"/>
    </contour>
    <contour>
      <point x="596.0" y="147.0" type="curve" smooth="yes"/>
      <point x="412.0" y="151.0"/>
      <point x="329.0" y="345.0"/>
      <point x="329.0" y="577.0" type="curve" smooth="yes"/>
      <point x="329.0" y="826.0"/>
      <point x="422.0" y="967.0"/>
      <point x="604.0" y="963.0" type="curve"/>
      <point x="790.0" y="961.0"/>
      <point x="872.0" y="774.0"/>
      <point x="872.0" y="543.0" type="curve" smooth="yes"/>
      <point x="872.0" y="293.0"/>
      <point x="779.0" y="144.0"/>
    </contour>
  </outline>
</glyph>
<glyph name="Aogonek" format="2">
  <advance width="1376.0"/>
  <unicode hex="0104"/>
  <anchor x="689.0" y="0.0" name="bottom"/>
  <anchor x="664.0" y="-166.0" name="btm"/>
  <anchor x="1238.0" y="20.0" name="ogonek"/>
  <anchor x="687.0" y="1660.0" name="top"/>
  <outline>
    <contour>
      <point x="895.0" y="-296.0" type="curve"/>
      <point x="898.0" y="-429.0"/>
      <point x="1004.0" y="-501.0"/>
      <point x="1138.0" y="-501.0" type="curve" smooth="yes"/>
      <point x="1220.0" y="-501.0"/>
      <point x="1312.0" y="-483.0"/>
      <point x="1369.0" y="-441.0" type="curve"/>
      <point x="1369.0" y="-320.0" type="line"/>
      <point x="1325.0" y="-335.0"/>
      <point x="1278.0" y="-347.0"/>
      <point x="1235.0" y="-347.0" type="curve" smooth="yes"/>
      <point x="1168.0" y="-347.0"/>
      <point x="1113.0" y="-326.0"/>
      <point x="1111.0" y="-246.0" type="curve"/>
      <point x="1108.0" y="-151.0"/>
      <point x="1218.0" y="-54.0"/>
      <point x="1339.0" y="10.0" type="curve"/>
      <point x="1296.0" y="32.0" type="line"/>
      <point x="1155.0" y="3.0" type="line"/>
      <point x="1038.0" y="-54.0"/>
      <point x="892.0" y="-165.0"/>
    </contour>
    <component base="A"/>
  </outline>
</glyph>
<glyph name="dcroat" format="2">
  <advance width="1226.0"/>
  <unicode hex="0111"/>
  <anchor x="612.0" y="0.0" name="bottom"/>
  <anchor x="599.0" y="-166.0" name="btm"/>
  <anchor x="612.0" y="558.0" name="center"/>
  <anchor x="361.0" y="1660.0" name="top"/>
  <anchor x="1184.0" y="1114.0" name="topright"/>
  <outline>
    <contour>
      <point x="577.0" y="1274.0" type="line"/>
      <point x="1199.0" y="1274.0" type="line"/>
      <point x="1199.0" y="1418.0" type="line"/>
      <point x="577.0" y="1418.0" type="line"/>
    </contour>
    <component base="d"/>
  </outline>
</glyph>
<glyph name="Hbar" format="2">
  <advance width="1536.0"/>
  <unicode hex="0126"/>
  <outline>
    <contour>
      <point x="189.0" y="0.0" type="line"/>
      <point x="424.0" y="0.0" type="line"/>
      <point x="424.0" y="649.0" type="line"/>
      <point x="1114.0" y="649.0" type="line"/>
      <point x="1114.0" y="0.0" type="line"/>
      <point x="1347.0" y="0.0" type="line"/>
      <point x="1347.0" y="1486.0" type="line"/>
      <point x="1114.0" y="1486.0" type="line"/>
      <point x="1114.0" y="827.0" type="line"/>
      <point x="424.0" y="827.0" type="line"/>
      <point x="424.0" y="1486.0" type="line"/>
      <point x="189.0" y="1486.0" type="line"/>
    </contour>
    <contour>
      <point x="11.0" y="1036.0" type="line"/>
      <point x="1529.0" y="1036.0" type="line"/>
      <point x="1529.0" y="1183.0" type="line"/>
      <point x="11.0" y="1183.0" type="line"/>
    </contour>
  </outline>
</glyph>
<glyph name="hbar" format="2">
  <advance width="1269.0"/>
  <unicode hex="0127"/>
  <anchor x="635.0" y="0.0" name="bottom"/>
  <anchor x="657.0" y="-166.0" name="btm"/>
  <anchor x="635.0" y="984.0" name="center"/>
  <anchor x="287.0" y="1738.0" name="top"/>
  <outline>
    <contour>
      <point x="36.0" y="1255.0" type="line"/>
      <point x="627.0" y="1255.0" type="line"/>
      <point x="627.0" y="1392.0" type="line"/>
      <point x="36.0" y="1392.0" type="line"/>
    </contour>
    <component base="h"/>
  </outline>
</glyph>
<glyph name="Lslash" format="2">
  <advance width="525.0"/>
  <unicode hex="0141"/>
  <anchor x="260.0" y="0.0" name="bottom"/>
  <anchor x="289.0" y="-83.0" name="btm"/>
  <anchor x="260.0" y="372.0" name="center"/>
  <anchor x="147.0" y="830.0" name="top"/>
  <anchor x="505.0" y="743.0" name="topright"/>
  <outline>
    <contour>
      <point x="9.533" y="346.844" type="line"/>
      <point x="36.6" y="277.0" type="line"/>
      <point x="423.778" y="419.0" type="line"/>
      <point x="396.711" y="489.844" type="line"/>
    </contour>
    <component base="L"/>
  </outline>
</glyph>
<glyph name="lslash" format="2">
  <advance width="668.0"/>
  <unicode hex="0142"/>
  <anchor x="318.0" y="0.0" name="bottom"/>
  <anchor x="302.0" y="-166.0" name="btm"/>
  <anchor x="318.0" y="984.0" name="center"/>
  <anchor x="320.0" y="1760.0" name="top"/>
  <anchor x="578.0" y="1966.0" name="topright"/>
  <outline>
    <contour>
      <point x="50.0" y="744.0" type="line"/>
      <point x="618.0" y="960.0" type="line"/>
      <point x="618.0" y="1126.0" type="line"/>
      <point x="50.0" y="898.0" type="line"/>
    </contour>
    <component base="l" xOffset="22.0"/>
  </outline>
</glyph>
<glyph name="Eng" format="2">
  <advance width="1552.0"/>
  <unicode hex="014A"/>
  <outline>
    <contour>
      <point x="418.0" y="0.0" type="line"/>
      <point x="418.0" y="895.0" type="line"/>
      <point x="394.0" y="1336.0" type="line"/>
      <point x="302.0" y="1336.0" type="line"/>
      <point x="522.0" y="934.0" type="line"/>
      <point x="1118.0" y="39.0" type="line"/>
      <point x="1118.0" y="-97.0"/>
      <point x="911.0" y="-248.0"/>
      <point x="745.0" y="-296.0" type="curve"/>
      <point x="802.0" y="-402.0" type="line"/>
      <point x="1018.0" y="-379.0"/>
      <point x="1285.0" y="-222.0"/>
      <point x="1340.0" y="36.0" type="curve" smooth="yes"/>
      <point x="1369.0" y="170.0"/>
      <point x="1365.0" y="321.0"/>
      <point x="1365.0" y="504.0" type="curve" smooth="yes"/>
      <point x="1365.0" y="1486.0" type="line"/>
      <point x="1134.0" y="1486.0" type="line"/>
      <point x="1134.0" y="567.0" type="line"/>
      <point x="1162.0" y="155.0" type="line"/>
      <point x="1236.0" y="155.0" type="line"/>
      <point x="1044.0" y="517.0" type="line"/>
      <point x="405.0" y="1486.0" type="line"/>
      <point x="187.0" y="1486.0" type="line"/>
      <point x="189.0" y="0.0" type="line"/>
    </contour>
  </outline>
</glyph>
<glyph name="eng" format="2">
  <advance width="1262.0"/>
  <unicode hex="014B"/>
  <outline>
    <contour>
      <point x="172.0" y="0.0" type="line"/>
      <point x="402.0" y="0.0" type="line"/>
      <point x="402.0" y="838.0" type="line"/>
      <point x="488.0" y="903.0"/>
      <point x="602.0" y="936.0"/>
      <point x="671.0" y="938.0" type="curve" smooth="yes"/>
      <point x="832.0" y="946.0"/>
      <point x="866.0" y="867.0"/>
      <point x="866.0" y="685.0" type="curve" smooth="yes"/>
      <point x="866.0" y="-44.0" type="line" smooth="yes"/>
      <point x="866.0" y="-275.0"/>
      <point x="838.0" y="-336.0"/>
      <point x="729.0" y="-336.0" type="curve" smooth="yes"/>
      <point x="706.0" y="-336.0"/>
      <point x="644.0" y="-332.0"/>
      <point x="624.0" y="-326.0" type="curve"/>
      <point x="624.0" y="-482.0" type="line"/>
      <point x="644.0" y="-490.0"/>
      <point x="739.0" y="-496.0"/>
      <point x="782.0" y="-496.0" type="curve" smooth="yes"/>
      <point x="984.0" y="-496.0"/>
      <point x="1098.0" y="-333.0"/>
      <point x="1098.0" y="-18.0" type="curve" smooth="yes"/>
      <point x="1098.0" y="698.0" type="line" smooth="yes"/>
      <point x="1096.0" y="1024.0"/>
      <point x="1002.0" y="1137.0"/>
      <point x="763.0" y="1130.0" type="curve"/>
      <point x="619.0" y="1126.0"/>
      <point x="461.0" y="1050.0"/>
      <point x="380.0" y="994.0" type="curve"/>
      <point x="377.0" y="1112.0" type="line"/>
      <point x="172.0" y="1112.0" type="line"/>
    </contour>
  </outline>
</glyph>
<glyph name="oe" format="2">
  <advance width="1883.0"/>
  <unicode hex="0153"/>
  <anchor x="942.0" y="0.0" name="bottom"/>
  <anchor x="989.0" y="-166.0" name="btm"/>
  <anchor x="989.0" y="1660.0" name="top"/>
  <outline>
    <contour>
      <point x="1367.0" y="-16.0" type="curve" smooth="yes"/>
      <point x="1508.0" y="-16.0"/>
      <point x="1677.0" y="26.0"/>
      <point x="1751.0" y="86.0" type="curve"/>
      <point x="1710.0" y="219.0" type="line"/>
      <point x="1653.0" y="185.0"/>
      <point x="1502.0" y="159.0"/>
      <point x="1425.0" y="159.0" type="curve" smooth="yes"/>
      <point x="1246.0" y="159.0"/>
      <point x="1107.0" y="241.0"/>
      <point x="1096.0" y="492.0" type="curve"/>
      <point x="1085.0" y="850.0"/>
      <point x="1204.0" y="965.0"/>
      <point x="1360.0" y="965.0" type="curve" smooth="yes"/>
      <point x="1544.0" y="965.0"/>
      <point x="1581.0" y="813.0"/>
      <point x="1571.0" y="652.0" type="curve"/>
      <point x="1023.0" y="652.0" type="line"/>
      <point x="1003.0" y="505.0" type="line"/>
      <point x="1777.0" y="505.0" type="line"/>
      <point x="1787.0" y="555.0"/>
      <point x="1787.0" y="623.0"/>
      <point x="1787.0" y="705.0" type="curve" smooth="yes"/>
      <point x="1781.0" y="993.0"/>
      <point x="1595.0" y="1132.0"/>
      <point x="1371.0" y="1128.0" type="curve" smooth="yes"/>
      <point x="1043.0" y="1124.0"/>
      <point x="870.0" y="882.0"/>
      <point x="870.0" y="558.0" type="curve" smooth="yes"/>
      <point x="870.0" y="198.0"/>
      <point x="1047.0" y="-16.0"/>
    </contour>
    <contour>
      <point x="591.0" y="147.0" type="curve" smooth="yes"/>
      <point x="410.0" y="151.0"/>
      <point x="329.0" y="345.0"/>
      <point x="329.0" y="577.0" type="curve" smooth="yes"/>
      <point x="329.0" y="826.0"/>
      <point x="423.0" y="967.0"/>
      <point x="603.0" y="963.0" type="curve" smooth="yes"/>
      <point x="789.0" y="961.0"/>
      <point x="870.0" y="774.0"/>
      <point x="870.0" y="543.0" type="curve" smooth="yes"/>
      <point x="870.0" y="293.0"/>
      <point x="776.0" y="144.0"/>
    </contour>
    <contour>
      <point x="587.0" y="-16.0" type="curve" smooth="yes"/>
      <point x="877.0" y="-16.0"/>
      <point x="1090.0" y="176.0"/>
      <point x="1096.0" y="534.0" type="curve" smooth="yes"/>
      <point x="1098.0" y="850.0"/>
      <point x="970.0" y="1128.0"/>
      <point x="609.0" y="1128.0" type="curve"/>
      <point x="317.0" y="1128.0"/>
      <point x="100.0" y="938.0"/>
      <point x="94.0" y="580.0" type="curve" smooth="yes"/>
      <point x="90.0" y="262.0"/>
      <point x="225.0" y="-16.0"/>
    </contour>
  </outline>
</glyph>
<glyph name="Tbar" format="2">
  <advance width="1263.0"/>
  <unicode hex="0166"/>
  <anchor x="631.0" y="0.0" name="bottom"/>
  <anchor x="631.0" y="744.0" name="center"/>
  <anchor x="624.0" y="1660.0" name="top"/>
  <outline>
    <contour>
      <point x="234.0" y="627.0" type="line"/>
      <point x="1037.0" y="627.0" type="line"/>
      <point x="1037.0" y="778.0" type="line"/>
      <point x="234.0" y="778.0" type="line"/>
    </contour>
    <component base="T"/>
  </outline>
</glyph>
<glyph name="Schwa" format="2">
  <advance width="740.0"/>
  <unicode hex="018F"/>
  <anchor x="372.0" y="0.0" name="bottom"/>
  <anchor x="359.0" y="-83.0" name="btm"/>
  <anchor x="355.0" y="831.0" name="top"/>
  <outline>
    <contour>
      <point x="341.0" y="-8.0" type="curve" smooth="yes"/>
      <point x="574.0" y="-8.0"/>
      <point x="693.0" y="140.0"/>
      <point x="693.0" y="372.0" type="curve" smooth="yes"/>
      <point x="693.0" y="625.0"/>
      <point x="542.0" y="753.0"/>
      <point x="360.0" y="752.0" type="curve" smooth="yes"/>
      <point x="238.0" y="751.0"/>
      <point x="141.0" y="716.0"/>
      <point x="84.0" y="661.0" type="curve"/>
      <point x="111.0" y="568.0" type="line"/>
      <point x="167.0" y="625.0"/>
      <point x="249.0" y="659.0"/>
      <point x="358.0" y="659.0" type="curve" smooth="yes"/>
      <point x="485.0" y="659.0"/>
      <point x="577.0" y="557.0"/>
      <point x="577.0" y="381.0" type="curve" smooth="yes"/>
      <point x="577.0" y="213.0"/>
      <point x="506.0" y="82.0"/>
      <point x="354.0" y="82.0" type="curve" smooth="yes"/>
      <point x="200.0" y="82.0"/>
      <point x="153.0" y="203.0"/>
      <point x="159.0" y="313.0" type="curve"/>
      <point x="612.0" y="313.0" type="line"/>
      <point x="625.0" y="406.0" type="line"/>
      <point x="54.0" y="406.0" type="line"/>
      <point x="50.0" y="375.0"/>
      <point x="47.0" y="355.0"/>
      <point x="47.0" y="301.0" type="curve" smooth="yes"/>
      <point x="47.0" y="87.0"/>
      <point x="190.0" y="-8.0"/>
    </contour>
  </outline>
</glyph>
<glyph name="florin" format="2">
  <advance width="1160.0"/>
  <unicode hex="0192"/>
  <outline>
    <contour>
      <point x="296.0" y="-348.0" type="line"/>
      <point x="523.0" y="-348.0" type="line"/>
      <point x="632.0" y="941.0" type="line"/>
      <point x="920.0" y="941.0" type="line"/>
      <point x="933.0" y="1114.0" type="line"/>
      <point x="645.0" y="1114.0" type="line"/>
      <point x="659.0" y="1231.0" type="line" smooth="yes"/>
      <point x="680.0" y="1411.0"/>
      <point x="764.0" y="1463.0"/>
      <point x="865.0" y="1463.0" type="curve" smooth="yes"/>
      <point x="952.0" y="1463.0"/>
      <point x="1006.0" y="1455.0"/>
      <point x="1026.0" y="1444.0" type="curve"/>
      <point x="1039.0" y="1627.0" type="line"/>
      <point x="1024.0" y="1634.0"/>
      <point x="973.0" y="1646.0"/>
      <point x="887.0" y="1646.0" type="curve" smooth="yes"/>
      <point x="664.0" y="1646.0"/>
      <point x="467.0" y="1522.0"/>
      <point x="426.0" y="1179.0" type="curve" smooth="yes"/>
      <point x="418.0" y="1114.0" type="line"/>
      <point x="219.0" y="1063.0" type="line"/>
      <point x="211.0" y="941.0" type="line"/>
      <point x="406.0" y="941.0" type="line"/>
    </contour>
  </outline>
</glyph>
<glyph name="Ezh" format="2">
  <advance width="1134.0"/>
  <unicode hex="01B7"/>
  <anchor x="556.0" y="0.0" name="bottom"/>
  <anchor x="565.0" y="1660.0" name="top"/>
  <outline>
    <contour>
      <point x="348.0" y="-20.0" type="curve" smooth="yes"/>
      <point x="872.0" y="-20.0"/>
      <point x="1070.0" y="208.0"/>
      <point x="1070.0" y="470.0" type="curve" smooth="yes"/>
      <point x="1070.0" y="654.0"/>
      <point x="898.0" y="882.0"/>
      <point x="584.0" y="862.0" type="curve"/>
      <point x="994.0" y="1316.0" type="line"/>
      <point x="998.0" y="1486.0" type="line"/>
      <point x="134.0" y="1486.0" type="line"/>
      <point x="134.0" y="1306.0" type="line"/>
      <point x="744.0" y="1306.0" type="line"/>
      <point x="608.0" y="1186.0" type="line"/>
      <point x="318.0" y="856.0" type="line"/>
      <point x="322.0" y="660.0" type="line"/>
      <point x="374.0" y="692.0"/>
      <point x="448.0" y="710.0"/>
      <point x="522.0" y="710.0" type="curve" smooth="yes"/>
      <point x="668.0" y="710.0"/>
      <point x="816.0" y="642.0"/>
      <point x="816.0" y="470.0" type="curve" smooth="yes"/>
      <point x="816.0" y="268.0"/>
      <point x="634.0" y="148.0"/>
      <point x="288.0" y="148.0" type="curve" smooth="yes"/>
      <point x="250.0" y="148.0"/>
      <point x="176.0" y="158.0"/>
      <point x="116.0" y="170.0" type="curve"/>
      <point x="116.0" y="-2.0" type="line"/>
      <point x="176.0" y="-6.0"/>
      <point x="260.0" y="-20.0"/>
    </contour>
  </outline>
</glyph>
<glyph name="schwa" format="2">
  <advance width="1108.0"/>
  <unicode hex="0259"/>
  <anchor x="518.0" y="-546.0" name="bottom"/>
  <anchor x="514.0" y="-166.0" name="btm"/>
  <anchor x="516.0" y="1662.0" name="top"/>
  <outline>
    <contour>
      <point x="514.0" y="1130.0" type="curve" smooth="yes"/>
      <point x="373.0" y="1130.0"/>
      <point x="206.0" y="1088.0"/>
      <point x="132.0" y="1028.0" type="curve"/>
      <point x="175.0" y="895.0" type="line"/>
      <point x="230.0" y="929.0"/>
      <point x="378.0" y="957.0"/>
      <point x="453.0" y="957.0" type="curve" smooth="yes"/>
      <point x="634.0" y="957.0"/>
      <point x="774.0" y="873.0"/>
      <point x="785.0" y="622.0" type="curve" smooth="yes"/>
      <point x="798.0" y="264.0"/>
      <point x="677.0" y="149.0"/>
      <point x="521.0" y="149.0" type="curve" smooth="yes"/>
      <point x="336.0" y="149.0"/>
      <point x="301.0" y="301.0"/>
      <point x="311.0" y="462.0" type="curve"/>
      <point x="860.0" y="462.0" type="line"/>
      <point x="880.0" y="609.0" type="line"/>
      <point x="104.0" y="609.0" type="line"/>
      <point x="95.0" y="559.0"/>
      <point x="94.0" y="491.0"/>
      <point x="94.0" y="409.0" type="curve" smooth="yes"/>
      <point x="101.0" y="121.0"/>
      <point x="286.0" y="-18.0"/>
      <point x="510.0" y="-14.0" type="curve" smooth="yes"/>
      <point x="839.0" y="-10.0"/>
      <point x="1014.0" y="232.0"/>
      <point x="1014.0" y="556.0" type="curve" smooth="yes"/>
      <point x="1014.0" y="916.0"/>
      <point x="835.0" y="1130.0"/>
    </contour>
  </outline>
</glyph>
<glyph name="ezh" format="2">
  <advance width="473.0"/>
  <unicode hex="0292"/>
  <anchor x="238.0" y="0.0" name="bottom"/>
  <anchor x="227.0" y="831.0" name="top"/>
  <outline>
    <contour>
      <point x="150.0" y="-147.0" type="curve" smooth="yes"/>
      <point x="326.0" y="-147.0"/>
      <point x="429.0" y="-49.0"/>
      <point x="429.0" y="82.0" type="curve" smooth="yes"/>
      <point x="429.0" y="182.0"/>
      <point x="338.0" y="244.0"/>
      <point x="233.0" y="256.0" type="curve"/>
      <point x="427.0" y="500.0" type="line"/>
      <point x="390.0" y="557.0" type="line"/>
      <point x="48.0" y="557.0" type="line"/>
      <point x="48.0" y="470.0" type="line"/>
      <point x="289.0" y="470.0" type="line"/>
      <point x="239.0" y="418.0" type="line"/>
      <point x="99.0" y="240.0" type="line"/>
      <point x="162.0" y="184.0" type="line"/>
      <point x="245.0" y="184.0"/>
      <point x="313.0" y="160.0"/>
      <point x="313.0" y="71.0" type="curve" smooth="yes"/>
      <point x="313.0" y="-8.0"/>
      <point x="243.0" y="-67.0"/>
      <point x="132.0" y="-64.0" type="curve" smooth="yes"/>
      <point x="99.0" y="-63.0"/>
      <point x="77.0" y="-60.0"/>
      <point x="48.0" y="-55.0" type="curve"/>
      <point x="49.0" y="-143.0" type="line"/>
      <point x="82.0" y="-144.0"/>
      <point x="115.0" y="-147.0"/>
    </contour>
  </outline>
</glyph>
<glyph name="apostrophemod" format="2">
  <advance width="586.0"/>
  <unicode hex="02BC"/>
  <outline>
    <contour>
      <point x="222.0" y="934.0" type="line"/>
      <point x="289.0" y="982.0"/>
      <point x="407.0" y="1129.0"/>
      <point x="407.0" y="1373.0" type="curve" smooth="yes"/>
      <point x="407.0" y="1551.0"/>
      <point x="339.0" y="1644.0"/>
      <point x="249.0" y="1684.0" type="curve"/>
      <point x="105.0" y="1577.0" type="line"/>
      <point x="105.0" y="1516.0" type="line"/>
      <point x="146.0" y="1492.0"/>
      <point x="196.0" y="1400.0"/>
      <point x="196.0" y="1293.0" type="curve" smooth="yes"/>
      <point x="196.0" y="1201.0"/>
      <point x="167.0" y="1078.0"/>
      <point x="122.0" y="1028.0" type="curve"/>
      <point x="122.0" y="998.0" type="line"/>
    </contour>
  </outline>
</glyph>
<glyph name="ringhalfright" format="2">
  <unicode hex="02BE"/>
  <anchor x="0.0" y="1660.0" name="_top"/>
  <outline>
    <contour>
      <point x="0.0" y="1294.0" type="line"/>
      <point x="196.0" y="1294.0"/>
      <point x="320.0" y="1401.0"/>
      <point x="318.0" y="1570.0" type="curve" smooth="yes"/>
      <point x="316.0" y="1758.0"/>
      <point x="155.0" y="1832.0"/>
      <point x="0.0" y="1832.0" type="curve"/>
      <point x="0.0" y="1707.0" type="line"/>
      <point x="97.0" y="1707.0"/>
      <point x="161.0" y="1663.0"/>
      <point x="161.0" y="1570.0" type="curve" smooth="yes"/>
      <point x="161.0" y="1460.0"/>
      <point x="115.0" y="1422.0"/>
      <point x="0.0" y="1422.0" type="curve"/>
    </contour>
  </outline>
</glyph>
<glyph name="caron" format="2">
  <advance width="806.0"/>
  <unicode hex="02C7"/>
  <anchor x="414.0" y="1635.0" name="_top"/>
  <outline>
    <contour>
      <point x="45.0" y="1585.0" type="line"/>
      <point x="317.0" y="1252.0" type="line"/>
      <point x="514.0" y="1252.0" type="line"/>
      <point x="778.0" y="1584.0" type="line"/>
      <point x="642.0" y="1645.0" type="line"/>
      <point x="415.0" y="1423.0" type="line"/>
      <point x="173.0" y="1645.0" type="line"/>
    </contour>
  </outline>
</glyph>
<glyph name="verticallinemod" format="2">
  <unicode hex="02C8"/>
  <outline>
    <contour>
      <point x="102.0" y="2080.0" type="line"/>
      <point x="-102.0" y="2080.0" type="line"/>
      <point x="-61.0" y="1330.0" type="line"/>
      <point x="59.0" y="1330.0" type="line"/>
    </contour>
  </outline>
</glyph>
<glyph name="fourthtonechinese" format="2">
  <unicode hex="02CB"/>
  <anchor x="0.0" y="1660.0" name="_top"/>
  <anchor x="0.0" y="1966.0" name="top"/>
  <outline>
    <contour>
      <point x="-12.0" y="1257.0" type="line"/>
      <point x="60.0" y="1286.0"/>
      <point x="317.0" y="1516.0"/>
      <point x="366.0" y="1608.0" type="curve"/>
      <point x="202.0" y="1746.0" type="line"/>
      <point x="108.0" y="1606.0"/>
      <point x="-16.0" y="1472.0"/>
      <point x="-128.0" y="1353.0" type="curve"/>
    </contour>
  </outline>
</glyph>
<glyph name="dotaccent" format="2">
  <advance width="409.0"/>
  <unicode hex="02D9"/>
  <anchor x="206.0" y="1660.0" name="_top"/>
  <outline>
    <contour>
      <point x="194.0" y="1309.0" type="curve" smooth="yes"/>
      <point x="280.0" y="1309.0"/>
      <point x="358.0" y="1375.0"/>
      <point x="358.0" y="1467.0" type="curve" smooth="yes"/>
      <point x="358.0" y="1544.0"/>
      <point x="310.0" y="1605.0"/>
      <point x="215.0" y="1605.0" type="curve" smooth="yes"/>
      <point x="133.0" y="1605.0"/>
      <point x="49.0" y="1534.0"/>
      <point x="49.0" y="1447.0" type="curve" smooth="yes"/>
      <point x="49.0" y="1362.0"/>
      <point x="117.0" y="1309.0"/>
    </contour>
  </outline>
</glyph>
<glyph name="ring" format="2">
  <advance width="720.0"/>
  <unicode hex="02DA"/>
  <anchor x="360.0" y="1660.0" name="_top"/>
  <outline>
    <contour>
      <point x="357.0" y="1294.0" type="curve" smooth="yes"/>
      <point x="526.0" y="1294.0"/>
      <point x="675.0" y="1380.0"/>
      <point x="677.0" y="1568.0" type="curve" smooth="yes"/>
      <point x="677.0" y="1738.0"/>
      <point x="553.0" y="1832.0"/>
      <point x="360.0" y="1832.0" type="curve" smooth="yes"/>
      <point x="206.0" y="1832.0"/>
      <point x="46.0" y="1758.0"/>
      <point x="44.0" y="1570.0" type="curve" smooth="yes"/>
      <point x="41.0" y="1402.0"/>
      <point x="165.0" y="1294.0"/>
    </contour>
    <contour>
      <point x="358.0" y="1422.0" type="curve" smooth="yes"/>
      <point x="261.0" y="1424.0"/>
      <point x="200.0" y="1483.0"/>
      <point x="200.0" y="1570.0" type="curve" smooth="yes"/>
      <point x="200.0" y="1675.0"/>
      <point x="279.0" y="1707.0"/>
      <point x="358.0" y="1707.0" type="curve" smooth="yes"/>
      <point x="450.0" y="1707.0"/>
      <point x="522.0" y="1657.0"/>
      <point x="522.0" y="1567.0" type="curve" smooth="yes"/>
      <point x="522.0" y="1462.0"/>
      <point x="454.0" y="1420.0"/>
    </contour>
  </outline>
</glyph>
<glyph name="ogonek" format="2">
  <advance width="628.0"/>
  <unicode hex="02DB"/>
  <outline>
    <contour>
      <point x="298.0" y="-500.0" type="curve" smooth="yes"/>
      <point x="428.0" y="-500.0"/>
      <point x="518.0" y="-460.0"/>
      <point x="569.0" y="-427.0" type="curve"/>
      <point x="552.0" y="-309.0" type="line"/>
      <point x="520.0" y="-322.0"/>
      <point x="444.0" y="-353.0"/>
      <point x="375.0" y="-353.0" type="curve" smooth="yes"/>
      <point x="293.0" y="-353.0"/>
      <point x="251.0" y="-322.0"/>
      <point x="251.0" y="-255.0" type="curve" smooth="yes"/>
      <point x="248.0" y="-157.0"/>
      <point x="388.0" y="-42.0"/>
      <point x="504.0" y="6.0" type="curve"/>
      <point x="404.0" y="8.0" type="line"/>
      <point x="303.0" y="-3.0" type="line"/>
      <point x="174.0" y="-62.0"/>
      <point x="49.0" y="-174.0"/>
      <point x="52.0" y="-299.0" type="curve" smooth="yes"/>
      <point x="54.0" y="-429.0"/>
      <point x="173.0" y="-501.0"/>
    </contour>
  </outline>
</glyph>
<glyph name="gravecomb" format="2">
  <unicode hex="0300"/>
  <anchor x="0.0" y="1660.0" name="_top"/>
  <anchor x="-138.0" y="1746.0" name="top"/>
  <outline>
    <contour>
      <point x="90.0" y="1346.0" type="line"/>
      <point x="-20.0" y="1468.0"/>
      <point x="-152.0" y="1616.0"/>
      <point x="-240.0" y="1740.0" type="curve"/>
      <point x="-385.0" y="1608.0" type="line"/>
      <point x="-319.0" y="1500.0"/>
      <point x="-85.0" y="1293.0"/>
      <point x="-5.0" y="1257.0" type="curve"/>
    </contour>
  </outline>
</glyph>
<glyph name="acutecomb" format="2">
  <unicode hex="0301"/>
  <anchor x="0.0" y="1660.0" name="_top"/>
  <anchor x="-176.0" y="1966.0" name="top"/>
  <outline>
    <contour>
      <point x="-58.0" y="1298.0" type="line"/>
      <point x="14.0" y="1328.0"/>
      <point x="268.0" y="1582.0"/>
      <point x="318.0" y="1672.0" type="curve"/>
      <point x="154.0" y="1804.0" type="line"/>
      <point x="60.0" y="1664.0"/>
      <point x="-62.0" y="1514.0"/>
      <point x="-174.0" y="1394.0" type="curve"/>
    </contour>
  </outline>
</glyph>
<glyph name="circumflexcomb" format="2">
  <unicode hex="0302"/>
  <anchor x="0.0" y="1660.0" name="_top"/>
  <anchor x="0.0" y="2114.0" name="top"/>
  <outline>
    <contour>
      <point x="-256.0" y="1241.0" type="line"/>
      <point x="0.0" y="1457.0" type="line"/>
      <point x="246.0" y="1242.0" type="line"/>
      <point x="366.0" y="1301.0" type="line"/>
      <point x="95.0" y="1643.0" type="line"/>
      <point x="-86.0" y="1643.0" type="line"/>
      <point x="-366.0" y="1301.0" type="line"/>
    </contour>
  </outline>
</glyph>
<glyph name="macroncomb" format="2">
  <unicode hex="0304"/>
  <anchor x="0.0" y="1660.0" name="_top"/>
  <anchor x="0.0" y="1992.0" name="top"/>
  <outline>
    <contour>
      <point x="-270.0" y="1320.0" type="line"/>
      <point x="273.0" y="1320.0" type="line"/>
      <point x="273.0" y="1486.0" type="line"/>
      <point x="-270.0" y="1486.0" type="line"/>
    </contour>
  </outline>
</glyph>
<glyph name="brevecomb" format="2">
  <unicode hex="0306"/>
  <anchor x="0.0" y="1660.0" name="_top"/>
  <anchor x="0.0" y="1966.0" name="top"/>
  <outline>
    <contour>
      <point x="0.0" y="1276.0" type="curve" smooth="yes"/>
      <point x="213.0" y="1276.0"/>
      <point x="354.0" y="1456.0"/>
      <point x="340.0" y="1646.0" type="curve"/>
      <point x="186.0" y="1646.0" type="line"/>
      <point x="183.0" y="1617.0"/>
      <point x="181.0" y="1452.0"/>
      <point x="2.0" y="1452.0" type="curve" smooth="yes"/>
      <point x="-178.0" y="1452.0"/>
      <point x="-178.0" y="1617.0"/>
      <point x="-180.0" y="1646.0" type="curve"/>
      <point x="-338.0" y="1646.0" type="line"/>
      <point x="-352.0" y="1456.0"/>
      <point x="-223.0" y="1276.0"/>
    </contour>
  </outline>
</glyph>
<glyph name="dotaccentcomb" format="2">
  <unicode hex="0307"/>
  <anchor x="0.0" y="1660.0" name="_top"/>
  <anchor x="0.0" y="2016.0" name="top"/>
  <outline>
    <contour>
      <point x="-10.0" y="1294.0" type="curve" smooth="yes"/>
      <point x="76.0" y="1294.0"/>
      <point x="154.0" y="1360.0"/>
      <point x="154.0" y="1452.0" type="curve" smooth="yes"/>
      <point x="154.0" y="1529.0"/>
      <point x="106.0" y="1590.0"/>
      <point x="11.0" y="1590.0" type="curve" smooth="yes"/>
      <point x="-71.0" y="1590.0"/>
      <point x="-155.0" y="1519.0"/>
      <point x="-155.0" y="1432.0" type="curve" smooth="yes"/>
      <point x="-155.0" y="1347.0"/>
      <point x="-87.0" y="1294.0"/>
    </contour>
  </outline>
</glyph>
<glyph name="hookabovecomb" format="2">
  <unicode hex="0309"/>
  <anchor x="0.0" y="830.0" name="_top"/>
  <anchor x="0.0" y="983.0" name="top"/>
  <outline>
    <contour>
      <point x="-29.0" y="639.0" type="curve"/>
      <point x="30.0" y="639.0" type="line"/>
      <point x="22.0" y="665.0"/>
      <point x="33.0" y="691.0"/>
      <point x="43.0" y="700.0" type="curve" smooth="yes"/>
      <point x="70.0" y="724.0"/>
      <point x="103.0" y="741.0"/>
      <point x="103.0" y="794.0" type="curve" smooth="yes"/>
      <point x="103.0" y="852.0"/>
      <point x="55.0" y="888.0"/>
      <point x="-15.0" y="888.0" type="curve" smooth="yes"/>
      <point x="-42.0" y="888.0"/>
      <point x="-81.0" y="882.0"/>
      <point x="-103.0" y="868.0" type="curve"/>
      <point x="-101.0" y="803.0" type="line"/>
      <point x="-89.0" y="810.0"/>
      <point x="-61.0" y="819.0"/>
      <point x="-38.0" y="819.0" type="curve" smooth="yes"/>
      <point x="-3.0" y="819.0"/>
      <point x="17.0" y="806.0"/>
      <point x="17.0" y="779.0" type="curve"/>
      <point x="17.0" y="737.0"/>
      <point x="-41.0" y="735.0"/>
      <point x="-41.0" y="684.0" type="curve" smooth="yes"/>
      <point x="-41.0" y="666.0"/>
      <point x="-35.0" y="653.0"/>
    </contour>
  </outline>
</glyph>
<glyph name="hungarumlautcomb" format="2">
  <unicode hex="030B"/>
  <anchor x="0.0" y="1635.0" name="_top"/>
  <anchor x="93.0" y="1760.0" name="top"/>
  <outline>
    <contour>
      <point x="-258.0" y="1288.0" type="line"/>
      <point x="-181.0" y="1339.0"/>
      <point x="-5.0" y="1544.0"/>
      <point x="56.0" y="1647.0" type="curve"/>
      <point x="-108.0" y="1760.0" type="line"/>
      <point x="-193.0" y="1628.0"/>
      <point x="-278.0" y="1494.0"/>
      <point x="-362.0" y="1362.0" type="curve"/>
    </contour>
    <contour>
      <point x="229.0" y="1288.0" type="line"/>
      <point x="312.0" y="1334.0"/>
      <point x="495.0" y="1544.0"/>
      <point x="548.0" y="1640.0" type="curve"/>
      <point x="390.0" y="1753.0" type="line"/>
      <point x="302.0" y="1622.0"/>
      <point x="215.0" y="1492.0"/>
      <point x="127.0" y="1362.0" type="curve"/>
    </contour>
  </outline>
</glyph>
<glyph name="dblgravecomb" format="2">
  <unicode hex="030F"/>
  <anchor x="0.0" y="1635.0" name="_top"/>
  <anchor x="-112.0" y="1966.0" name="top"/>
  <outline>
    <contour>
      <point x="269.0" y="1288.0" type="curve"/>
      <point x="373.0" y="1362.0" type="line"/>
      <point x="289.0" y="1494.0"/>
      <point x="204.0" y="1628.0"/>
      <point x="119.0" y="1760.0" type="curve"/>
      <point x="-46.0" y="1647.0" type="line"/>
      <point x="14.0" y="1544.0"/>
      <point x="192.0" y="1339.0"/>
    </contour>
    <contour>
      <point x="-220.0" y="1288.0" type="curve"/>
      <point x="-118.0" y="1362.0" type="line"/>
      <point x="-205.0" y="1492.0"/>
      <point x="-293.0" y="1622.0"/>
      <point x="-379.0" y="1753.0" type="curve"/>
      <point x="-538.0" y="1640.0" type="line"/>
      <point x="-484.0" y="1544.0"/>
      <point x="-302.0" y="1334.0"/>
    </contour>
  </outline>
</glyph>
<glyph name="breveinvertedcomb" format="2">
  <unicode hex="0311"/>
  <anchor x="0.0" y="1660.0" name="_top"/>
  <anchor x="0.0" y="1966.0" name="top"/>
  <outline>
    <contour>
      <point x="0.0" y="1646.0" type="curve" smooth="yes"/>
      <point x="-223.0" y="1646.0"/>
      <point x="-352.0" y="1466.0"/>
      <point x="-338.0" y="1276.0" type="curve"/>
      <point x="-180.0" y="1276.0" type="line"/>
      <point x="-178.0" y="1305.0"/>
      <point x="-178.0" y="1470.0"/>
      <point x="2.0" y="1470.0" type="curve" smooth="yes"/>
      <point x="181.0" y="1470.0"/>
      <point x="183.0" y="1305.0"/>
      <point x="186.0" y="1276.0" type="curve"/>
      <point x="340.0" y="1276.0" type="line"/>
      <point x="354.0" y="1466.0"/>
      <point x="213.0" y="1646.0"/>
    </contour>
  </outline>
</glyph>
<glyph name="horncomb" format="2">
  <unicode hex="031B"/>
  <anchor x="0.0" y="1114.0" name="_topright"/>
  <anchor x="172.0" y="1114.0" name="topright"/>
  <outline>
    <contour>
      <point x="-24.0" y="980.0" type="line"/>
      <point x="188.0" y="980.0"/>
      <point x="378.0" y="1132.0"/>
      <point x="378.0" y="1324.0" type="curve" smooth="yes"/>
      <point x="378.0" y="1338.0"/>
      <point x="376.0" y="1352.0"/>
      <point x="374.0" y="1368.0" type="curve"/>
      <point x="218.0" y="1368.0" type="line"/>
      <point x="220.0" y="1360.0"/>
      <point x="218.0" y="1348.0"/>
      <point x="216.0" y="1334.0" type="curve" smooth="yes"/>
      <point x="204.0" y="1252.0"/>
      <point x="158.0" y="1114.0"/>
      <point x="-24.0" y="1114.0" type="curve"/>
    </contour>
  </outline>
</glyph>
<glyph name="dotbelowcomb" format="2">
  <unicode hex="0323"/>
  <anchor x="-1.0" y="0.0" name="_bottom"/>
  <anchor x="0.0" y="-166.0" name="_btm"/>
  <anchor x="-1.0" y="-430.0" name="bottom"/>
  <outline>
    <contour>
      <point x="-10.0" y="-450.0" type="curve" smooth="yes"/>
      <point x="76.0" y="-450.0"/>
      <point x="154.0" y="-384.0"/>
      <point x="154.0" y="-292.0" type="curve" smooth="yes"/>
      <point x="154.0" y="-214.0"/>
      <point x="106.0" y="-154.0"/>
      <point x="10.0" y="-154.0" type="curve" smooth="yes"/>
      <point x="-72.0" y="-154.0"/>
      <point x="-156.0" y="-226.0"/>
      <point x="-156.0" y="-312.0" type="curve" smooth="yes"/>
      <point x="-156.0" y="-396.0"/>
      <point x="-88.0" y="-450.0"/>
    </contour>
  </outline>
</glyph>
<glyph name="ogonekcomb" format="2">
  <unicode hex="0328"/>
  <anchor x="372.0" y="0.0" name="_ogonek"/>
  <outline>
    <contour>
      <point x="218.0" y="-500.0" type="curve" smooth="yes"/>
      <point x="350.0" y="-500.0"/>
      <point x="438.0" y="-460.0"/>
      <point x="490.0" y="-428.0" type="curve"/>
      <point x="474.0" y="-308.0" type="line"/>
      <point x="440.0" y="-322.0"/>
      <point x="364.0" y="-354.0"/>
      <point x="296.0" y="-354.0" type="curve" smooth="yes"/>
      <point x="214.0" y="-354.0"/>
      <point x="172.0" y="-322.0"/>
      <point x="172.0" y="-254.0" type="curve" smooth="yes"/>
      <point x="172.0" y="-156.0"/>
      <point x="308.0" y="-42.0"/>
      <point x="424.0" y="6.0" type="curve"/>
      <point x="304.0" y="22.0" type="line"/>
      <point x="224.0" y="0.0" type="line"/>
      <point x="96.0" y="-60.0"/>
      <point x="-30.0" y="-174.0"/>
      <point x="-28.0" y="-298.0" type="curve" smooth="yes"/>
      <point x="-26.0" y="-428.0"/>
      <point x="94.0" y="-500.0"/>
    </contour>
  </outline>
</glyph>
<glyph name="brevebelowcomb" format="2">
  <unicode hex="032E"/>
  <anchor x="0.0" y="0.0" name="_bottom"/>
  <anchor x="0.0" y="-166.0" name="_btm"/>
  <anchor x="0.0" y="-464.0" name="bottom"/>
  <outline>
    <contour>
      <point x="0.0" y="-464.0" type="curve" smooth="yes"/>
      <point x="213.0" y="-464.0"/>
      <point x="354.0" y="-284.0"/>
      <point x="340.0" y="-94.0" type="curve"/>
      <point x="186.0" y="-94.0" type="line"/>
      <point x="183.0" y="-123.0"/>
      <point x="181.0" y="-288.0"/>
      <point x="2.0" y="-288.0" type="curve" smooth="yes"/>
      <point x="-178.0" y="-288.0"/>
      <point x="-178.0" y="-123.0"/>
      <point x="-180.0" y="-94.0" type="curve"/>
      <point x="-338.0" y="-94.0" type="line"/>
      <point x="-352.0" y="-284.0"/>
      <point x="-223.0" y="-464.0"/>
    </contour>
  </outline>
</glyph>
<glyph name="strokeshortcomb" format="2">
  <unicode hex="0335"/>
  <anchor x="0.0" y="558.0" name="_center"/>
  <outline>
    <contour>
      <point x="410.0" y="680.0" type="line"/>
      <point x="-410.0" y="680.0" type="line"/>
      <point x="-410.0" y="436.0" type="line"/>
      <point x="410.0" y="436.0" type="line"/>
    </contour>
  </outline>
</glyph>
<glyph name="slashlongcomb" format="2">
  <unicode hex="0338"/>
  <anchor x="0.0" y="702.0" name="_center"/>
  <outline>
    <contour>
      <point x="288.0" y="1606.0" type="line"/>
      <point x="-474.0" y="-202.0" type="line"/>
      <point x="-284.0" y="-202.0" type="line"/>
      <point x="474.0" y="1606.0" type="line"/>
    </contour>
  </outline>
</glyph>
<glyph name="pi" format="2">
  <advance width="1527.0"/>
  <unicode hex="03C0"/>
  <outline>
    <contour>
      <point x="109.0" y="891.0" type="curve"/>
      <point x="218.0" y="835.0" type="line"/>
      <point x="253.0" y="872.0"/>
      <point x="304.0" y="922.0"/>
      <point x="397.0" y="922.0" type="curve" smooth="yes"/>
      <point x="1140.0" y="920.0" type="line" smooth="yes"/>
      <point x="1321.0" y="920.0"/>
      <point x="1421.0" y="994.0"/>
      <point x="1431.0" y="1186.0" type="curve"/>
      <point x="1284.0" y="1186.0" type="line"/>
      <point x="1266.0" y="1134.0"/>
      <point x="1224.0" y="1114.0"/>
      <point x="1144.0" y="1114.0" type="curve" smooth="yes"/>
      <point x="431.0" y="1114.0" type="line" smooth="yes"/>
      <point x="291.0" y="1114.0"/>
      <point x="209.0" y="1080.0"/>
      <point x="157.0" y="1008.0" type="curve" smooth="yes"/>
      <point x="132.0" y="974.0"/>
      <point x="111.0" y="916.0"/>
    </contour>
    <contour>
      <point x="900.0" y="249.0" type="line"/>
      <point x="889.0" y="83.0"/>
      <point x="949.0" y="-24.0"/>
      <point x="1103.0" y="-24.0" type="curve" smooth="yes"/>
      <point x="1276.0" y="-24.0"/>
      <point x="1408.0" y="106.0"/>
      <point x="1432.0" y="226.0" type="curve"/>
      <point x="1326.0" y="286.0" type="line"/>
      <point x="1297.0" y="233.0"/>
      <point x="1234.0" y="154.0"/>
      <point x="1172.0" y="154.0" type="curve" smooth="yes"/>
      <point x="1135.0" y="154.0"/>
      <point x="1102.0" y="179.0"/>
      <point x="1106.0" y="263.0" type="curve" smooth="yes"/>
      <point x="1140.0" y="1058.0" type="line"/>
      <point x="958.0" y="1056.0" type="line"/>
    </contour>
    <contour>
      <point x="170.0" y="97.0" type="curve"/>
      <point x="308.0" y="-24.0" type="line"/>
      <point x="369.0" y="-11.0"/>
      <point x="423.0" y="16.0"/>
      <point x="461.0" y="50.0" type="curve" smooth="yes"/>
      <point x="549.0" y="132.0"/>
      <point x="605.0" y="196.0"/>
      <point x="617.0" y="418.0" type="curve" smooth="yes"/>
      <point x="651.0" y="1056.0" type="line"/>
      <point x="463.0" y="1056.0" type="line"/>
      <point x="416.0" y="476.0" type="line" smooth="yes"/>
      <point x="404.0" y="338.0"/>
      <point x="391.0" y="236.0"/>
      <point x="285.0" y="159.0" type="curve" smooth="yes"/>
      <point x="237.0" y="124.0"/>
      <point x="188.0" y="101.0"/>
    </contour>
  </outline>
</glyph>
<glyph name="dram-arm" format="2">
  <advance width="839.0"/>
  <unicode hex="058F"/>
  <anchor x="342.0" y="-83.0" name="btm"/>
  <anchor x="343.0" y="830.0" name="top"/>
  <outline>
    <contour>
      <point x="340.0" y="743.0" type="curve" smooth="yes"/>
      <point x="142.0" y="743.0"/>
      <point x="53.0" y="625.0"/>
      <point x="54.0" y="424.0" type="curve" smooth="yes"/>
      <point x="54.0" y="365.0" type="line"/>
      <point x="171.0" y="365.0" type="line"/>
      <point x="170.0" y="401.0" type="line" smooth="yes"/>
      <point x="165.0" y="601.0"/>
      <point x="233.0" y="651.0"/>
      <point x="344.0" y="651.0" type="curve" smooth="yes"/>
      <point x="443.0" y="651.0"/>
      <point x="504.0" y="599.0"/>
      <point x="504.0" y="401.0" type="curve" smooth="yes"/>
      <point x="504.0" y="-8.0" type="line"/>
      <point x="620.0" y="-8.0" type="line"/>
      <point x="620.0" y="426.0" type="line" smooth="yes"/>
      <point x="620.0" y="630.0"/>
      <point x="529.0" y="743.0"/>
    </contour>
    <contour>
      <point x="332.0" y="299.0" type="line"/>
      <point x="774.0" y="299.0" type="line"/>
      <point x="774.0" y="373.0" type="line"/>
      <point x="332.0" y="373.0" type="line"/>
    </contour>
    <contour>
      <point x="317.0" y="116.0" type="line"/>
      <point x="756.0" y="116.0" type="line"/>
      <point x="756.0" y="190.0" type="line"/>
      <point x="317.0" y="190.0" type="line"/>
    </contour>
  </outline>
</glyph>
<glyph name="Germandbls" format="2">
  <advance width="1464.0"/>
  <unicode hex="1E9E"/>
  <anchor x="732.0" y="0.0" name="bottom"/>
  <anchor x="732.0" y="1486.0" name="top"/>
  <outline>
    <contour>
      <point x="102.0" y="0.0" type="line"/>
      <point x="345.0" y="0.0" type="line"/>
      <point x="345.0" y="848.0" type="line" smooth="yes"/>
      <point x="345.0" y="1175.0"/>
      <point x="540.0" y="1330.0"/>
      <point x="792.0" y="1330.0" type="curve" smooth="yes"/>
      <point x="875.0" y="1330.0"/>
      <point x="951.0" y="1309.0"/>
      <point x="1000.0" y="1273.0" type="curve"/>
      <point x="749.0" y="854.0" type="line"/>
      <point x="739.0" y="759.0" type="line"/>
      <point x="1053.0" y="759.0"/>
      <point x="1160.0" y="676.0"/>
      <point x="1160.0" y="451.0" type="curve" smooth="yes"/>
      <point x="1160.0" y="250.0"/>
      <point x="1021.0" y="157.0"/>
      <point x="884.0" y="157.0" type="curve" smooth="yes"/>
      <point x="781.0" y="157.0"/>
      <point x="665.0" y="197.0"/>
      <point x="619.0" y="241.0" type="curve"/>
      <point x="538.0" y="61.0" type="line"/>
      <point x="613.0" y="16.0"/>
      <point x="710.0" y="-22.0"/>
      <point x="918.0" y="-22.0" type="curve" smooth="yes"/>
      <point x="1228.0" y="-22.0"/>
      <point x="1395.0" y="201.0"/>
      <point x="1395.0" y="456.0" type="curve" smooth="yes"/>
      <point x="1395.0" y="753.0"/>
      <point x="1203.0" y="892.0"/>
      <point x="1007.0" y="892.0" type="curve"/>
      <point x="1260.0" y="1288.0" type="line"/>
      <point x="1262.0" y="1411.0" type="line"/>
      <point x="1162.0" y="1411.0"/>
      <point x="1050.0" y="1502.0"/>
      <point x="786.0" y="1502.0" type="curve" smooth="yes"/>
      <point x="327.0" y="1502.0"/>
      <point x="102.0" y="1210.0"/>
      <point x="102.0" y="736.0" type="curve" smooth="yes"/>
    </contour>
  </outline>
</glyph>
<glyph name="quoteleft" format="2">
  <advance width="515.0"/>
  <unicode hex="2018"/>
  <outline>
    <contour>
      <point x="292.0" y="934.0" type="curve"/>
      <point x="413.0" y="1058.0" type="line"/>
      <point x="413.0" y="1120.0" type="line"/>
      <point x="363.0" y="1143.0"/>
      <point x="306.0" y="1231.0"/>
      <point x="306.0" y="1334.0" type="curve" smooth="yes"/>
      <point x="306.0" y="1426.0"/>
      <point x="341.0" y="1550.0"/>
      <point x="397.0" y="1599.0" type="curve"/>
      <point x="397.0" y="1629.0" type="line"/>
      <point x="297.0" y="1693.0" type="line"/>
      <point x="223.0" y="1645.0"/>
      <point x="95.0" y="1495.0"/>
      <point x="95.0" y="1287.0" type="curve" smooth="yes"/>
      <point x="95.0" y="1109.0"/>
      <point x="179.0" y="975.0"/>
    </contour>
  </outline>
</glyph>
<glyph name="ellipsis" format="2">
  <advance width="1975.0"/>
  <unicode hex="2026"/>
  <outline>
    <contour>
      <point x="322.0" y="-22.0" type="curve" smooth="yes"/>
      <point x="411.0" y="-22.0"/>
      <point x="489.0" y="56.0"/>
      <point x="487.0" y="156.0" type="curve" smooth="yes"/>
      <point x="486.0" y="239.0"/>
      <point x="433.0" y="310.0"/>
      <point x="337.0" y="310.0" type="curve" smooth="yes"/>
      <point x="250.0" y="310.0"/>
      <point x="170.0" y="230.0"/>
      <point x="172.0" y="133.0" type="curve" smooth="yes"/>
      <point x="175.0" y="45.0"/>
      <point x="241.0" y="-22.0"/>
    </contour>
    <contour>
      <point x="980.0" y="-22.0" type="curve" smooth="yes"/>
      <point x="1068.0" y="-22.0"/>
      <point x="1147.0" y="56.0"/>
      <point x="1145.0" y="156.0" type="curve" smooth="yes"/>
      <point x="1143.0" y="239.0"/>
      <point x="1091.0" y="310.0"/>
      <point x="994.0" y="310.0" type="curve" smooth="yes"/>
      <point x="909.0" y="310.0"/>
      <point x="827.0" y="230.0"/>
      <point x="830.0" y="133.0" type="curve" smooth="yes"/>
      <point x="832.0" y="45.0"/>
      <point x="899.0" y="-22.0"/>
    </contour>
    <contour>
      <point x="1637.0" y="-22.0" type="curve" smooth="yes"/>
      <point x="1725.0" y="-22.0"/>
      <point x="1804.0" y="56.0"/>
      <point x="1802.0" y="156.0" type="curve" smooth="yes"/>
      <point x="1800.0" y="239.0"/>
      <point x="1749.0" y="310.0"/>
      <point x="1651.0" y="310.0" type="curve" smooth="yes"/>
      <point x="1566.0" y="310.0"/>
      <point x="1484.0" y="230.0"/>
      <point x="1488.0" y="133.0" type="curve" smooth="yes"/>
      <point x="1489.0" y="45.0"/>
      <point x="1557.0" y="-22.0"/>
    </contour>
  </outline>
</glyph>
<glyph name="perthousand" format="2">
  <advance width="2788.0"/>
  <unicode hex="2030"/>
  <outline>
    <contour>
      <point x="2329.0" y="43.0" type="curve" smooth="yes"/>
      <point x="2528.0" y="47.0"/>
      <point x="2711.0" y="191.0"/>
      <point x="2711.0" y="457.0" type="curve" smooth="yes"/>
      <point x="2711.0" y="684.0"/>
      <point x="2603.0" y="870.0"/>
      <point x="2358.0" y="865.0" type="curve" smooth="yes"/>
      <point x="2158.0" y="860.0"/>
      <point x="1976.0" y="713.0"/>
      <point x="1976.0" y="449.0" type="curve" smooth="yes"/>
      <point x="1976.0" y="228.0"/>
      <point x="2102.0" y="38.0"/>
    </contour>
    <contour>
      <point x="2342.0" y="194.0" type="curve" smooth="yes"/>
      <point x="2237.0" y="194.0"/>
      <point x="2175.0" y="306.0"/>
      <point x="2175.0" y="458.0" type="curve" smooth="yes"/>
      <point x="2175.0" y="616.0"/>
      <point x="2237.0" y="714.0"/>
      <point x="2346.0" y="714.0" type="curve" smooth="yes"/>
      <point x="2450.0" y="714.0"/>
      <point x="2510.0" y="609.0"/>
      <point x="2510.0" y="449.0" type="curve" smooth="yes"/>
      <point x="2510.0" y="291.0"/>
      <point x="2450.0" y="194.0"/>
    </contour>
    <component base="percent"/>
  </outline>
</glyph>
<glyph name="guilsinglleft" format="2">
  <advance width="1178.0"/>
  <unicode hex="2039"/>
  <outline>
    <contour>
      <point x="238.0" y="501.0" type="line"/>
      <point x="868.0" y="97.0" type="line"/>
      <point x="926.0" y="261.0" type="line"/>
      <point x="406.0" y="642.0" type="line"/>
      <point x="406.0" y="558.0" type="line"/>
      <point x="926.0" y="943.0" type="line"/>
      <point x="868.0" y="1110.0" type="line"/>
      <point x="238.0" y="692.0" type="line"/>
    </contour>
  </outline>
</glyph>
<glyph name="fraction" format="2">
  <advance width="588.0"/>
  <unicode hex="2044"/>
  <outline>
    <contour>
      <point x="698.0" y="1916.0" type="line"/>
      <point x="-280.0" y="-102.0" type="line"/>
      <point x="-110.0" y="-102.0" type="line"/>
      <point x="868.0" y="1916.0" type="line"/>
    </contour>
  </outline>
</glyph>
<glyph name="franc" format="2">
  <advance width="1300.0"/>
  <unicode hex="20A3"/>
  <outline>
    <contour>
      <point x="108.0" y="234.0" type="line"/>
      <point x="302.0" y="234.0" type="line"/>
      <point x="302.0" y="0.0" type="line"/>
      <point x="552.0" y="0.0" type="line"/>
      <point x="552.0" y="234.0" type="line"/>
      <point x="800.0" y="234.0" type="line"/>
      <point x="800.0" y="398.0" type="line"/>
      <point x="552.0" y="398.0" type="line"/>
      <point x="552.0" y="644.0" type="line"/>
      <point x="1018.0" y="644.0" type="line"/>
      <point x="1018.0" y="834.0" type="line"/>
      <point x="552.0" y="834.0" type="line"/>
      <point x="552.0" y="1296.0" type="line"/>
      <point x="1170.0" y="1296.0" type="line"/>
      <point x="1170.0" y="1486.0" type="line"/>
      <point x="302.0" y="1486.0" type="line"/>
      <point x="302.0" y="398.0" type="line"/>
      <point x="108.0" y="398.0" type="line"/>
    </contour>
  </outline>
</glyph>
<glyph name="naira" format="2">
  <advance width="1770.0"/>
  <unicode hex="20A6"/>
  <anchor x="848.0" y="0.0" name="bottom"/>
  <anchor x="814.0" y="-166.0" name="btm"/>
  <anchor x="860.0" y="1660.0" name="top"/>
  <outline>
    <contour>
      <point x="120.0" y="342.0" type="line"/>
      <point x="478.0" y="342.0" type="line"/>
      <point x="476.0" y="524.0" type="line"/>
      <point x="118.0" y="524.0" type="line"/>
    </contour>
    <contour>
      <point x="464.0" y="1114.0" type="line"/>
      <point x="108.0" y="1114.0" type="line"/>
      <point x="110.0" y="934.0" type="line"/>
      <point x="466.0" y="934.0" type="line"/>
    </contour>
    <contour>
      <point x="1282.0" y="340.0" type="line"/>
      <point x="1640.0" y="340.0" type="line"/>
      <point x="1638.0" y="522.0" type="line"/>
      <point x="1280.0" y="522.0" type="line"/>
    </contour>
    <contour>
      <point x="1626.0" y="1112.0" type="line"/>
      <point x="1270.0" y="1112.0" type="line"/>
      <point x="1272.0" y="932.0" type="line"/>
      <point x="1628.0" y="932.0" type="line"/>
    </contour>
    <component base="N" xOffset="94.0"/>
  </outline>
</glyph>
<glyph name="peseta" format="2">
  <advance width="846.0"/>
  <unicode hex="20A7"/>
  <outline>
    <contour>
      <point x="179.0" y="0.0" type="line"/>
      <point x="297.0" y="0.0" type="line"/>
      <point x="297.0" y="161.0" type="line"/>
      <point x="315.0" y="161.0"/>
      <point x="344.0" y="160.0"/>
      <point x="391.0" y="160.0" type="curve" smooth="yes"/>
      <point x="577.0" y="160.0"/>
      <point x="677.0" y="295.0"/>
      <point x="677.0" y="457.0" type="curve" smooth="yes"/>
      <point x="677.0" y="629.0"/>
      <point x="578.0" y="751.0"/>
      <point x="416.0" y="751.0" type="curve" smooth="yes"/>
      <point x="349.0" y="751.0"/>
      <point x="291.0" y="743.0"/>
      <point x="230.0" y="743.0" type="curve" smooth="yes"/>
      <point x="179.0" y="743.0" type="line"/>
    </contour>
    <contour>
      <point x="297.0" y="251.0" type="curve"/>
      <point x="297.0" y="658.0" type="line"/>
      <point x="323.0" y="664.0"/>
      <point x="354.0" y="666.0"/>
      <point x="383.0" y="667.0" type="curve" smooth="yes"/>
      <point x="498.0" y="671.0"/>
      <point x="561.0" y="571.0"/>
      <point x="561.0" y="457.0" type="curve" smooth="yes"/>
      <point x="561.0" y="315.0"/>
      <point x="477.0" y="246.0"/>
      <point x="384.0" y="246.0" type="curve" smooth="yes"/>
      <point x="357.0" y="246.0"/>
      <point x="327.0" y="247.0"/>
    </contour>
    <contour>
      <point x="90.0" y="421.0" type="line"/>
      <point x="776.0" y="421.0" type="line"/>
      <point x="776.0" y="493.0" type="line"/>
      <point x="90.0" y="493.0" type="line"/>
    </contour>
  </outline>
</glyph>
<glyph name="won" format="2">
  <advance width="2322.0"/>
  <unicode hex="20A9"/>
  <anchor x="1163.0" y="0.0" name="bottom"/>
  <anchor x="1159.0" y="-166.0" name="btm"/>
  <anchor x="1159.0" y="1660.0" name="top"/>
  <outline>
    <contour>
      <point x="276.0" y="342.0" type="line"/>
      <point x="634.0" y="342.0" type="line"/>
      <point x="632.0" y="528.0" type="line"/>
      <point x="274.0" y="528.0" type="line"/>
    </contour>
    <contour>
      <point x="520.0" y="1114.0" type="line"/>
      <point x="180.0" y="1114.0" type="line"/>
      <point x="182.0" y="930.0" type="line"/>
      <point x="522.0" y="930.0" type="line"/>
    </contour>
    <contour>
      <point x="1686.0" y="340.0" type="line"/>
      <point x="2044.0" y="340.0" type="line"/>
      <point x="2042.0" y="526.0" type="line"/>
      <point x="1684.0" y="526.0" type="line"/>
    </contour>
    <contour>
      <point x="2140.0" y="1112.0" type="line"/>
      <point x="1816.0" y="1112.0" type="line"/>
      <point x="1818.0" y="928.0" type="line"/>
      <point x="2142.0" y="928.0" type="line"/>
    </contour>
    <component base="W" xOffset="220.0"/>
  </outline>
</glyph>
<glyph name="sheqel" format="2">
  <advance width="861.0"/>
  <unicode hex="20AA"/>
  <outline>
    <contour>
      <point x="480.0" y="0.0" type="curve" smooth="yes"/>
      <point x="751.0" y="0.0" type="line"/>
      <point x="751.0" y="743.0" type="line"/>
      <point x="660.0" y="743.0" type="line"/>
      <point x="660.0" y="88.0" type="line"/>
      <point x="514.0" y="88.0" type="line" smooth="yes"/>
      <point x="410.0" y="88.0"/>
      <point x="387.0" y="118.0"/>
      <point x="387.0" y="187.0" type="curve" smooth="yes"/>
      <point x="387.0" y="560.0" type="line"/>
      <point x="288.0" y="560.0" type="line"/>
      <point x="288.0" y="207.0" type="line" smooth="yes"/>
      <point x="288.0" y="56.0"/>
      <point x="349.0" y="0.0"/>
    </contour>
    <contour>
      <point x="110.0" y="0.0" type="line"/>
      <point x="202.0" y="0.0" type="line"/>
      <point x="202.0" y="658.0" type="line"/>
      <point x="397.0" y="658.0" type="line" smooth="yes"/>
      <point x="479.0" y="658.0"/>
      <point x="481.0" y="608.0"/>
      <point x="481.0" y="539.0" type="curve" smooth="yes"/>
      <point x="481.0" y="185.0" type="line"/>
      <point x="579.0" y="185.0" type="line"/>
      <point x="579.0" y="537.0" type="line" smooth="yes"/>
      <point x="579.0" y="689.0"/>
      <point x="548.0" y="743.0"/>
      <point x="427.0" y="743.0" type="curve" smooth="yes"/>
      <point x="110.0" y="743.0" type="line"/>
    </contour>
  </outline>
</glyph>
<glyph name="kip" format="2">
  <advance width="1414.0"/>
  <unicode hex="20AD"/>
  <outline>
    <contour>
      <point x="80.0" y="672.0" type="line"/>
      <point x="1134.0" y="672.0" type="line"/>
      <point x="1134.0" y="836.0" type="line"/>
      <point x="80.0" y="836.0" type="line"/>
    </contour>
    <contour>
      <point x="214.0" y="0.0" type="line"/>
      <point x="448.0" y="0.0" type="line"/>
      <point x="448.0" y="720.0" type="line"/>
      <point x="406.0" y="514.0" type="line"/>
      <point x="586.0" y="676.0" type="line"/>
      <point x="612.0" y="704.0" type="line"/>
      <point x="1304.0" y="1486.0" type="line"/>
      <point x="1024.0" y="1486.0" type="line"/>
      <point x="448.0" y="832.0" type="line"/>
      <point x="448.0" y="1486.0" type="line"/>
      <point x="214.0" y="1486.0" type="line"/>
    </contour>
    <contour>
      <point x="1044.0" y="0.0" type="line"/>
      <point x="1330.0" y="0.0" type="line"/>
      <point x="612.0" y="880.0" type="line"/>
      <point x="490.0" y="750.0" type="line"/>
      <point x="448.0" y="720.0" type="line"/>
    </contour>
  </outline>
</glyph>
<glyph name="tugrik" format="2">
  <advance width="1510.0"/>
  <unicode hex="20AE"/>
  <anchor x="755.0" y="0.0" name="bottom"/>
  <anchor x="755.0" y="744.0" name="center"/>
  <anchor x="748.0" y="1660.0" name="top"/>
  <outline>
    <contour>
      <point x="326.0" y="636.0" type="line"/>
      <point x="1188.0" y="916.0" type="line"/>
      <point x="1192.0" y="1086.0" type="line"/>
      <point x="330.0" y="804.0" type="line"/>
    </contour>
    <contour>
      <point x="318.0" y="228.0" type="line"/>
      <point x="1180.0" y="508.0" type="line"/>
      <point x="1184.0" y="678.0" type="line"/>
      <point x="322.0" y="398.0" type="line"/>
    </contour>
    <component base="T" xOffset="124.0"/>
  </outline>
</glyph>
<glyph name="peso" format="2">
  <advance width="846.0"/>
  <unicode hex="20B1"/>
  <anchor x="398.911" y="0.0" name="bottom"/>
  <anchor x="424.244" y="-83.0" name="btm"/>
  <anchor x="427.8" y="830.178" name="top"/>
  <outline>
    <contour>
      <point x="179.0" y="0.0" type="line"/>
      <point x="297.0" y="0.0" type="line"/>
      <point x="297.0" y="161.0" type="line"/>
      <point x="315.0" y="161.0"/>
      <point x="344.0" y="160.0"/>
      <point x="391.0" y="160.0" type="curve" smooth="yes"/>
      <point x="577.0" y="160.0"/>
      <point x="677.0" y="295.0"/>
      <point x="677.0" y="457.0" type="curve" smooth="yes"/>
      <point x="677.0" y="629.0"/>
      <point x="578.0" y="751.0"/>
      <point x="416.0" y="751.0" type="curve" smooth="yes"/>
      <point x="349.0" y="751.0"/>
      <point x="291.0" y="743.0"/>
      <point x="230.0" y="743.0" type="curve" smooth="yes"/>
      <point x="179.0" y="743.0" type="line"/>
    </contour>
    <contour>
      <point x="297.0" y="251.0" type="curve"/>
      <point x="297.0" y="658.0" type="line"/>
      <point x="323.0" y="664.0"/>
      <point x="354.0" y="666.0"/>
      <point x="383.0" y="667.0" type="curve" smooth="yes"/>
      <point x="498.0" y="671.0"/>
      <point x="561.0" y="571.0"/>
      <point x="561.0" y="457.0" type="curve" smooth="yes"/>
      <point x="561.0" y="315.0"/>
      <point x="477.0" y="246.0"/>
      <point x="384.0" y="246.0" type="curve" smooth="yes"/>
      <point x="357.0" y="246.0"/>
      <point x="327.0" y="247.0"/>
    </contour>
    <contour>
      <point x="90.0" y="486.0" type="line"/>
      <point x="776.0" y="486.0" type="line"/>
      <point x="776.0" y="558.0" type="line"/>
      <point x="90.0" y="558.0" type="line"/>
    </contour>
    <contour>
      <point x="90.0" y="354.0" type="line"/>
      <point x="776.0" y="354.0" type="line"/>
      <point x="776.0" y="426.0" type="line"/>
      <point x="90.0" y="426.0" type="line"/>
    </contour>
  </outline>
</glyph>
<glyph name="guarani" format="2">
  <advance width="1490.0"/>
  <unicode hex="20B2"/>
  <outline>
    <contour>
      <point x="96.0" y="736.0" type="curve" smooth="yes"/>
      <point x="96.0" y="340.0"/>
      <point x="308.0" y="46.0"/>
      <point x="670.0" y="-6.0" type="curve"/>
      <point x="668.0" y="-252.0" type="line"/>
      <point x="870.0" y="-252.0" type="line"/>
      <point x="872.0" y="-12.0" type="line"/>
      <point x="1122.0" y="2.0"/>
      <point x="1216.0" y="84.0"/>
      <point x="1304.0" y="88.0" type="curve"/>
      <point x="1304.0" y="762.0" type="line"/>
      <point x="808.0" y="762.0" type="line"/>
      <point x="808.0" y="584.0" type="line"/>
      <point x="1068.0" y="572.0" type="line"/>
      <point x="1068.0" y="224.0" type="line"/>
      <point x="1014.0" y="188.0"/>
      <point x="896.0" y="174.0"/>
      <point x="792.0" y="174.0" type="curve" smooth="yes"/>
      <point x="496.0" y="174.0"/>
      <point x="352.0" y="428.0"/>
      <point x="352.0" y="762.0" type="curve" smooth="yes"/>
      <point x="352.0" y="1104.0"/>
      <point x="534.0" y="1306.0"/>
      <point x="794.0" y="1306.0" type="curve" smooth="yes"/>
      <point x="1006.0" y="1306.0"/>
      <point x="1120.0" y="1272.0"/>
      <point x="1210.0" y="1224.0" type="curve"/>
      <point x="1220.0" y="1444.0" type="line"/>
      <point x="1112.0" y="1464.0"/>
      <point x="1044.0" y="1492.0"/>
      <point x="886.0" y="1500.0" type="curve"/>
      <point x="886.0" y="1720.0" type="line"/>
      <point x="684.0" y="1720.0" type="line"/>
      <point x="684.0" y="1494.0" type="line"/>
      <point x="348.0" y="1448.0"/>
      <point x="96.0" y="1202.0"/>
    </contour>
  </outline>
</glyph>
<glyph name="cedi" format="2">
  <advance width="1372.0"/>
  <unicode hex="20B5"/>
  <outline>
    <contour>
      <point x="584.0" y="-346.0" type="line"/>
      <point x="728.0" y="-346.0" type="line"/>
      <point x="758.0" y="-14.0" type="line"/>
      <point x="772.0" y="-14.0"/>
      <point x="786.0" y="-16.0"/>
      <point x="802.0" y="-16.0" type="curve" smooth="yes"/>
      <point x="984.0" y="-16.0"/>
      <point x="1092.0" y="28.0"/>
      <point x="1174.0" y="62.0" type="curve"/>
      <point x="1174.0" y="272.0" type="line"/>
      <point x="1122.0" y="226.0"/>
      <point x="966.0" y="181.0"/>
      <point x="819.0" y="181.0" type="curve" smooth="yes"/>
      <point x="804.0" y="181.0"/>
      <point x="789.0" y="181.0"/>
      <point x="775.0" y="183.0" type="curve"/>
      <point x="874.0" y="1298.0" type="line"/>
      <point x="1048.0" y="1289.0"/>
      <point x="1127.0" y="1240.0"/>
      <point x="1151.0" y="1227.0" type="curve"/>
      <point x="1186.0" y="1445.0" type="line"/>
      <point x="1137.0" y="1458.0"/>
      <point x="1052.0" y="1490.0"/>
      <point x="892.0" y="1500.0" type="curve"/>
      <point x="918.0" y="1772.0" type="line"/>
      <point x="774.0" y="1772.0" type="line"/>
      <point x="750.0" y="1500.0" type="line"/>
      <point x="393.0" y="1478.0"/>
      <point x="96.0" y="1209.0"/>
      <point x="96.0" y="737.0" type="curve" smooth="yes"/>
      <point x="96.0" y="351.0"/>
      <point x="291.0" y="80.0"/>
      <point x="615.0" y="3.0" type="curve"/>
    </contour>
    <contour>
      <point x="634.0" y="216.0" type="line"/>
      <point x="451.0" y="293.0"/>
      <point x="347.0" y="492.0"/>
      <point x="347.0" y="752.0" type="curve" smooth="yes"/>
      <point x="347.0" y="1055.0"/>
      <point x="492.0" y="1254.0"/>
      <point x="730.0" y="1293.0" type="curve"/>
    </contour>
  </outline>
</glyph>
<glyph name="rupeeIndian" format="2">
  <advance width="725.0"/>
  <unicode hex="20B9"/>
  <outline>
    <contour>
      <point x="622.0" y="0.0" type="line"/>
      <point x="538.0" y="93.0"/>
      <point x="532.0" y="272.0"/>
      <point x="433.0" y="332.0" type="curve"/>
      <point x="486.0" y="359.0"/>
      <point x="544.0" y="411.0"/>
      <point x="544.0" y="492.0" type="curve"/>
      <point x="645.0" y="492.0" type="line"/>
      <point x="645.0" y="572.0" type="line"/>
      <point x="550.0" y="572.0" type="line"/>
      <point x="547.0" y="619.0"/>
      <point x="526.0" y="654.0"/>
      <point x="500.0" y="667.0" type="curve"/>
      <point x="660.0" y="667.0" type="line"/>
      <point x="660.0" y="743.0" type="line"/>
      <point x="90.0" y="743.0" type="line"/>
      <point x="90.0" y="667.0" type="line"/>
      <point x="296.0" y="667.0" type="line"/>
      <point x="416.0" y="667.0"/>
      <point x="436.0" y="612.0"/>
      <point x="436.0" y="572.0" type="curve"/>
      <point x="90.0" y="572.0" type="line"/>
      <point x="90.0" y="492.0" type="line"/>
      <point x="430.0" y="492.0" type="line"/>
      <point x="429.0" y="414.0"/>
      <point x="363.0" y="373.0"/>
      <point x="289.0" y="373.0" type="curve" smooth="yes"/>
      <point x="204.0" y="373.0"/>
      <point x="111.0" y="372.0"/>
      <point x="90.0" y="374.0" type="curve"/>
      <point x="90.0" y="300.0" type="line"/>
      <point x="118.0" y="297.0"/>
      <point x="229.0" y="292.0"/>
      <point x="341.0" y="302.0" type="curve"/>
      <point x="410.0" y="240.0"/>
      <point x="454.0" y="0.0"/>
      <point x="495.0" y="0.0" type="curve" smooth="yes"/>
    </contour>
  </outline>
</glyph>
<glyph name="ruble" format="2">
  <advance width="701.0"/>
  <unicode hex="20BD"/>
  <anchor x="383.0" y="-83.0" name="btm"/>
  <anchor x="387.0" y="830.0" name="top"/>
  <outline>
    <contour>
      <point x="138.0" y="0.0" type="line"/>
      <point x="256.0" y="0.0" type="line"/>
      <point x="256.0" y="278.0" type="line"/>
      <point x="274.0" y="278.0"/>
      <point x="303.0" y="276.0"/>
      <point x="350.0" y="276.0" type="curve" smooth="yes"/>
      <point x="536.0" y="276.0"/>
      <point x="636.0" y="361.0"/>
      <point x="636.0" y="519.0" type="curve" smooth="yes"/>
      <point x="636.0" y="682.0"/>
      <point x="537.0" y="751.0"/>
      <point x="375.0" y="751.0" type="curve" smooth="yes"/>
      <point x="308.0" y="751.0"/>
      <point x="250.0" y="743.0"/>
      <point x="189.0" y="743.0" type="curve" smooth="yes"/>
      <point x="138.0" y="743.0" type="line"/>
    </contour>
    <contour>
      <point x="256.0" y="368.0" type="curve"/>
      <point x="256.0" y="658.0" type="line"/>
      <point x="282.0" y="664.0"/>
      <point x="313.0" y="666.0"/>
      <point x="342.0" y="667.0" type="curve" smooth="yes"/>
      <point x="457.0" y="671.0"/>
      <point x="520.0" y="625.0"/>
      <point x="520.0" y="519.0" type="curve" smooth="yes"/>
      <point x="520.0" y="382.0"/>
      <point x="436.0" y="363.0"/>
      <point x="343.0" y="363.0" type="curve" smooth="yes"/>
      <point x="316.0" y="363.0"/>
      <point x="286.0" y="363.0"/>
    </contour>
    <contour>
      <point x="54.0" y="98.0" type="line"/>
      <point x="484.0" y="98.0" type="line"/>
      <point x="484.0" y="191.0" type="line"/>
      <point x="54.0" y="191.0" type="line"/>
    </contour>
  </outline>
</glyph>
<glyph name="literSign" format="2">
  <advance width="1236.0"/>
  <unicode hex="2113"/>
  <anchor x="436.0" y="-133.0" name="btm"/>
  <anchor x="438.0" y="1693.0" name="top"/>
  <outline>
    <contour>
      <point x="179.0" y="35.0" type="line"/>
      <point x="655.0" y="405.0"/>
      <point x="1092.0" y="889.0"/>
      <point x="1092.0" y="1371.0" type="curve" smooth="yes"/>
      <point x="1092.0" y="1527.0"/>
      <point x="1026.0" y="1635.0"/>
      <point x="884.0" y="1635.0" type="curve" smooth="yes"/>
      <point x="540.0" y="1635.0"/>
      <point x="286.0" y="1028.0"/>
      <point x="286.0" y="502.0" type="curve" smooth="yes"/>
      <point x="286.0" y="151.0"/>
      <point x="419.0" y="-28.0"/>
      <point x="614.0" y="-28.0" type="curve" smooth="yes"/>
      <point x="852.0" y="-28.0"/>
      <point x="1000.0" y="262.0"/>
      <point x="1053.0" y="412.0" type="curve"/>
      <point x="867.0" y="454.0" type="line"/>
      <point x="811.0" y="296.0"/>
      <point x="721.0" y="151.0"/>
      <point x="624.0" y="151.0" type="curve" smooth="yes"/>
      <point x="540.0" y="151.0"/>
      <point x="477.0" y="255.0"/>
      <point x="477.0" y="487.0" type="curve" smooth="yes"/>
      <point x="477.0" y="880.0"/>
      <point x="689.0" y="1465.0"/>
      <point x="849.0" y="1465.0" type="curve" smooth="yes"/>
      <point x="885.0" y="1465.0"/>
      <point x="897.0" y="1404.0"/>
      <point x="897.0" y="1369.0" type="curve" smooth="yes"/>
      <point x="899.0" y="1006.0"/>
      <point x="529.0" y="491.0"/>
      <point x="-2.0" y="149.0" type="curve"/>
    </contour>
  </outline>
</glyph>
<glyph name="partialdiff" format="2">
  <advance width="1343.0"/>
  <unicode hex="2202"/>
  <outline>
    <contour>
      <point x="654.0" y="-30.0" type="curve" smooth="yes"/>
      <point x="1066.0" y="-30.0"/>
      <point x="1211.0" y="348.0"/>
      <point x="1211.0" y="802.0" type="curve" smooth="yes"/>
      <point x="1211.0" y="1215.0"/>
      <point x="1037.0" y="1653.0"/>
      <point x="534.0" y="1653.0" type="curve" smooth="yes"/>
      <point x="423.0" y="1653.0"/>
      <point x="274.0" y="1624.0"/>
      <point x="182.0" y="1557.0" type="curve"/>
      <point x="259.0" y="1425.0" type="line"/>
      <point x="311.0" y="1458.0"/>
      <point x="412.0" y="1481.0"/>
      <point x="493.0" y="1481.0" type="curve" smooth="yes"/>
      <point x="847.0" y="1481.0"/>
      <point x="976.0" y="1221.0"/>
      <point x="989.0" y="896.0" type="curve" smooth="yes"/>
      <point x="989.0" y="863.0"/>
      <point x="989.0" y="821.0"/>
      <point x="989.0" y="778.0" type="curve" smooth="yes"/>
      <point x="989.0" y="534.0"/>
      <point x="950.0" y="139.0"/>
      <point x="677.0" y="139.0" type="curve" smooth="yes"/>
      <point x="457.0" y="139.0"/>
      <point x="390.0" y="285.0"/>
      <point x="380.0" y="477.0" type="curve" smooth="yes"/>
      <point x="368.0" y="751.0"/>
      <point x="541.0" y="875.0"/>
      <point x="709.0" y="875.0" type="curve" smooth="yes"/>
      <point x="855.0" y="875.0"/>
      <point x="964.0" y="852.0"/>
      <point x="1078.0" y="754.0" type="curve"/>
      <point x="1078.0" y="767.0"/>
      <point x="1055.0" y="940.0"/>
      <point x="1055.0" y="952.0" type="curve"/>
      <point x="958.0" y="1005.0"/>
      <point x="845.0" y="1034.0"/>
      <point x="722.0" y="1034.0" type="curve" smooth="yes"/>
      <point x="402.0" y="1034.0"/>
      <point x="137.0" y="830.0"/>
      <point x="155.0" y="445.0" type="curve" smooth="yes"/>
      <point x="168.0" y="156.0"/>
      <point x="384.0" y="-30.0"/>
    </contour>
  </outline>
</glyph>
<glyph name="emptyset" format="2">
  <advance width="680.0"/>
  <unicode hex="2205"/>
  <outline>
    <contour>
      <point x="50.0" y="283.0" type="curve" smooth="yes"/>
      <point x="48.0" y="122.0"/>
      <point x="179.0" y="-7.0"/>
      <point x="340.0" y="-7.0" type="curve"/>
      <point x="500.0" y="-7.0"/>
      <point x="631.0" y="122.0"/>
      <point x="630.0" y="283.0" type="curve" smooth="yes"/>
      <point x="629.0" y="444.0"/>
      <point x="500.0" y="573.0"/>
      <point x="340.0" y="573.0" type="curve" smooth="yes"/>
      <point x="180.0" y="573.0"/>
      <point x="52.0" y="444.0"/>
    </contour>
    <contour>
      <point x="151.0" y="280.0" type="curve" smooth="yes"/>
      <point x="151.0" y="385.0"/>
      <point x="234.0" y="473.0"/>
      <point x="339.0" y="473.0" type="curve" smooth="yes"/>
      <point x="444.0" y="473.0"/>
      <point x="525.0" y="385.0"/>
      <point x="524.0" y="280.0" type="curve" smooth="yes"/>
      <point x="523.0" y="176.0"/>
      <point x="444.0" y="89.0"/>
      <point x="339.0" y="89.0" type="curve" smooth="yes"/>
      <point x="234.0" y="89.0"/>
      <point x="151.0" y="176.0"/>
    </contour>
    <contour>
      <point x="576.0" y="623.0" type="line"/>
      <point x="65.0" y="-9.0" type="line"/>
      <point x="115.0" y="-48.0" type="line"/>
      <point x="627.0" y="584.0" type="line"/>
    </contour>
  </outline>
</glyph>
<glyph name="bulletoperator" format="2">
  <advance width="595.0"/>
  <unicode hex="2219"/>
  <outline>
    <contour>
      <point x="288.0" y="523.0" type="curve" smooth="yes"/>
      <point x="393.0" y="523.0"/>
      <point x="487.0" y="615.0"/>
      <point x="483.0" y="733.0" type="curve" smooth="yes"/>
      <point x="482.0" y="833.0"/>
      <point x="420.0" y="916.0"/>
      <point x="306.0" y="916.0" type="curve" smooth="yes"/>
      <point x="205.0" y="916.0"/>
      <point x="108.0" y="822.0"/>
      <point x="112.0" y="707.0" type="curve" smooth="yes"/>
      <point x="113.0" y="600.0"/>
      <point x="195.0" y="523.0"/>
    </contour>
  </outline>
</glyph>
<glyph name="radical" format="2">
  <advance width="1571.0"/>
  <unicode hex="221A"/>
  <outline>
    <contour>
      <point x="682.0" y="-346.0" type="line"/>
      <point x="867.0" y="-346.0" type="line"/>
      <point x="1562.0" y="1826.0" type="line"/>
      <point x="1336.0" y="1826.0" type="line"/>
      <point x="737.0" y="-139.0" type="line"/>
      <point x="805.0" y="-139.0" type="line"/>
      <point x="472.0" y="700.0" type="line"/>
      <point x="281.0" y="700.0" type="line"/>
      <point x="86.0" y="585.0" type="line"/>
      <point x="180.0" y="420.0" type="line"/>
      <point x="308.0" y="495.0" type="line"/>
    </contour>
  </outline>
</glyph>
<glyph name="infinity" format="2">
  <advance width="1797.0"/>
  <unicode hex="221E"/>
  <outline>
    <contour>
      <point x="495.0" y="213.0" type="curve" smooth="yes"/>
      <point x="728.0" y="216.0"/>
      <point x="893.0" y="408.0"/>
      <point x="973.0" y="569.0" type="curve"/>
      <point x="845.0" y="659.0" type="line"/>
      <point x="747.0" y="495.0"/>
      <point x="645.0" y="373.0"/>
      <point x="519.0" y="373.0" type="curve" smooth="yes"/>
      <point x="354.0" y="373.0"/>
      <point x="280.0" y="476.0"/>
      <point x="280.0" y="599.0" type="curve" smooth="yes"/>
      <point x="280.0" y="716.0"/>
      <point x="352.0" y="823.0"/>
      <point x="508.0" y="823.0" type="curve" smooth="yes"/>
      <point x="652.0" y="823.0"/>
      <point x="748.0" y="650.0"/>
      <point x="828.0" y="534.0" type="curve"/>
      <point x="978.0" y="648.0" type="line"/>
      <point x="870.0" y="807.0"/>
      <point x="756.0" y="992.0"/>
      <point x="493.0" y="992.0" type="curve" smooth="yes"/>
      <point x="259.0" y="992.0"/>
      <point x="74.0" y="855.0"/>
      <point x="74.0" y="590.0" type="curve" smooth="yes"/>
      <point x="74.0" y="390.0"/>
      <point x="229.0" y="208.0"/>
    </contour>
    <contour>
      <point x="1295.0" y="212.0" type="curve" smooth="yes"/>
      <point x="1564.0" y="212.0"/>
      <point x="1723.0" y="366.0"/>
      <point x="1723.0" y="613.0" type="curve" smooth="yes"/>
      <point x="1723.0" y="799.0"/>
      <point x="1596.0" y="995.0"/>
      <point x="1306.0" y="991.0" type="curve"/>
      <point x="1078.0" y="987.0"/>
      <point x="913.0" y="788.0"/>
      <point x="833.0" y="635.0" type="curve"/>
      <point x="967.0" y="547.0" type="line"/>
      <point x="1063.0" y="707.0"/>
      <point x="1155.0" y="822.0"/>
      <point x="1281.0" y="822.0" type="curve" smooth="yes"/>
      <point x="1436.0" y="822.0"/>
      <point x="1516.0" y="719.0"/>
      <point x="1516.0" y="598.0" type="curve" smooth="yes"/>
      <point x="1516.0" y="478.0"/>
      <point x="1450.0" y="370.0"/>
      <point x="1323.0" y="370.0" type="curve" smooth="yes"/>
      <point x="1159.0" y="370.0"/>
      <point x="1048.0" y="559.0"/>
      <point x="966.0" y="677.0" type="curve"/>
      <point x="814.0" y="563.0" type="line"/>
      <point x="926.0" y="406.0"/>
      <point x="1030.0" y="212.0"/>
    </contour>
  </outline>
</glyph>
<glyph name="integral" format="2">
  <advance width="1025.0"/>
  <unicode hex="222B"/>
  <outline>
    <contour>
      <point x="426.0" y="-506.0" type="curve" smooth="yes"/>
      <point x="729.0" y="-506.0"/>
      <point x="830.0" y="-292.0"/>
      <point x="829.0" y="-28.0" type="curve" smooth="yes"/>
      <point x="827.0" y="386.0"/>
      <point x="437.0" y="786.0"/>
      <point x="435.0" y="1174.0" type="curve" smooth="yes"/>
      <point x="434.0" y="1356.0"/>
      <point x="492.0" y="1477.0"/>
      <point x="650.0" y="1477.0" type="curve" smooth="yes"/>
      <point x="742.0" y="1477.0"/>
      <point x="808.0" y="1440.0"/>
      <point x="833.0" y="1401.0" type="curve"/>
      <point x="945.0" y="1520.0" type="line"/>
      <point x="891.0" y="1605.0"/>
      <point x="787.0" y="1646.0"/>
      <point x="651.0" y="1646.0" type="curve" smooth="yes"/>
      <point x="359.0" y="1646.0"/>
      <point x="225.0" y="1442.0"/>
      <point x="226.0" y="1172.0" type="curve" smooth="yes"/>
      <point x="228.0" y="761.0"/>
      <point x="620.0" y="359.0"/>
      <point x="622.0" y="-31.0" type="curve" smooth="yes"/>
      <point x="623.0" y="-270.0"/>
      <point x="549.0" y="-337.0"/>
      <point x="403.0" y="-337.0" type="curve" smooth="yes"/>
      <point x="295.0" y="-337.0"/>
      <point x="217.0" y="-273.0"/>
      <point x="190.0" y="-242.0" type="curve"/>
      <point x="107.0" y="-384.0" type="line"/>
      <point x="156.0" y="-447.0"/>
      <point x="289.0" y="-506.0"/>
    </contour>
  </outline>
</glyph>
<glyph name="lessequal" format="2">
  <advance width="1338.0"/>
  <unicode hex="2264"/>
  <outline>
    <contour>
      <point x="158.0" y="0.0" type="line"/>
      <point x="1106.0" y="0.0" type="line"/>
      <point x="1106.0" y="165.0" type="line"/>
      <point x="158.0" y="165.0" type="line"/>
    </contour>
    <contour>
      <point x="1106.0" y="260.0" type="line"/>
      <point x="1106.0" y="469.0" type="line"/>
      <point x="376.0" y="765.0" type="line"/>
      <point x="376.0" y="746.0" type="line"/>
      <point x="1106.0" y="1042.0" type="line"/>
      <point x="1106.0" y="1249.0" type="line"/>
      <point x="158.0" y="830.0" type="line"/>
      <point x="158.0" y="678.0" type="line"/>
    </contour>
  </outline>
</glyph>
<glyph name="leftanglebracket-math" format="2">
  <advance width="450.0"/>
  <unicode hex="27E8"/>
  <outline>
    <contour>
      <point x="290.0" y="901.0" type="line"/>
      <point x="41.0" y="319.0" type="line"/>
      <point x="308.0" y="-254.0" type="line"/>
      <point x="409.0" y="-254.0" type="line"/>
      <point x="150.0" y="317.0" type="line"/>
      <point x="403.0" y="901.0" type="line"/>
    </contour>
  </outline>
</glyph>
<glyph name="b.sc" format="2">
  <advance width="642.0"/>
  <anchor x="316.0" y="0.0" name="bottom"/>
  <anchor x="343.0" y="-72.0" name="btm"/>
  <anchor x="314.0" y="900.0" name="top"/>
  <outline>
    <contour>
      <point x="86.0" y="0.0" type="line"/>
      <point x="145.0" y="0.0" type="line"/>
      <point x="182.0" y="-2.0"/>
      <point x="252.0" y="-6.0"/>
      <point x="304.0" y="-6.0" type="curve" smooth="yes"/>
      <point x="527.0" y="-6.0"/>
      <point x="594.0" y="78.0"/>
      <point x="594.0" y="195.0" type="curve" smooth="yes"/>
      <point x="594.0" y="275.0"/>
      <point x="527.0" y="340.0"/>
      <point x="440.0" y="346.0" type="curve"/>
      <point x="515.0" y="364.0"/>
      <point x="548.0" y="430.0"/>
      <point x="548.0" y="494.0" type="curve" smooth="yes"/>
      <point x="548.0" y="590.0"/>
      <point x="473.0" y="652.0"/>
      <point x="307.0" y="652.0" type="curve" smooth="yes"/>
      <point x="236.0" y="652.0"/>
      <point x="189.0" y="646.0"/>
      <point x="142.0" y="646.0" type="curve"/>
      <point x="86.0" y="647.0" type="line"/>
    </contour>
    <contour>
      <point x="201.0" y="374.0" type="curve"/>
      <point x="201.0" y="563.0" type="line"/>
      <point x="214.0" y="567.0"/>
      <point x="269.0" y="569.0"/>
      <point x="289.0" y="569.0" type="curve" smooth="yes"/>
      <point x="381.0" y="569.0"/>
      <point x="432.0" y="542.0"/>
      <point x="432.0" y="481.0" type="curve" smooth="yes"/>
      <point x="432.0" y="406.0"/>
      <point x="388.0" y="372.0"/>
      <point x="321.0" y="372.0" type="curve" smooth="yes"/>
      <point x="289.0" y="372.0"/>
      <point x="233.0" y="370.0"/>
    </contour>
    <contour>
      <point x="201.0" y="87.0" type="curve"/>
      <point x="201.0" y="289.0" type="line"/>
      <point x="226.0" y="292.0"/>
      <point x="277.0" y="291.0"/>
      <point x="316.0" y="291.0" type="curve" smooth="yes"/>
      <point x="423.0" y="291.0"/>
      <point x="471.0" y="259.0"/>
      <point x="471.0" y="187.0" type="curve" smooth="yes"/>
      <point x="471.0" y="104.0"/>
      <point x="414.0" y="77.0"/>
      <point x="313.0" y="77.0" type="curve" smooth="yes"/>
      <point x="277.0" y="77.0"/>
      <point x="217.0" y="78.0"/>
    </contour>
  </outline>
</glyph>
<glyph name="bracketleft.case" format="2">
  <advance width="811.0"/>
  <outline>
    <contour>
      <point x="173.0" y="58.0" type="line"/>
      <point x="173.0" y="-134.0"/>
      <point x="209.0" y="-186.0"/>
      <point x="359.0" y="-186.0" type="curve" smooth="yes"/>
      <point x="486.0" y="-186.0"/>
      <point x="554.0" y="-176.0"/>
      <point x="655.0" y="-164.0" type="curve"/>
      <point x="655.0" y="-45.0" type="line"/>
      <point x="393.0" y="-43.0" type="line"/>
      <point x="393.0" y="1549.0" type="line"/>
      <point x="655.0" y="1549.0" type="line"/>
      <point x="655.0" y="1672.0" type="line"/>
      <point x="554.0" y="1684.0"/>
      <point x="486.0" y="1696.0"/>
      <point x="359.0" y="1696.0" type="curve" smooth="yes"/>
      <point x="209.0" y="1696.0"/>
      <point x="173.0" y="1644.0"/>
      <point x="173.0" y="1452.0" type="curve" smooth="yes"/>
    </contour>
  </outline>
</glyph>
<glyph name="breve.case" format="2">
  <advance width="768.0"/>
  <anchor x="385.0" y="1660.0" name="_top"/>
  <outline>
    <contour>
      <point x="385.0" y="1591.0" type="curve" smooth="yes"/>
      <point x="602.0" y="1591.0"/>
      <point x="737.0" y="1742.0"/>
      <point x="722.0" y="1922.0" type="curve"/>
      <point x="570.0" y="1922.0" type="line"/>
      <point x="569.0" y="1894.0"/>
      <point x="564.0" y="1764.0"/>
      <point x="385.0" y="1764.0" type="curve" smooth="yes"/>
      <point x="205.0" y="1764.0"/>
      <point x="204.0" y="1894.0"/>
      <point x="204.0" y="1922.0" type="curve"/>
      <point x="47.0" y="1922.0" type="line"/>
      <point x="33.0" y="1742.0"/>
      <point x="156.0" y="1591.0"/>
    </contour>
  </outline>
</glyph>
<glyph name="brevecomb_acutecomb" format="2">
  <anchor x="0.0" y="1660.0" name="_top"/>
  <anchor x="7.0" y="2025.0" name="top"/>
  <outline>
    <contour>
      <point x="7.0" y="1278.0" type="curve" smooth="yes"/>
      <point x="234.0" y="1278.0"/>
      <point x="359.0" y="1438.0"/>
      <point x="344.0" y="1618.0" type="curve"/>
      <point x="189.0" y="1618.0" type="line"/>
      <point x="188.0" y="1590.0"/>
      <point x="186.0" y="1451.0"/>
      <point x="7.0" y="1451.0" type="curve" smooth="yes"/>
      <point x="-173.0" y="1451.0"/>
      <point x="-177.0" y="1590.0"/>
      <point x="-178.0" y="1618.0" type="curve"/>
      <point x="-331.0" y="1618.0" type="line"/>
      <point x="-345.0" y="1438.0"/>
      <point x="-212.0" y="1278.0"/>
    </contour>
    <contour>
      <point x="-21.0" y="1638.0" type="line"/>
      <point x="48.0" y="1667.0"/>
      <point x="212.0" y="1817.0"/>
      <point x="267.0" y="1907.0" type="curve"/>
      <point x="120.0" y="2025.0" type="line"/>
      <point x="60.0" y="1935.0"/>
      <point x="-21.0" y="1843.0"/>
      <point x="-125.0" y="1731.0" type="curve"/>
    </contour>
  </outline>
</glyph>
<glyph name="brevecomb_hookabovecomb" format="2">
  <anchor x="0.0" y="1660.0" name="_top"/>
  <anchor x="7.0" y="2062.0" name="top"/>
  <outline>
    <contour>
      <point x="7.0" y="1278.0" type="curve" smooth="yes"/>
      <point x="224.0" y="1278.0"/>
      <point x="359.0" y="1438.0"/>
      <point x="344.0" y="1618.0" type="curve"/>
      <point x="192.0" y="1618.0" type="line"/>
      <point x="191.0" y="1590.0"/>
      <point x="186.0" y="1451.0"/>
      <point x="7.0" y="1451.0" type="curve" smooth="yes"/>
      <point x="-173.0" y="1451.0"/>
      <point x="-174.0" y="1590.0"/>
      <point x="-174.0" y="1618.0" type="curve"/>
      <point x="-331.0" y="1618.0" type="line"/>
      <point x="-345.0" y="1438.0"/>
      <point x="-222.0" y="1278.0"/>
    </contour>
    <contour>
      <point x="-43.0" y="1620.0" type="curve"/>
      <point x="77.0" y="1620.0" type="line"/>
      <point x="61.0" y="1665.0"/>
      <point x="79.0" y="1712.0"/>
      <point x="98.0" y="1727.0" type="curve" smooth="yes"/>
      <point x="152.0" y="1768.0"/>
      <point x="198.0" y="1800.0"/>
      <point x="198.0" y="1896.0" type="curve" smooth="yes"/>
      <point x="198.0" y="1997.0"/>
      <point x="108.0" y="2062.0"/>
      <point x="-23.0" y="2062.0" type="curve" smooth="yes"/>
      <point x="-74.0" y="2062.0"/>
      <point x="-148.0" y="2051.0"/>
      <point x="-189.0" y="2025.0" type="curve"/>
      <point x="-185.0" y="1909.0" type="line"/>
      <point x="-164.0" y="1923.0"/>
      <point x="-111.0" y="1939.0"/>
      <point x="-67.0" y="1939.0" type="curve" smooth="yes"/>
      <point x="-4.0" y="1939.0"/>
      <point x="33.0" y="1916.0"/>
      <point x="33.0" y="1868.0" type="curve" smooth="yes"/>
      <point x="33.0" y="1793.0"/>
      <point x="-65.0" y="1790.0"/>
      <point x="-65.0" y="1701.0" type="curve" smooth="yes"/>
      <point x="-65.0" y="1668.0"/>
      <point x="-54.0" y="1645.0"/>
    </contour>
  </outline>
</glyph>
<glyph name="brevecomb_tildecomb.case" format="2">
  <anchor x="0.0" y="1660.0" name="_top"/>
  <anchor x="24.0" y="2480.0" name="top"/>
  <outline>
    <contour>
      <point x="7.0" y="1623.0" type="curve" smooth="yes"/>
      <point x="205.0" y="1623.0"/>
      <point x="327.0" y="1753.0"/>
      <point x="315.0" y="1922.0" type="curve"/>
      <point x="175.0" y="1922.0" type="line"/>
      <point x="175.0" y="1896.0"/>
      <point x="170.0" y="1775.0"/>
      <point x="7.0" y="1775.0" type="curve" smooth="yes"/>
      <point x="-157.0" y="1775.0"/>
      <point x="-157.0" y="1896.0"/>
      <point x="-158.0" y="1922.0" type="curve"/>
      <point x="-301.0" y="1922.0" type="line"/>
      <point x="-313.0" y="1753.0"/>
      <point x="-203.0" y="1623.0"/>
    </contour>
    <contour>
      <point x="143.0" y="2032.0" type="curve" smooth="yes"/>
      <point x="244.0" y="2032.0"/>
      <point x="320.0" y="2116.0"/>
      <point x="345.0" y="2225.0" type="curve"/>
      <point x="256.0" y="2269.0" type="line"/>
      <point x="234.0" y="2220.0"/>
      <point x="218.0" y="2174.0"/>
      <point x="155.0" y="2175.0" type="curve" smooth="yes"/>
      <point x="71.0" y="2177.0"/>
      <point x="43.0" y="2302.0"/>
      <point x="-97.0" y="2302.0" type="curve" smooth="yes"/>
      <point x="-200.0" y="2302.0"/>
      <point x="-276.0" y="2217.0"/>
      <point x="-301.0" y="2113.0" type="curve"/>
      <point x="-212.0" y="2066.0" type="line"/>
      <point x="-190.0" y="2115.0"/>
      <point x="-171.0" y="2162.0"/>
      <point x="-110.0" y="2161.0" type="curve" smooth="yes"/>
      <point x="-26.0" y="2159.0"/>
      <point x="3.0" y="2032.0"/>
    </contour>
  </outline>
</glyph>
<glyph name="breveinvertedcomb.case" format="2">
  <anchor x="0.0" y="1660.0" name="_top"/>
  <anchor x="0.0" y="2086.0" name="top"/>
  <outline>
    <contour>
      <point x="0.0" y="1987.0" type="curve" smooth="yes"/>
      <point x="-223.0" y="1987.0"/>
      <point x="-352.0" y="1807.0"/>
      <point x="-338.0" y="1632.0" type="curve"/>
      <point x="-180.0" y="1632.0" type="line"/>
      <point x="-178.0" y="1661.0"/>
      <point x="-178.0" y="1811.0"/>
      <point x="2.0" y="1811.0" type="curve" smooth="yes"/>
      <point x="181.0" y="1811.0"/>
      <point x="183.0" y="1661.0"/>
      <point x="186.0" y="1632.0" type="curve"/>
      <point x="340.0" y="1632.0" type="line"/>
      <point x="354.0" y="1807.0"/>
      <point x="213.0" y="1987.0"/>
    </contour>
  </outline>
</glyph>
<glyph name="bullet.case" format="2">
  <advance width="843.0"/>
  <outline>
    <contour>
      <point x="412.0" y="523.0" type="curve" smooth="yes"/>
      <point x="535.0" y="523.0"/>
      <point x="639.0" y="628.0"/>
      <point x="644.0" y="753.0" type="curve" smooth="yes"/>
      <point x="650.0" y="881.0"/>
      <point x="554.0" y="979.0"/>
      <point x="433.0" y="979.0" type="curve" smooth="yes"/>
      <point x="310.0" y="979.0"/>
      <point x="204.0" y="876.0"/>
      <point x="198.0" y="749.0" type="curve" smooth="yes"/>
      <point x="193.0" y="625.0"/>
      <point x="290.0" y="523.0"/>
    </contour>
  </outline>
</glyph>
<glyph name="c.sc" format="2">
  <advance width="1228.0"/>
  <anchor x="608.0" y="0.0" name="bottom"/>
  <anchor x="736.0" y="-144.0" name="btm"/>
  <anchor x="732.0" y="1792.0" name="top"/>
  <outline>
    <contour>
      <point x="84.0" y="642.0" type="curve" smooth="yes"/>
      <point x="84.0" y="250.0"/>
      <point x="350.0" y="-14.0"/>
      <point x="730.0" y="-14.0" type="curve" smooth="yes"/>
      <point x="904.0" y="-14.0"/>
      <point x="1006.0" y="24.0"/>
      <point x="1088.0" y="54.0" type="curve"/>
      <point x="1088.0" y="252.0" type="line"/>
      <point x="1036.0" y="214.0"/>
      <point x="884.0" y="170.0"/>
      <point x="744.0" y="170.0" type="curve" smooth="yes"/>
      <point x="492.0" y="170.0"/>
      <point x="322.0" y="374.0"/>
      <point x="322.0" y="658.0" type="curve" smooth="yes"/>
      <point x="322.0" y="942.0"/>
      <point x="500.0" y="1118.0"/>
      <point x="738.0" y="1118.0" type="curve" smooth="yes"/>
      <point x="950.0" y="1118.0"/>
      <point x="1034.0" y="1066.0"/>
      <point x="1066.0" y="1048.0" type="curve"/>
      <point x="1100.0" y="1258.0" type="line"/>
      <point x="1038.0" y="1270.0"/>
      <point x="936.0" y="1306.0"/>
      <point x="724.0" y="1306.0" type="curve" smooth="yes"/>
      <point x="396.0" y="1306.0"/>
      <point x="84.0" y="1072.0"/>
    </contour>
  </outline>
</glyph>
<glyph name="caroncomb.case" format="2">
  <anchor x="0.0" y="1660.0" name="_top"/>
  <anchor x="0.0" y="2024.0" name="top"/>
  <outline>
    <contour>
      <point x="-96.0" y="1628.0" type="line"/>
      <point x="100.0" y="1628.0" type="line"/>
      <point x="340.0" y="1890.0" type="line"/>
      <point x="216.0" y="1952.0" type="line"/>
      <point x="0.0" y="1781.0" type="line"/>
      <point x="-211.0" y="1952.0" type="line"/>
      <point x="-342.0" y="1887.0" type="line"/>
    </contour>
  </outline>
</glyph>
<glyph name="circumflexcomb_acutecomb.case" format="2">
  <anchor x="7.0" y="1660.0" name="_top"/>
  <anchor x="187.0" y="2184.0" name="top"/>
  <outline>
    <contour>
      <point x="-209.0" y="1582.0" type="line"/>
      <point x="7.0" y="1779.0" type="line"/>
      <point x="219.0" y="1582.0" type="line"/>
      <point x="363.0" y="1645.0" type="line"/>
      <point x="105.0" y="1939.0" type="line"/>
      <point x="-91.0" y="1939.0" type="line"/>
      <point x="-348.0" y="1643.0" type="line"/>
    </contour>
    <contour>
      <point x="340.0" y="1780.0" type="line"/>
      <point x="449.0" y="1819.0"/>
      <point x="632.0" y="1957.0"/>
      <point x="721.0" y="2054.0" type="curve"/>
      <point x="566.0" y="2184.0" type="line"/>
      <point x="558.0" y="2163.0"/>
      <point x="250.0" y="1886.0"/>
      <point x="239.0" y="1876.0" type="curve"/>
    </contour>
  </outline>
</glyph>
<glyph name="circumflexcomb_acutecomb" format="2">
  <anchor x="0.0" y="1660.0" name="_top"/>
  <anchor x="0.0" y="2114.0" name="top"/>
  <outline>
    <contour>
      <point x="-256.0" y="1232.0" type="line"/>
      <point x="0.0" y="1429.0" type="line"/>
      <point x="246.0" y="1234.0" type="line"/>
      <point x="366.0" y="1293.0" type="line"/>
      <point x="95.0" y="1598.0" type="line"/>
      <point x="-86.0" y="1598.0" type="line"/>
      <point x="-366.0" y="1293.0" type="line"/>
    </contour>
    <contour>
      <point x="361.0" y="1585.0" type="line"/>
      <point x="430.0" y="1614.0"/>
      <point x="596.0" y="1760.0"/>
      <point x="651.0" y="1850.0" type="curve"/>
      <point x="502.0" y="1974.0" type="line"/>
      <point x="442.0" y="1884.0"/>
      <point x="365.0" y="1790.0"/>
      <point x="261.0" y="1677.0" type="curve"/>
    </contour>
  </outline>
</glyph>
<glyph name="circumflexcomb_gravecomb" format="2">
  <anchor x="0.0" y="1660.0" name="_top"/>
  <anchor x="97.0" y="1891.0" name="top"/>
  <outline>
    <contour>
      <point x="-256.0" y="1232.0" type="line"/>
      <point x="0.0" y="1429.0" type="line"/>
      <point x="246.0" y="1234.0" type="line"/>
      <point x="366.0" y="1293.0" type="line"/>
      <point x="95.0" y="1598.0" type="line"/>
      <point x="-86.0" y="1598.0" type="line"/>
      <point x="-366.0" y="1293.0" type="line"/>
    </contour>
    <contour>
      <point x="455.0" y="1505.0" type="curve"/>
      <point x="560.0" y="1597.0" type="line"/>
      <point x="456.0" y="1710.0"/>
      <point x="375.0" y="1801.0"/>
      <point x="315.0" y="1891.0" type="curve"/>
      <point x="167.0" y="1773.0" type="line"/>
      <point x="223.0" y="1684.0"/>
      <point x="386.0" y="1534.0"/>
    </contour>
  </outline>
</glyph>
<glyph name="circumflexcomb_hookabovecomb.case" format="2">
  <anchor x="0.0" y="1660.0" name="_top"/>
  <anchor x="330.0" y="2282.0" name="top"/>
  <outline>
    <contour>
      <point x="-216.0" y="1582.0" type="line"/>
      <point x="0.0" y="1779.0" type="line"/>
      <point x="212.0" y="1582.0" type="line"/>
      <point x="356.0" y="1645.0" type="line"/>
      <point x="98.0" y="1939.0" type="line"/>
      <point x="-98.0" y="1939.0" type="line"/>
      <point x="-355.0" y="1643.0" type="line"/>
    </contour>
    <contour>
      <point x="280.0" y="1867.0" type="curve"/>
      <point x="383.0" y="1867.0" type="line"/>
      <point x="367.0" y="1918.0"/>
      <point x="390.0" y="1972.0"/>
      <point x="410.0" y="1989.0" type="curve" smooth="yes"/>
      <point x="464.0" y="2036.0"/>
      <point x="536.0" y="2071.0"/>
      <point x="536.0" y="2178.0" type="curve" smooth="yes"/>
      <point x="536.0" y="2292.0"/>
      <point x="439.0" y="2366.0"/>
      <point x="299.0" y="2366.0" type="curve" smooth="yes"/>
      <point x="247.0" y="2366.0"/>
      <point x="167.0" y="2353.0"/>
      <point x="123.0" y="2325.0" type="curve"/>
      <point x="127.0" y="2194.0" type="line"/>
      <point x="151.0" y="2209.0"/>
      <point x="208.0" y="2226.0"/>
      <point x="254.0" y="2226.0" type="curve" smooth="yes"/>
      <point x="325.0" y="2226.0"/>
      <point x="364.0" y="2201.0"/>
      <point x="364.0" y="2147.0" type="curve"/>
      <point x="364.0" y="2063.0"/>
      <point x="256.0" y="2059.0"/>
      <point x="256.0" y="1958.0" type="curve"/>
      <point x="256.0" y="1921.0"/>
      <point x="268.0" y="1895.0"/>
    </contour>
  </outline>
</glyph>
<glyph name="circumflexcomb_tildecomb.case" format="2">
  <anchor x="0.0" y="1660.0" name="_top"/>
  <anchor x="24.0" y="2480.0" name="top"/>
  <outline>
    <contour>
      <point x="-216.0" y="1582.0" type="line"/>
      <point x="0.0" y="1779.0" type="line"/>
      <point x="213.0" y="1582.0" type="line"/>
      <point x="357.0" y="1645.0" type="line"/>
      <point x="98.0" y="1939.0" type="line"/>
      <point x="-98.0" y="1939.0" type="line"/>
      <point x="-354.0" y="1643.0" type="line"/>
    </contour>
    <contour>
      <point x="143.0" y="2032.0" type="curve" smooth="yes"/>
      <point x="244.0" y="2032.0"/>
      <point x="313.0" y="2116.0"/>
      <point x="338.0" y="2225.0" type="curve"/>
      <point x="256.0" y="2269.0" type="line"/>
      <point x="234.0" y="2220.0"/>
      <point x="218.0" y="2174.0"/>
      <point x="155.0" y="2175.0" type="curve" smooth="yes"/>
      <point x="71.0" y="2177.0"/>
      <point x="43.0" y="2302.0"/>
      <point x="-97.0" y="2302.0" type="curve" smooth="yes"/>
      <point x="-200.0" y="2302.0"/>
      <point x="-270.0" y="2217.0"/>
      <point x="-294.0" y="2113.0" type="curve"/>
      <point x="-212.0" y="2066.0" type="line"/>
      <point x="-190.0" y="2115.0"/>
      <point x="-171.0" y="2162.0"/>
      <point x="-110.0" y="2161.0" type="curve" smooth="yes"/>
      <point x="-26.0" y="2159.0"/>
      <point x="3.0" y="2032.0"/>
    </contour>
  </outline>
</glyph>
<glyph name="circumflexcomb_tildecomb" format="2">
  <anchor x="0.0" y="1660.0" name="_top"/>
  <anchor x="0.0" y="2039.0" name="top"/>
  <outline>
    <contour>
      <point x="-256.0" y="1232.0" type="line"/>
      <point x="0.0" y="1429.0" type="line"/>
      <point x="246.0" y="1234.0" type="line"/>
      <point x="366.0" y="1293.0" type="line"/>
      <point x="95.0" y="1598.0" type="line"/>
      <point x="-86.0" y="1598.0" type="line"/>
      <point x="-366.0" y="1293.0" type="line"/>
    </contour>
    <contour>
      <point x="143.0" y="1769.0" type="curve" smooth="yes"/>
      <point x="244.0" y="1769.0"/>
      <point x="320.0" y="1853.0"/>
      <point x="345.0" y="1962.0" type="curve"/>
      <point x="256.0" y="2006.0" type="line"/>
      <point x="234.0" y="1957.0"/>
      <point x="218.0" y="1910.0"/>
      <point x="155.0" y="1912.0" type="curve" smooth="yes"/>
      <point x="71.0" y="1914.0"/>
      <point x="43.0" y="2039.0"/>
      <point x="-97.0" y="2039.0" type="curve" smooth="yes"/>
      <point x="-200.0" y="2039.0"/>
      <point x="-276.0" y="1953.0"/>
      <point x="-301.0" y="1849.0" type="curve"/>
      <point x="-212.0" y="1802.0" type="line"/>
      <point x="-190.0" y="1851.0"/>
      <point x="-171.0" y="1899.0"/>
      <point x="-110.0" y="1897.0" type="curve" smooth="yes"/>
      <point x="-26.0" y="1896.0"/>
      <point x="3.0" y="1769.0"/>
    </contour>
  </outline>
</glyph>
<glyph name="commaaccentcomb.case" format="2">
  <anchor x="170.0" y="0.0" name="_bottom"/>
  <anchor x="156.0" y="-166.0" name="_btm"/>
  <anchor x="170.0" y="-546.0" name="bottom"/>
  <outline>
    <contour>
      <point x="150.0" y="-546.0" type="line"/>
      <point x="206.0" y="-522.0"/>
      <point x="297.0" y="-424.0"/>
      <point x="297.0" y="-286.0" type="curve" smooth="yes"/>
      <point x="297.0" y="-175.0"/>
      <point x="248.0" y="-101.0"/>
      <point x="201.0" y="-81.0" type="curve"/>
      <point x="42.0" y="-172.0" type="line"/>
      <point x="42.0" y="-220.0" type="line"/>
      <point x="80.0" y="-230.0"/>
      <point x="106.0" y="-291.0"/>
      <point x="106.0" y="-341.0" type="curve" smooth="yes"/>
      <point x="106.0" y="-405.0"/>
      <point x="89.0" y="-458.0"/>
      <point x="69.0" y="-481.0" type="curve"/>
      <point x="69.0" y="-506.0" type="line"/>
    </contour>
  </outline>
</glyph>
<glyph name="d.sc" format="2">
  <advance width="1398.0"/>
  <anchor x="694.0" y="0.0" name="bottom"/>
  <anchor x="706.0" y="-218.0" name="btm"/>
  <anchor x="694.0" y="646.0" name="center"/>
  <anchor x="724.0" y="1818.0" name="top"/>
  <outline>
    <contour>
      <point x="172.0" y="0.0" type="line"/>
      <point x="206.0" y="0.0"/>
      <point x="236.0" y="0.0"/>
      <point x="268.0" y="0.0" type="curve" smooth="yes"/>
      <point x="366.0" y="0.0"/>
      <point x="488.0" y="-12.0"/>
      <point x="606.0" y="-14.0" type="curve" smooth="yes"/>
      <point x="1026.0" y="-20.0"/>
      <point x="1308.0" y="228.0"/>
      <point x="1308.0" y="682.0" type="curve" smooth="yes"/>
      <point x="1308.0" y="1076.0"/>
      <point x="1092.0" y="1306.0"/>
      <point x="628.0" y="1306.0" type="curve" smooth="yes"/>
      <point x="500.0" y="1306.0"/>
      <point x="376.0" y="1292.0"/>
      <point x="286.0" y="1292.0" type="curve" smooth="yes"/>
      <point x="248.0" y="1292.0"/>
      <point x="210.0" y="1292.0"/>
      <point x="172.0" y="1292.0" type="curve"/>
    </contour>
    <contour>
      <point x="410.0" y="180.0" type="curve"/>
      <point x="410.0" y="1120.0" type="line"/>
      <point x="444.0" y="1124.0"/>
      <point x="510.0" y="1132.0"/>
      <point x="586.0" y="1132.0" type="curve" smooth="yes"/>
      <point x="904.0" y="1132.0"/>
      <point x="1062.0" y="1008.0"/>
      <point x="1062.0" y="654.0" type="curve" smooth="yes"/>
      <point x="1062.0" y="310.0"/>
      <point x="886.0" y="168.0"/>
      <point x="638.0" y="164.0" type="curve" smooth="yes"/>
      <point x="568.0" y="164.0"/>
      <point x="472.0" y="166.0"/>
    </contour>
  </outline>
</glyph>
<glyph name="dblgravecomb.case" format="2">
  <anchor x="0.0" y="1660.0" name="_top"/>
  <anchor x="-108.0" y="2024.0" name="top"/>
  <outline>
    <contour>
      <point x="234.0" y="1618.0" type="curve"/>
      <point x="362.0" y="1694.0" type="line"/>
      <point x="350.0" y="1704.0"/>
      <point x="164.0" y="1958.0"/>
      <point x="158.0" y="1978.0" type="curve"/>
      <point x="-22.0" y="1888.0" type="line"/>
      <point x="58.0" y="1780.0"/>
      <point x="160.0" y="1662.0"/>
    </contour>
    <contour>
      <point x="-232.0" y="1618.0" type="curve"/>
      <point x="-104.0" y="1694.0" type="line"/>
      <point x="-116.0" y="1704.0"/>
      <point x="-310.0" y="1954.0"/>
      <point x="-316.0" y="1972.0" type="curve"/>
      <point x="-486.0" y="1882.0" type="line"/>
      <point x="-416.0" y="1780.0"/>
      <point x="-310.0" y="1662.0"/>
    </contour>
  </outline>
</glyph>
<glyph name="dotaccentcomb.case" format="2">
  <anchor x="0.0" y="1627.0" name="_top"/>
  <anchor x="0.0" y="2023.0" name="top"/>
  <outline>
    <contour>
      <point x="-10.0" y="1628.0" type="curve" smooth="yes"/>
      <point x="76.0" y="1628.0"/>
      <point x="152.0" y="1691.0"/>
      <point x="152.0" y="1782.0" type="curve" smooth="yes"/>
      <point x="152.0" y="1860.0"/>
      <point x="106.0" y="1918.0"/>
      <point x="12.0" y="1918.0" type="curve" smooth="yes"/>
      <point x="-71.0" y="1918.0"/>
      <point x="-152.0" y="1850.0"/>
      <point x="-152.0" y="1763.0" type="curve" smooth="yes"/>
      <point x="-152.0" y="1678.0"/>
      <point x="-87.0" y="1628.0"/>
    </contour>
  </outline>
</glyph>
<glyph name="dotbelowcomb.case" format="2">
  <anchor x="-1.0" y="0.0" name="_bottom"/>
  <anchor x="0.0" y="-166.0" name="_btm"/>
  <anchor x="-1.0" y="-430.0" name="bottom"/>
  <outline>
    <contour>
      <point x="-11.0" y="-430.0" type="curve" smooth="yes"/>
      <point x="75.0" y="-430.0"/>
      <point x="154.0" y="-364.0"/>
      <point x="154.0" y="-272.0" type="curve" smooth="yes"/>
      <point x="154.0" y="-195.0"/>
      <point x="105.0" y="-134.0"/>
      <point x="11.0" y="-134.0" type="curve" smooth="yes"/>
      <point x="-72.0" y="-134.0"/>
      <point x="-155.0" y="-205.0"/>
      <point x="-155.0" y="-292.0" type="curve" smooth="yes"/>
      <point x="-155.0" y="-377.0"/>
      <point x="-88.0" y="-430.0"/>
    </contour>
  </outline>
</glyph>
<glyph name="eight.sc" format="2">
  <advance width="607.0"/>
  <outline>
    <contour>
      <point x="308.0" y="-7.0" type="curve" smooth="yes"/>
      <point x="438.0" y="-7.0"/>
      <point x="553.0" y="50.0"/>
      <point x="552.0" y="169.0" type="curve" smooth="yes"/>
      <point x="550.0" y="344.0"/>
      <point x="191.0" y="355.0"/>
      <point x="191.0" y="488.0" type="curve" smooth="yes"/>
      <point x="191.0" y="536.0"/>
      <point x="239.0" y="569.0"/>
      <point x="305.0" y="569.0" type="curve" smooth="yes"/>
      <point x="378.0" y="569.0"/>
      <point x="417.0" y="533.0"/>
      <point x="415.0" y="483.0" type="curve" smooth="yes"/>
      <point x="412.0" y="426.0"/>
      <point x="380.0" y="387.0"/>
      <point x="307.0" y="367.0" type="curve"/>
      <point x="364.0" y="321.0" type="line"/>
      <point x="473.0" y="355.0"/>
      <point x="522.0" y="431.0"/>
      <point x="522.0" y="500.0" type="curve" smooth="yes"/>
      <point x="522.0" y="588.0"/>
      <point x="436.0" y="651.0"/>
      <point x="308.0" y="651.0" type="curve" smooth="yes"/>
      <point x="183.0" y="651.0"/>
      <point x="83.0" y="589.0"/>
      <point x="83.0" y="488.0" type="curve" smooth="yes"/>
      <point x="83.0" y="282.0"/>
      <point x="431.0" y="284.0"/>
      <point x="431.0" y="159.0" type="curve" smooth="yes"/>
      <point x="431.0" y="104.0"/>
      <point x="375.0" y="72.0"/>
      <point x="310.0" y="72.0" type="curve" smooth="yes"/>
      <point x="212.0" y="72.0"/>
      <point x="171.0" y="111.0"/>
      <point x="171.0" y="169.0" type="curve" smooth="yes"/>
      <point x="171.0" y="226.0"/>
      <point x="215.0" y="262.0"/>
      <point x="291.0" y="285.0" type="curve"/>
      <point x="232.0" y="340.0" type="line"/>
      <point x="101.0" y="296.0"/>
      <point x="55.0" y="222.0"/>
      <point x="55.0" y="162.0" type="curve" smooth="yes"/>
      <point x="55.0" y="45.0"/>
      <point x="182.0" y="-7.0"/>
    </contour>
  </outline>
</glyph>
<glyph name="eight.tf" format="2">
  <advance width="1265.0"/>
  <outline>
    <contour>
      <point x="654.0" y="-16.0" type="curve" smooth="yes"/>
      <point x="920.0" y="-16.0"/>
      <point x="1146.0" y="112.0"/>
      <point x="1144.0" y="384.0" type="curve" smooth="yes"/>
      <point x="1140.0" y="781.0"/>
      <point x="408.0" y="821.0"/>
      <point x="408.0" y="1158.0" type="curve" smooth="yes"/>
      <point x="408.0" y="1278.0"/>
      <point x="515.0" y="1350.0"/>
      <point x="645.0" y="1350.0" type="curve" smooth="yes"/>
      <point x="793.0" y="1350.0"/>
      <point x="880.0" y="1267.0"/>
      <point x="875.0" y="1138.0" type="curve" smooth="yes"/>
      <point x="871.0" y="1030.0"/>
      <point x="810.0" y="895.0"/>
      <point x="655.0" y="846.0" type="curve"/>
      <point x="772.0" y="748.0" type="line"/>
      <point x="987.0" y="833.0"/>
      <point x="1085.0" y="1014.0"/>
      <point x="1085.0" y="1169.0" type="curve" smooth="yes"/>
      <point x="1085.0" y="1373.0"/>
      <point x="912.0" y="1510.0"/>
      <point x="650.0" y="1510.0" type="curve" smooth="yes"/>
      <point x="397.0" y="1510.0"/>
      <point x="195.0" y="1382.0"/>
      <point x="195.0" y="1144.0" type="curve" smooth="yes"/>
      <point x="195.0" y="664.0"/>
      <point x="916.0" y="684.0"/>
      <point x="916.0" y="357.0" type="curve" smooth="yes"/>
      <point x="916.0" y="215.0"/>
      <point x="787.0" y="144.0"/>
      <point x="657.0" y="144.0" type="curve" smooth="yes"/>
      <point x="455.0" y="144.0"/>
      <point x="361.0" y="233.0"/>
      <point x="361.0" y="384.0" type="curve" smooth="yes"/>
      <point x="361.0" y="521.0"/>
      <point x="466.0" y="637.0"/>
      <point x="616.0" y="691.0" type="curve"/>
      <point x="491.0" y="788.0" type="line"/>
      <point x="234.0" y="680.0"/>
      <point x="140.0" y="510.0"/>
      <point x="140.0" y="368.0" type="curve" smooth="yes"/>
      <point x="140.0" y="88.0"/>
      <point x="396.0" y="-16.0"/>
    </contour>
  </outline>
</glyph>
<glyph name="eight.tosf" format="2">
  <advance width="1354.0"/>
  <outline>
    <contour>
      <point x="699.0" y="-16.0" type="curve" smooth="yes"/>
      <point x="969.0" y="-16.0"/>
      <point x="1217.0" y="113.0"/>
      <point x="1215.0" y="392.0" type="curve" smooth="yes"/>
      <point x="1211.0" y="800.0"/>
      <point x="430.0" y="842.0"/>
      <point x="430.0" y="1178.0" type="curve" smooth="yes"/>
      <point x="430.0" y="1298.0"/>
      <point x="545.0" y="1370.0"/>
      <point x="690.0" y="1370.0" type="curve" smooth="yes"/>
      <point x="847.0" y="1370.0"/>
      <point x="945.0" y="1293.0"/>
      <point x="942.0" y="1162.0" type="curve" smooth="yes"/>
      <point x="939.0" y="1035.0"/>
      <point x="860.0" y="914.0"/>
      <point x="703.0" y="865.0" type="curve"/>
      <point x="822.0" y="767.0" type="line"/>
      <point x="1054.0" y="855.0"/>
      <point x="1153.0" y="1040.0"/>
      <point x="1153.0" y="1189.0" type="curve" smooth="yes"/>
      <point x="1153.0" y="1393.0"/>
      <point x="969.0" y="1530.0"/>
      <point x="697.0" y="1530.0" type="curve" smooth="yes"/>
      <point x="431.0" y="1530.0"/>
      <point x="217.0" y="1402.0"/>
      <point x="217.0" y="1164.0" type="curve" smooth="yes"/>
      <point x="217.0" y="684.0"/>
      <point x="987.0" y="703.0"/>
      <point x="987.0" y="365.0" type="curve" smooth="yes"/>
      <point x="987.0" y="225.0"/>
      <point x="847.0" y="146.0"/>
      <point x="704.0" y="146.0" type="curve" smooth="yes"/>
      <point x="484.0" y="146.0"/>
      <point x="379.0" y="242.0"/>
      <point x="379.0" y="392.0" type="curve" smooth="yes"/>
      <point x="379.0" y="545.0"/>
      <point x="502.0" y="658.0"/>
      <point x="657.0" y="710.0" type="curve"/>
      <point x="530.0" y="807.0" type="line"/>
      <point x="259.0" y="698.0"/>
      <point x="158.0" y="528.0"/>
      <point x="158.0" y="376.0" type="curve" smooth="yes"/>
      <point x="158.0" y="96.0"/>
      <point x="430.0" y="-16.0"/>
    </contour>
  </outline>
</glyph>
<glyph name="eng.sc" format="2">
  <advance width="741.0"/>
  <outline>
    <contour>
      <point x="202.0" y="0.0" type="line"/>
      <point x="202.0" y="356.0" type="line"/>
      <point x="188.0" y="572.0" type="line"/>
      <point x="145.0" y="572.0" type="line"/>
      <point x="250.0" y="388.0" type="line"/>
      <point x="531.0" y="13.0" type="line"/>
      <point x="531.0" y="-46.0"/>
      <point x="433.0" y="-110.0"/>
      <point x="354.0" y="-131.0" type="curve"/>
      <point x="381.0" y="-181.0" type="line"/>
      <point x="486.0" y="-175.0"/>
      <point x="615.0" y="-104.0"/>
      <point x="642.0" y="-2.0" type="curve" smooth="yes"/>
      <point x="657.0" y="56.0"/>
      <point x="655.0" y="108.0"/>
      <point x="655.0" y="196.0" type="curve" smooth="yes"/>
      <point x="655.0" y="646.0" type="line"/>
      <point x="539.0" y="646.0" type="line"/>
      <point x="539.0" y="282.0" type="line"/>
      <point x="554.0" y="87.0" type="line"/>
      <point x="588.0" y="87.0" type="line"/>
      <point x="496.0" y="244.0" type="line"/>
      <point x="197.0" y="646.0" type="line"/>
      <point x="86.0" y="646.0" type="line"/>
      <point x="87.0" y="0.0" type="line"/>
    </contour>
  </outline>
</glyph>
<glyph name="eth.sc" format="2">
  <advance width="1410.0"/>
  <anchor x="721.0" y="-144.0" name="btm"/>
  <anchor x="698.0" y="1444.0" name="top"/>
  <outline>
    <contour>
      <point x="66.0" y="599.0" type="line"/>
      <point x="773.0" y="599.0" type="line"/>
      <point x="773.0" y="751.0" type="line"/>
      <point x="66.0" y="751.0" type="line"/>
    </contour>
    <contour>
      <point x="184.0" y="0.0" type="line"/>
      <point x="217.0" y="0.0"/>
      <point x="248.0" y="0.0"/>
      <point x="280.0" y="0.0" type="curve" smooth="yes"/>
      <point x="378.0" y="0.0"/>
      <point x="501.0" y="-12.0"/>
      <point x="617.0" y="-14.0" type="curve" smooth="yes"/>
      <point x="1038.0" y="-19.0"/>
      <point x="1324.0" y="228.0"/>
      <point x="1324.0" y="681.0" type="curve" smooth="yes"/>
      <point x="1324.0" y="1076.0"/>
      <point x="1104.0" y="1306.0"/>
      <point x="641.0" y="1306.0" type="curve" smooth="yes"/>
      <point x="512.0" y="1306.0"/>
      <point x="387.0" y="1292.0"/>
      <point x="298.0" y="1292.0" type="curve" smooth="yes"/>
      <point x="260.0" y="1292.0"/>
      <point x="222.0" y="1292.0"/>
      <point x="184.0" y="1292.0" type="curve"/>
    </contour>
    <contour>
      <point x="421.0" y="180.0" type="curve"/>
      <point x="421.0" y="1120.0" type="line"/>
      <point x="457.0" y="1124.0"/>
      <point x="523.0" y="1132.0"/>
      <point x="599.0" y="1132.0" type="curve" smooth="yes"/>
      <point x="916.0" y="1132.0"/>
      <point x="1075.0" y="1009.0"/>
      <point x="1075.0" y="654.0" type="curve" smooth="yes"/>
      <point x="1075.0" y="311.0"/>
      <point x="899.0" y="167.0"/>
      <point x="650.0" y="164.0" type="curve" smooth="yes"/>
      <point x="581.0" y="164.0"/>
      <point x="483.0" y="166.0"/>
    </contour>
  </outline>
</glyph>
<glyph name="exclamdown.case" format="2">
  <advance width="591.0"/>
  <outline>
    <contour>
      <point x="389.0" y="1235.0" type="line"/>
      <point x="187.0" y="1235.0" type="line"/>
      <point x="161.0" y="0.0" type="line"/>
      <point x="420.0" y="0.0" type="line"/>
    </contour>
    <contour>
      <point x="304.0" y="1760.0" type="curve" smooth="yes"/>
      <point x="215.0" y="1760.0"/>
      <point x="137.0" y="1682.0"/>
      <point x="139.0" y="1582.0" type="curve" smooth="yes"/>
      <point x="140.0" y="1499.0"/>
      <point x="192.0" y="1428.0"/>
      <point x="289.0" y="1428.0" type="curve" smooth="yes"/>
      <point x="374.0" y="1428.0"/>
      <point x="456.0" y="1508.0"/>
      <point x="453.0" y="1605.0" type="curve" smooth="yes"/>
      <point x="451.0" y="1693.0"/>
      <point x="385.0" y="1760.0"/>
    </contour>
  </outline>
</glyph>
<glyph name="ezh.sc" format="2">
  <advance width="1134.0"/>
  <anchor x="580.0" y="1792.0" name="top"/>
  <outline>
    <contour>
      <point x="482.0" y="-20.0" type="curve" smooth="yes"/>
      <point x="868.0" y="-20.0"/>
      <point x="1042.0" y="208.0"/>
      <point x="1042.0" y="422.0" type="curve" smooth="yes"/>
      <point x="1042.0" y="604.0"/>
      <point x="868.0" y="780.0"/>
      <point x="614.0" y="754.0" type="curve"/>
      <point x="970.0" y="1074.0" type="line"/>
      <point x="974.0" y="1292.0" type="line"/>
      <point x="160.0" y="1292.0" type="line"/>
      <point x="160.0" y="1098.0" type="line"/>
      <point x="736.0" y="1098.0" type="line"/>
      <point x="616.0" y="1006.0" type="line"/>
      <point x="334.0" y="748.0" type="line"/>
      <point x="338.0" y="558.0" type="line"/>
      <point x="388.0" y="590.0"/>
      <point x="456.0" y="608.0"/>
      <point x="526.0" y="608.0" type="curve" smooth="yes"/>
      <point x="664.0" y="608.0"/>
      <point x="788.0" y="540.0"/>
      <point x="788.0" y="396.0" type="curve" smooth="yes"/>
      <point x="788.0" y="268.0"/>
      <point x="704.0" y="174.0"/>
      <point x="426.0" y="174.0" type="curve" smooth="yes"/>
      <point x="310.0" y="174.0"/>
      <point x="240.0" y="190.0"/>
      <point x="184.0" y="206.0" type="curve"/>
      <point x="184.0" y="8.0" type="line"/>
      <point x="240.0" y="0.0"/>
      <point x="320.0" y="-20.0"/>
    </contour>
  </outline>
</glyph>
<glyph name="f.sc" format="2">
  <advance width="1030.0"/>
  <anchor x="296.0" y="0.0" name="bottom"/>
  <anchor x="582.0" y="1792.0" name="top"/>
  <outline>
    <contour>
      <point x="172.0" y="0.0" type="line"/>
      <point x="410.0" y="0.0" type="line"/>
      <point x="410.0" y="554.0" type="line"/>
      <point x="854.0" y="554.0" type="line"/>
      <point x="854.0" y="734.0" type="line"/>
      <point x="410.0" y="734.0" type="line"/>
      <point x="410.0" y="1112.0" type="line"/>
      <point x="1004.0" y="1112.0" type="line"/>
      <point x="1004.0" y="1292.0" type="line"/>
      <point x="172.0" y="1292.0" type="line"/>
    </contour>
  </outline>
</glyph>
<glyph name="five.dnom" format="2">
  <advance width="978.0"/>
  <outline>
    <contour>
      <point x="242.0" y="-12.0" type="curve" smooth="yes"/>
      <point x="628.0" y="-12.0"/>
      <point x="861.0" y="133.0"/>
      <point x="861.0" y="392.0" type="curve" smooth="yes"/>
      <point x="861.0" y="569.0"/>
      <point x="747.0" y="695.0"/>
      <point x="527.0" y="695.0" type="curve" smooth="yes"/>
      <point x="466.0" y="695.0"/>
      <point x="393.0" y="685.0"/>
      <point x="317.0" y="664.0" type="curve"/>
      <point x="346.0" y="916.0" type="line"/>
      <point x="805.0" y="916.0" type="line"/>
      <point x="824.0" y="1087.0" type="line"/>
      <point x="196.0" y="1087.0" type="line"/>
      <point x="147.0" y="516.0" type="line"/>
      <point x="184.0" y="495.0" type="line"/>
      <point x="265.0" y="522.0"/>
      <point x="350.0" y="545.0"/>
      <point x="420.0" y="545.0" type="curve" smooth="yes"/>
      <point x="589.0" y="545.0"/>
      <point x="653.0" y="483.0"/>
      <point x="653.0" y="384.0" type="curve" smooth="yes"/>
      <point x="653.0" y="206.0"/>
      <point x="470.0" y="137.0"/>
      <point x="205.0" y="137.0" type="curve" smooth="yes"/>
      <point x="180.0" y="137.0"/>
      <point x="162.0" y="137.0"/>
      <point x="140.0" y="140.0" type="curve"/>
      <point x="140.0" y="-4.0" type="line"/>
      <point x="166.0" y="-10.0"/>
      <point x="215.0" y="-12.0"/>
    </contour>
  </outline>
</glyph>
<glyph name="five.osf" format="2">
  <advance width="1209.0"/>
  <outline>
    <contour>
      <point x="320.0" y="-341.0" type="curve" smooth="yes"/>
      <point x="802.0" y="-335.0"/>
      <point x="1066.0" y="-53.0"/>
      <point x="1066.0" y="233.0" type="curve" smooth="yes"/>
      <point x="1066.0" y="502.0"/>
      <point x="913.0" y="673.0"/>
      <point x="627.0" y="673.0" type="curve" smooth="yes"/>
      <point x="557.0" y="673.0"/>
      <point x="481.0" y="663.0"/>
      <point x="399.0" y="644.0" type="curve"/>
      <point x="436.0" y="1024.0" type="line"/>
      <point x="1004.0" y="1024.0" type="line"/>
      <point x="1025.0" y="1222.0" type="line"/>
      <point x="260.0" y="1222.0" type="line"/>
      <point x="204.0" y="482.0" type="line"/>
      <point x="252.0" y="452.0" type="line"/>
      <point x="350.0" y="482.0"/>
      <point x="442.0" y="501.0"/>
      <point x="521.0" y="501.0" type="curve" smooth="yes"/>
      <point x="740.0" y="501.0"/>
      <point x="832.0" y="406.0"/>
      <point x="832.0" y="220.0" type="curve" smooth="yes"/>
      <point x="832.0" y="-10.0"/>
      <point x="593.0" y="-175.0"/>
      <point x="263.0" y="-175.0" type="curve" smooth="yes"/>
      <point x="242.0" y="-175.0"/>
      <point x="219.0" y="-173.0"/>
      <point x="198.0" y="-173.0" type="curve"/>
      <point x="198.0" y="-329.0" type="line"/>
      <point x="232.0" y="-339.0"/>
      <point x="287.0" y="-341.0"/>
    </contour>
  </outline>
</glyph>
<glyph name="five.sc" format="2">
  <advance width="1162.0"/>
  <outline>
    <contour>
      <point x="306.0" y="-16.0" type="curve" smooth="yes"/>
      <point x="768.0" y="-16.0"/>
      <point x="1026.0" y="194.0"/>
      <point x="1026.0" y="456.0" type="curve" smooth="yes"/>
      <point x="1026.0" y="676.0"/>
      <point x="884.0" y="828.0"/>
      <point x="608.0" y="828.0" type="curve" smooth="yes"/>
      <point x="532.0" y="828.0"/>
      <point x="460.0" y="816.0"/>
      <point x="380.0" y="796.0" type="curve"/>
      <point x="418.0" y="1106.0" type="line"/>
      <point x="962.0" y="1106.0" type="line"/>
      <point x="982.0" y="1292.0" type="line"/>
      <point x="234.0" y="1292.0" type="line"/>
      <point x="178.0" y="626.0" type="line"/>
      <point x="224.0" y="602.0" type="line"/>
      <point x="320.0" y="630.0"/>
      <point x="432.0" y="650.0"/>
      <point x="510.0" y="650.0" type="curve" smooth="yes"/>
      <point x="724.0" y="650.0"/>
      <point x="804.0" y="586.0"/>
      <point x="804.0" y="446.0" type="curve" smooth="yes"/>
      <point x="804.0" y="250.0"/>
      <point x="578.0" y="168.0"/>
      <point x="256.0" y="168.0" type="curve" smooth="yes"/>
      <point x="234.0" y="168.0"/>
      <point x="210.0" y="168.0"/>
      <point x="188.0" y="170.0" type="curve"/>
      <point x="188.0" y="-6.0" type="line"/>
      <point x="222.0" y="-14.0"/>
      <point x="280.0" y="-16.0"/>
    </contour>
  </outline>
</glyph>
<glyph name="five.tf" format="2">
  <advance width="1265.0"/>
  <outline>
    <contour>
      <point x="336.0" y="-22.0" type="curve" smooth="yes"/>
      <point x="836.0" y="-22.0"/>
      <point x="1112.0" y="260.0"/>
      <point x="1112.0" y="521.0" type="curve" smooth="yes"/>
      <point x="1112.0" y="790.0"/>
      <point x="955.0" y="943.0"/>
      <point x="655.0" y="943.0" type="curve" smooth="yes"/>
      <point x="581.0" y="943.0"/>
      <point x="503.0" y="932.0"/>
      <point x="411.0" y="914.0" type="curve"/>
      <point x="452.0" y="1290.0" type="line"/>
      <point x="1046.0" y="1290.0" type="line"/>
      <point x="1067.0" y="1488.0" type="line"/>
      <point x="275.0" y="1488.0" type="line"/>
      <point x="216.0" y="752.0" type="line"/>
      <point x="266.0" y="722.0" type="line"/>
      <point x="364.0" y="751.0"/>
      <point x="466.0" y="771.0"/>
      <point x="550.0" y="771.0" type="curve" smooth="yes"/>
      <point x="781.0" y="771.0"/>
      <point x="877.0" y="694.0"/>
      <point x="877.0" y="508.0" type="curve" smooth="yes"/>
      <point x="877.0" y="303.0"/>
      <point x="624.0" y="145.0"/>
      <point x="280.0" y="145.0" type="curve" smooth="yes"/>
      <point x="255.0" y="145.0"/>
      <point x="233.0" y="146.0"/>
      <point x="210.0" y="147.0" type="curve"/>
      <point x="210.0" y="-10.0" type="line"/>
      <point x="246.0" y="-20.0"/>
      <point x="303.0" y="-22.0"/>
    </contour>
  </outline>
</glyph>
